/* XPM */
static char *result[] = {
/* columns rows colors chars-per-pixel */
"29 34 15 1 ",
"  c #131313",
". c #391F21",
"X c #5D2C28",
"o c #2A2F4E",
"O c #424C6E",
"+ c #8E251D",
"@ c #ED7614",
"# c #C64524",
"$ c #E07438",
"% c #FFA214",
"& c #657392",
"* c #92A1B9",
"= c #C7CFDD",
"- c white",
"; c None",
/* pixels */
";;;;;;;;    ;;;;;;;;;;;;;;;;;",
";;;;;;; $$$$ ;;;;;;;;;;;;;;;;",
";;;;;; $$$$$$   ;;;;;;;;;;;;;",
";;;;;; $##++&**- ;;;;;;;;;;;;",
";;;;; $###+&**==- ;;;;;;;;;;;",
";;;;; $##+&**====- ;;;;;;;;;;",
";;;;; $#+&&**=====- ;;;;;;;;;",
";;;; $$#+&&**=====- ;;;;;;;;;",
";;;; $#++&&** = = * ;;;;;;;;;",
";;;;; #+ &&&* * = * ;;;;;;; ;",
";;;;; ++  &&&** * * ;;;;;; - ",
";;;;; + ;; &&&**** ;;;;;; =- ",
";;;;; + ; ++&&&&& ;;;;;;; =- ",
";;;; ++  OO++#$  ;;;;;;; *=- ",
";;;;;   &OOO+&&* ;;;;;;; *=- ",
";;;;;; &&OOO&**& ;;;;;; **=- ",
";     o&*OOO&**= ;;;;; ***- ;",
" XXXXX&oOOOO&**= ;;;; ***=- ;",
" X...&&*OOOOO&*O= ;  ***=- ;;",
" X...&&*OOOOOOO**= %***== ;;;",
" X...o*.OOOOOO &**= %*== ;;;;",
" X..&&o.+####$  &*O==%= ;;;;;",
" X..&*.+#####$+  &O** %% ;;;;",
" X..&*.+####$++ ; @&&   ;;;;;",
" X.....+####+++*  @@ ;;;;;;;;",
"; X....O+### ++* ;  ;;;;;;;;;",
";; X..&*+## ; +o* ;;;;;;;;;;;",
";;; XX&**+# ; o&* ;;;;;;;;;;;",
";;;; &**= + ;; &&* ; ;;;;;;;;",
";;;; &*= ; ;;;; &&o * ;;;;;;;",
";;; &OO ;;;;;;; &o&*& ;;;;;;;",
";; &&= ;;;;;;;;; &&& ;;;;;;;;",
";;; &&= ;;;;;;;; && ;;;;;;;;;",
";;;;   ;;;;;;;;;;  ;;;;;;;;;;"
};
