/* XPM */
static char *result[] = {
/* columns rows colors chars-per-pixel */
"38 38 6 1 ",
"  c #CEB8A0",
". c #C4ADA1",
"X c #D5BEA7",
"o c #CBA389",
"O c #B9A39B",
"+ c #B99181",
/* pixels */
" . . . . . . . . . . . . . . . . . . .",
".X.X.X.X.X. .X.X.X.X.X.X. .X.X.X.X.X.X",
"oO .oO .oO . .oO .oO .oO . .oO .oO .oO",
".X.O.X. .X. . .X.O.X. .X. . .X.O.X. .X",
"X.X+X.X.X.X.X.X.X+X.X.X.X.X.X.X+X.X.X.",
".X.X.X.o.X.X.o.X.X.X.o.X.X.o.X.X.X.o.X",
"X.X.o.X+X.X.X+X.X.o.X+X.X.X+X.X.o.X+X.",
". . O . . . . . . O . . . . . . O . . ",
" . . . . . . . . . . . . . . . . . . .",
".X.X.X.X.X.X.X.X.X.X.X.X.X.X.X.X.X.X.X",
"oO .oO .oO . .oO .oO .oO . .oO .oO .oO",
".X.O.X. .X.O. .X.O.X. .X.O. .X.O.X. .X",
"X.X+X.X.X.X+X.X.X+X.X.X.X+X.X.X+X.X.X.",
" . . . . . . . . . . . . .. . . . . . ",
".X.X.X.X.X. .X.X.X.X.X.X.  .X.X.X.X.X.",
"oO .oO .oO . .oO .oO .oO .. Oo. Oo. Oo",
".X.O.X. .X. . .X.O.X. .X.  .X. .X.O.X.",
"X.X+X.X.X.X.X.X.X+X.X.X.X..X.X.X.X+X.X",
".X.X.X.o.X.X.o.X.X.X.o.X.XX.X.o.X.X.X.",
"X.X.o.X+X.X.X+X.X.o.X+X.X..X.X+X.o.X.X",
". . O . . . . . . O . . .  . . . O . .",
" . . . . . . . . . . . . .. . . . . . ",
".X.X.X.X.X.X.X.X.X.X.X.X.XX.X.X.X.X.X.",
"oO .oO .oO . .oO .oO .oO .. Oo. Oo. Oo",
".X.O.X. .X.O. .X.O.X. .X.OO.X. .X.O.X.",
"X.X+X.X.X.X+X.X.X+X.X.X.X++X.X.X.X+X.X",
" . . . . . . . . . . . . .. . . . . . ",
".X.X.X.X.X. .X.X.X.X.X.X.  .X.X.X.X.X.",
"oO .oO .oO . .oO .oO .oO .. Oo. Oo. Oo",
".X.O.X. .X. . .X.O.X. .X.  .X. .X.O.X.",
"X.X+X.X.X.X.X.X.X+X.X.X.X..X.X.X.X+X.X",
".X.X.X.o.X.X.o.X.X.X.o.X.XX.X.o.X.X.X.",
"X.X.o.X+X.X.X+X.X.o.X+X.X..X.X+X.o.X.X",
". . O . . . . . . O . . .  . . . O . .",
" . . . . . . . . . . . . .. . . . . . ",
".X.X.X.X.X.X.X.X.X.X.X.X.XX.X.X.X.X.X.",
"oO .oO .oO . .oO .oO .oO .. Oo. Oo. Oo",
".X.O.X. .X.O. .X.O.X. .X.OO.X. .X.O.X."
};
