/* XPM */
static char *result[] = {
/* columns rows colors chars-per-pixel */
"38 38 9 1 ",
"  c #6E5967",
". c #EDA799",
"X c #E28989",
"o c #926475",
"O c #AD707B",
"+ c #FBCAAE",
"@ c #86A0A8",
"# c #5D7889",
"$ c #728896",
/* pixels */
"                                      ",
".X   oOOOo                   oOOo   X.",
"+X @# OOOO                   OOO #@ X+",
"+X @$ OOOO                   OOO $@ X+",
"+X   oOOOO                   OOOo   X+",
"+X oOOOOOo                   oOOOOo X+",
"+X                                  X+",
"+X                          oOOOOOo X+",
"+X oOOOOo                   OOOOOOO X+",
"+X OOOOOO                   OOOOOOO X+",
".X oOOOOo                   oOOOOOo X.",
"                                      ",
".X oOOOo                       oOOo X.",
"+X OOOOO                       OOOO X+",
"+X OOOOO                       OOOO X+",
"+X oOOOo  $$               $$  oOOo X+",
"+X        #$               $#       X+",
"+X        #$               $#   oOo X+",
"+X  oOO   #$               $#   OOO X+",
"+X  OOO   #$               $#   OOO X+",
"+X  oOO   #$               $#   oOo X+",
".X        #$               $#       X.",
"   oOOOo  #$               $#         ",
".X OOOOO  #$               $#  oOo  X.",
"+X OOOOO  #$               $#  OOO  X+",
"+X oOOOo  #$               $#  oOo  X+",
"+X        #$               $#       X+",
"+X oOOOo  #$               $# oOOOo X+",
"+X   oOO                      OOo   X+",
"+X @$ OO                      OO $@ X+",
"+X @# OO                      OO #@ X+",
"+X   oOo                      oOo   X+",
".X                                  X.",
"   oOOOOo                    oOOOOo   ",
".X OOOOOO                    OOOOOO X.",
"+X oOOOOo                    OOOOOO X+",
"+X                           oOOOOo X+",
"+X                                  X+"
};
