/* XPM */
static char *result[] = {
/* columns rows colors chars-per-pixel */
"38 38 11 1 ",
"  c #EDA799",
". c #E28989",
"X c #6E5967",
"o c #AD707B",
"O c #C39490",
"+ c #728896",
"@ c #FBCAAE",
"# c #5D7889",
"$ c #86A0A8",
"% c #926475",
"& c #B98080",
/* pixels */
" .XXXXXoOOOOOOOOOOoX+XoOOOOOOOOoXXXX. ",
"@.XX#+#XOOOOOOOOOOOX#XOOOOOOOOOX#+#X.@",
"@.XX+$+XOOOOOOOOOOOX+XOOOOOOOOOX+$+X.@",
"@.XXXXXoOOOOOOOOOOOX+XOOOOOOOOOoXXXX.@",
"@.XXoOOOOOOOOOOOOOoX$XoOOOOOOOOOOOoX.@",
"@.XXXXXXXXXXXXXXXXXX$XXXXXXXXXXXXXXX.@",
"@.XXXXXXXXXXXXXXXXXX$XoOOOOOOOOOOOoX.@",
"@.XX%ooooooooooooo%X+XOOOOOOOOOOOOOX.@",
"@.XXoooooooooooooooX$XOOOOOOOOOOOOOX.@",
" .XX%ooooooooooooo%X+XoOOOOOOOOOOOoX. ",
"XXXXXXXXXXXXXXXXXXXX+XXXXXXXXXXXXXXXXX",
" .XXoOOOOOOOOOOOOOoX#XoOOOOOOOOOOOoX. ",
"@.XXOOOOOOOOOOOOOOOX#XOOOOOOOOOOOOOX.@",
"@.XXOOOOOOOOOOOOOoXXXXXoOOOOOOOOOOOX.@",
"@.XXoOOOOOOOOOOO&X$$X$$X&OOOOOOOOOoX.@",
"@.XXXXXXXXXXXXXXXX+$X+$XXXXXXXXXXXXX.@",
"@.XXXXXXXXXXXXXXXX+$X+$XoOOOOOOOOOoX.@",
"@.XXX%oooooooooo%X+$X+$XOOOOOOOOOOOX.@",
"@.XXXooooooooooooX+$X+$XOOOOOOOOOOOX.@",
"@.XXX%oooooooooo%X+$X+$XoOOOOOOOOOoX.@",
" .XXXXXXXXXXXXXXXX+$X+$XXXXXXXXXXXXX. ",
"XXXXoOOOOOOOOOOOoX+$X+$XXXXXXXXXXXXXXX",
" .XXOOOOOOOOOOOOOX+$X+$X%ooooooooo%X. ",
"@.XXOOOOOOOOOOOOOX+$X+$XoooooooooooX.@",
"@.XXoOOOOOOOOOOOoX+$X+$X%ooooooooo%X.@",
"@.XXXXXXXXXXXXXXXX+$X+$XXXXXXXXXXXXX.@",
"@.XXoOOOOOOOOOOO&X#$X#$X&OOOOOOOOOOX.@",
"@.XXXXXoOOOOOOOOOoXX#XXoOOOOOOOoXXXX.@",
"@.XX+$+XOOOOOOOOOO&X#X&OOOOOOOOX+$+X.@",
"@.XX#+#XOOOOOOOOOOOX+XOOOOOOOOOX#+#X.@",
"@.XXXXXoOOOOOOOOOOoX+XOOOOOOOOOoXXXX.@",
" .XXXXXXXXXXXXXXXXXX+XXXXXXXXXXXXXXX. ",
"XXXX%oooooooooooo%XX#XoOOOOOOOOOOOoXXX",
" .XXooooooooooooooXX+XOOOOOOOOOOOOOX. ",
"@.XX%oooooooooooo%XX#XOOOOOOOOOOOOOX.@",
"@.XXXXXXXXXXXXXXXXXX+XoOOOOOOOOOOOoX.@",
"@.XXXXXXXXXXXXXXXXXX#XXXXXXXXXXXXXXX.@",
"@.XXoOOOOOOOOOOOOOoX#XXXXXXXXXXXXXXX.@"
};
