/* XPM */
static char *result[] = {
/* columns rows colors chars-per-pixel */
"9 30 28 1 ",
"  c #000101",
". c #020404",
"X c #020405",
"o c #020506",
"O c #030607",
"+ c #080E10",
"@ c #121A1C",
"# c #1C2529",
"$ c #202D31",
"% c #273336",
"& c #2E3E44",
"* c #2E3F44",
"= c #41575E",
"- c #4D5F64",
"; c #4B636C",
": c #54676E",
"> c #627B83",
", c #6E848B",
"< c #72878C",
"1 c #72919B",
"2 c #779098",
"3 c #A3BCC3",
"4 c #B1CDD5",
"5 c #CFF4FF",
"6 c #D1F6FF",
"7 c #F2FFFF",
"8 c white",
"9 c None",
/* pixels */
"9999 9999",
"999 ; 999",
"99X+%+O99",
"9O> # 5O9",
"o1.9 9o7o",
".:.999o3o",
".&2ooo6<o",
"9o=2463o9",
"9o$=,3-o9",
"9o$$&-&.9",
"99.@@@.99",
"99o&,3o99",
"999o@o999",
"999o$o999",
"999o$o999",
"999o*o999",
"999o=o999",
"999o*o999",
"999o=o999",
"999o,o999",
"999o=o999",
"ooo@,o999",
"9o=@,o999",
"ooo@3o999",
"999.4O999",
"ooo@8O999",
"o&,@6o999",
"o.&@3o999",
"99.o-.999",
"9999.9999"
};
