/* XPM */
static char *result[] = {
/* columns rows colors chars-per-pixel */
"38 38 9 1 ",
"  c #CBC3AF",
". c #918A81",
"X c #3B1C1C",
"o c #3C3426",
"O c #79736E",
"+ c #A1988C",
"@ c #867E77",
"# c #66625D",
"$ c #DDD6C7",
/* pixels */
"     .. XXoXOOOOOOOOOOOOOXXXX       .+",
" ....... ooO@....@.O..@..OX  ++  ....+",
"+.++.....XO@@....@O..@@@.@X+....+.++..",
"+.+++++..X@@...@@@O@@..@@@X..+.++.++.+",
"+..+++..+X@@@@@@.O@@....@XX.++.++..++.",
"..++...++X..@@@@O.@@.@..@X..++.+..++..",
".......+.X....@.O.@@@@..@X+++.++......",
"+..+++...o....@O.@@..@..@o+.+..++..+++",
"++..+++..o@...@@@....@@@@o.....+++..++",
"oooX++..Xo@@@..@..@@@@@XXoooXXXXoooX++",
"XXooXXXXoXXXXooXXXXXXooX  XXoooXXXooXX",
"#######ooo##oo            Xo##########",
"++....####++X  ++...++....o##++.++....",
"+......++.++X +......++.++o++++.+.....",
"+...++++++.+X++++....+++++o.++..+...++",
"+...........X...++++++...+X+.+..+.....",
"++..++...+++X..++..+.++..+X.....++..++",
"+..++..+++.+X..+....+.++..X+...++..++.",
"+.+++.++++.+X..++...+...+.X+.+.++.+++.",
"XXX++..+....X...+.++++...oo+++.+XXX++.",
"XXXXXXXXXXXXXXXXXXXXXXXXooXXXXXXXXXXXX",
"$$$XXXX$$$$$$$XXooo######ooo$$$$$$$XXX",
"++$$++$$.+++++$Xo###@@@..#oX$..+++$$$+",
"+..+++++..+++++X#@@@@.@..#oX+..++..+++",
"+..++..++.....+X@@@...@@.@#X...++..++O",
"....++..+..++..X@@.....@.@.X........++",
"...++++...++++.X@..@@@.@@@.Xo.+....+++",
"..++........+++o@@@..@@@...#o+++..++..",
"+++...++..+...+oo@...@@.@@..o++++++..O",
"++...++++.+++..Xo@.@@@....@@X..+++.OO+",
"+...+++++.++XXXXX@@@........XX.++..O++",
"XXXXXXXXXXXXXXXXXXXXXXXXXXooXXXXXXXXXX",
"$$$$$$$$$$$XXooo       ooo$$$$$$$$$XXX",
"+++....+..+$X    @@@..  o$..++++++$$++",
"+.++.+++..++X.@@.@..@@  X+...++++..+++",
"+..+++.++..+X@@@...@.@@ X...+..++..++.",
".......++...X@@.O@.@@.@@X...+.......++",
"..+++.+..++.X.@@.O@OO@@@X..+++.....+++"
};
