/* XPM */
static char *result[] = {
/* columns rows colors chars-per-pixel */
"25 33 15 1 ",
"  c #131313",
". c #391F21",
"X c #5D2C28",
"o c #2A2F4E",
"O c #424C6E",
"+ c #8E251D",
"@ c #ED7614",
"# c #C64524",
"$ c #E07438",
"% c #FFA214",
"& c #657392",
"* c #92A1B9",
"= c #C7CFDD",
"- c white",
"; c None",
/* pixels */
";;;;;;;;;;;;;    ;;;;;;;;",
";;;;;;;;;;;; $$$$ ;;;;;;;",
";;;;;;;;;   $$$$$$ ;;;;;;",
";;;;;;;; -**&++##$ ;;;;;;",
";;;;;;; -==**&+###$ ;;;;;",
";;;;;; -====**&+##$ ;;;;;",
";;;;; -=====**&&+#$ ;;;;;",
";;;;; -=====**&&+#$$ ;;;;",
";;;;; * = = **&&++#$ ;;;;",
";;;;; * = * *&&& +# ;;;;;",
";;;;; * * **&&&  ++ ;;;;;",
";;;;;; ****&&& ;; + ;;;;;",
";;;;;;; &&&&&#+ ; + ;;;;;",
";;;;;;;;  $##+&&  ++ ;;;;",
";;;;;;;; $+++&**&&  ;;;;;",
";        =***&****& ;;;;;",
" XXXXXXX*=***&==**O& ;;;;",
" X.....*o&***&OOOO**& ;;;",
" X....*&&o&*&&OOO =*&  ;;",
" X...*&&&o &&OOOO  =&@@ ;",
" X.**o&&X  OOOOOO% OO&@ ;",
" X.&&o..X  ++++++*%=**& ;",
" X.&&...X +#$##+***%=&& ;",
" X......X++####***==%  ;;",
"; X....X=+++##***== % ;;;",
";; X..X=O++++***==o& ;;;;",
";;; XX =*O+****=-o&&& ;;;",
";;;;   =*=====--  *&&& ;;",
";;;;;; =------  ;; *&o& ;",
";;;;;; =*&    ;;;;; o&&& ",
";;;;;; OOO ;;;;;;;;; *& ;",
";;;;; =&&& ;;;;;;;; *& ;;",
";;;;;;    ;;;;;;;;;;  ;;;"
};
