/* XPM */
static char *result[] = {
/* columns rows colors chars-per-pixel */
"24 35 17 1 ",
"  c #131313",
". c #391F21",
"X c #5D2C28",
"o c #2A2F4E",
"O c #424C6E",
"+ c #8E251D",
"@ c #ED7614",
"# c #C64524",
"$ c #DF7126",
"% c #E07438",
"& c #FFA214",
"* c #FFC825",
"= c #657392",
"- c #92A1B9",
"; c #C7CFDD",
": c white",
"> c None",
/* pixels */
">>>>>>>>>>>>>>>>    >>>>",
">>>>>>>>>>>>>>> %%%% >>>",
">>>>>>>>>>>>   %%%%%% >>",
">>>>>>>>>>> :--=++##% >>",
">>>>>>>>>> :;;--=+###% >",
">>>>>>>>> :;;;;--=+##% >",
">>>>>>>> :;;;;;--==+#% >",
">>>>>>>> :;;;;;--==+#%% ",
">>>>>>>> - ; ; --==++#% ",
">>>>>>>> - ; - -=== +# >",
">>>>>>>> - - --===  ++ >",
">>>>>>>>> ----=== >> + >",
">>>>>>>>>> =====+ >> + >",
">>>>>>>>>>>  $+==O > ++ ",
">>>>>>>>>>> ++=--=O >  >",
">>>>>>>>>>> ;-=---=O >>>",
">>>>>>>     ;--;;-O= >>>",
">>>>>> XXXXX----=O--= >>",
">>>>>> X....o====O;-= >>",
">>>>>> X....-oOOOO;-= >>",
">      X...-==O*OO;-= >>",
" :;------------&++OO >>>",
"> :;-----------&@;-=@ >>",
">> :::;;;;;;;;;&@--=@ >>",
">>>    X..-.+++&#+== >>>",
">>>>>>> X..;+++ #+== >>>",
">>>>>>>> X.;+= > +== >>>",
">>>>>>>>> XX;-=  -oo= >>",
">>>>>>>>>>   ;O=  -== >>",
">>>>>>>>>>>>> -==  -== >",
">>>>>>>>>>>>> -= > -== >",
">>>>>>>>>>>> ;= >>> oo= ",
">>>>>>>>>>>>>  >>>> -== ",
">>>>>>>>>>>>>>>>>> -== >",
">>>>>>>>>>>>>>>>>>>   >>"
};
