/* XPM */
static char *result[] = {
/* columns rows colors chars-per-pixel */
"36 27 10 1 ",
"  c black",
". c #05090F",
"X c #0C0E17",
"o c #0F1A25",
"O c #1D303B",
"+ c #552F87",
"@ c #9F51F7",
"# c #DC8BF7",
"$ c #F7CEF7",
"% c None",
/* pixels */
"%%.%%%%.%%%%%%%%%%%%%%%%%%%%%%%%%%%%",
"%o.%%ooo%%%%%%%%%%%%%%%%%%%%%%%%%%%%",
"oX%%ooO%%%%%%%%%%%%%%%%%%%%%%%%%%%%%",
"oX%%oO%%%%%%%%%%%%%%%%%%%%%%%%%%%%%%",
"oXo%oO%%%oOOOoO%%%%%%%%%%%%%%%%%%%%%",
"%ooOoo%%oOOOoOOO%.OO%%%%%%%%%%%%%%%%",
"%oOOooooOOOoOOooOOOOoO%%%%%%%%%%%%%%",
"%@O@oo..OOOoOOOOoOooOOo%%%%%%%%%%%%%",
"%oOOoo..oooOoOOO%%%%%oOO%%%%%%%%%%%%",
"%%OOoo.o.oOoOOo%%%%%%oOoOo%%%%%%%%%%",
"%%%%o.o.o.oOoooO%%%%%%oOoO@%%%%%%%%%",
"%%%%%oooo..oOOOo%%%%%%%oOO$$@%%%%%%%",
"o.%% ooo.o...ooO%%%%%%%%@$@$#@%%%%%%",
"o o  .oo%%++OO@@%%%%%%%%%$$@$#@%%%%%",
"%  .. .%%oo@@@Oo.%%%%%%%%%%$@$#@%%%%",
"%% ..%%%oooooo.X%%%%%%%%%%%%$@$#@%%%",
"%%%%%%%%%%ooo.X.%%%%%%%%%%%%%$@$#@%%",
"%%%%%%%%%X.X.X.%%%%%%%%%%%%%%%$@$#@%",
"%%%%%%%%%X.XX..%%%%%%%%%%%%%%%%$@$%%",
"%%%%%%%%%..X..%%%%%%%%%%%%%%%%%%$$$#",
"%%%%%%%%%%..X.X%%%%%%%%%%%%%%%%%%$$@",
"%%%%%%%%%%+@X..%%%%%%%%%%%%%%%%%%%@$",
"%%%%%%%%%%%+.X..%%%%%%%%%%%%%%%%%%%%",
"%%%%%%%%%%%X..X..%%%%%%%%%%%%%%%%%%%",
"%%%%%%%%%%%XXXXXXX%%%%%%%%%%%%%%%%%%",
"%%%%%%%%%%%%XXX.O.%%%%%%%%%%%%%%%%%%",
"%%%%%%%%%%%%%%%%.O%%%%%%%%%%%%%%%%%%"
};
