/* XPM */
static char *result[] = {
/* columns rows colors chars-per-pixel */
"36 27 10 1 ",
"  c black",
". c #05090F",
"X c #0C0E17",
"o c #0F1A25",
"O c #1D303B",
"+ c #552F87",
"@ c #9F51F7",
"# c #DC8BF7",
"$ c #F7CEF7",
"% c None",
/* pixels */
"%%%%%%%%%%%%%%%%%%%%%%%%%%%%.%%%%.%%",
"%%%%%%%%%%%%%%%%%%%%%%%%%%%%ooo%%.o%",
"%%%%%%%%%%%%%%%%%%%%%%%%%%%%%Ooo%%Xo",
"%%%%%%%%%%%%%%%%%%%%%%%%%%%%%%Oo%%Xo",
"%%%%%%%%%%%%%%%%%%%%%OoOOOo%%%Oo%oXo",
"%%%%%%%%%%%%%%%%OO.%OOOoOOOo%%ooOoo%",
"%%%%%%%%%%%%%%OoOOOOooOOoOOOooooOOo%",
"%%%%%%%%%%%%%oOOooOoOOOOoOOO..oo@O@%",
"%%%%%%%%%%%%OOo%%%%%OOOoOooo..ooOOo%",
"%%%%%%%%%%oOoOo%%%%%%oOOoOo.o.ooOO%%",
"%%%%%%%%%@OoOo%%%%%%OoooOo.o.o.o%%%%",
"%%%%%%%@$$OOo%%%%%%%oOOOo..oooo%%%%%",
"%%%%%%@#$@$@%%%%%%%%Ooo...o.ooo %%.o",
"%%%%%@#$@$$%%%%%%%%%@@OO++%%oo.  o o",
"%%%%@#$@$%%%%%%%%%%.oO@@@oo%%. ..  %",
"%%%@#$@$%%%%%%%%%%%%X.oooooo%%%.. %%",
"%%@#$@$%%%%%%%%%%%%%.X.ooo%%%%%%%%%%",
"%@#$@$%%%%%%%%%%%%%%%.X.X.X%%%%%%%%%",
"%%$@$%%%%%%%%%%%%%%%%..XX.X%%%%%%%%%",
"#$$$%%%%%%%%%%%%%%%%%%..X..%%%%%%%%%",
"@$$%%%%%%%%%%%%%%%%%%X.X..%%%%%%%%%%",
"$@%%%%%%%%%%%%%%%%%%%..X@+%%%%%%%%%%",
"%%%%%%%%%%%%%%%%%%%%..X.+%%%%%%%%%%%",
"%%%%%%%%%%%%%%%%%%%..X..X%%%%%%%%%%%",
"%%%%%%%%%%%%%%%%%%XXXXXXX%%%%%%%%%%%",
"%%%%%%%%%%%%%%%%%%.O.XXX%%%%%%%%%%%%",
"%%%%%%%%%%%%%%%%%%O.%%%%%%%%%%%%%%%%"
};
