/* XPM */
static char *result[] = {
/* columns rows colors chars-per-pixel */
"37 27 11 1 ",
"  c black",
". c #020307",
"X c #05090F",
"o c #0C0E17",
"O c #0F1A25",
"+ c #1D303B",
"@ c #552F87",
"# c #9F51F7",
"$ c #DC8BF7",
"% c #F7CEF7",
"& c None",
/* pixels */
"&&&&&&&&&&&&&&&&&&&&&&&&&&&&&X&&&&X&&",
"&&&&&&&&&&&&&&&&&&&&&&&&&&&&&OOO&&XO&",
"&&&&&&&&&&&&&&&&&&&&&&&&&&&&&&+OO&&oO",
"&&&&&&&&&&&&&&&&&&&&&&&&&&&&&&&+O&&oO",
"&&&&&&&&&&&&&&&&&&&&&+O+++O&&&&+O&OoO",
"&&&&&&&&&&&&&&&&++X&+++O+++O&&&OO+OO&",
"&&&&&&&&&&&&&&+O++++OO++O+++OO OO++O&",
"&&&&&&&&&&&&&O++OO+O++++O+++XX OO#+#&",
"&&&&&&&&&&&&+++O&&&&+++O+OOOXXXOO++O&",
"&&&&&&&&&&O+O+O&&&&&&&+OO+OXOOX O++&&",
"&&&&&&&&&#+O+O&&&&&&&+OOOOXOOXOX&&&&&",
"&&&&&&&#%%++O&&&&&&&&O++OOXXOOOO&&&&&",
"&&&&&&#$%#%#&&&&&&&&&+OXXXOXXOOO &&XO",
"&&&&&#$%#%%&&&&&&&&&##+OO@&&&OOX  O O",
"&&&&#$%#%&&&&&&&&&&&++##@OO&&&X XX  &",
"&&&#$%#%&&&&&&&&&&&&+++ OOOX&&&&XX &&",
"&&#$%#%&&&&&&&&&&&&.+O+XXOXOX&&&&&&&&",
"&#$%#%&&&&&&&&&&&&&..XXoOOOOXX&&&&&&&",
"#$%#%&&&&&&&&&&&&&&...XoXoXXX@&&&&&&&",
"$%%%&&&&&&&&&&&&&&o...o&&oXXX#&&&&&&&",
"#%%&&&&&&&&&&&&&&oo..@&&&&XX@&&&&&&&&",
"%#&&&&&&&&&&&&&ooo.@#&&&&XXX&&&&&&&&&",
"&&&&&&&&&&&&&&++o..&&&&&X+X&&&&&&&&&&",
"&&&&&&&&&&&&o+X++&&&&&&+XX&&&&&&&&&&&",
"&&&&&&&&&&&.o+X&&&&&&&X+&&&&&&&&&&&&&",
"&&&&&&&&&&&&.&&&&&&&&&&X&&&&&&&&&&&&&",
"&&&&&&&&&&&&&.&&&&&&&&&&.&&&&&&&&&&&&"
};
