/* XPM */
static char *result[] = {
/* columns rows colors chars-per-pixel */
"37 25 11 1 ",
"  c black",
". c #020307",
"X c #05090F",
"o c #0C0E17",
"O c #0F1A25",
"+ c #1D303B",
"@ c #552F87",
"# c #9F51F7",
"$ c #DC8BF7",
"% c #F7CEF7",
"& c None",
/* pixels */
"&&X&&&&X&&&&&&&&&&&&&&&&&&&&&&&&&&&&&",
"&OX&&OOO&&&&&&&&&&&&&&&&&&&&&&&&&&&&&",
"Oo&&OO+&&&&&&&&&&&&&&&&&&&&&&&&&&&&&&",
"Oo&&O+&&&&&&&&&&&&&&&&&&&&&&&&&&&&&&&",
"OoO&O+&&&&O+++O+&&&&&&&&&&&&&&&&&&&&&",
"&OO+OO&&&O+++O+++&X++&&&&&&&&&&&&&&&&",
"&O++OO OO+++O++OO++++O+&&&&&&&&&&&&&&",
"&#+#OO XX+++O++++O+OO++O&&&&&&&&&&&&&",
"&O++OOXXXOOO+O+++&&&&O+++&&&&&&&&&&&&",
"&&++O XOOXO+OX&&&&&&&&O+O+O&&&&&&&&&&",
"&&&&&XOXOOXOOO+&&&&&&&&O+O+#&&&&&&&&&",
"&&&&&OOOOXOOO+O&&&&&&&&&O++#%#&&&&&&&",
"OX&& OOOXOXXXO+&&&&&&&&&&#%$%$#&&&&&&",
"O O XOO&&@@O+###&&&&&&&&&&%%#%$#&&&&&",
"&  XO &&OO@@##++&&&&&&&&&&&&%#%$#&&&&",
"&& O &&o..XXXX+X&&&&&&&&&&&&&%#%$#&&&",
"&&&&&&o....XXXXX&&&&&&&&&&&&&&%#%$##&",
"&&&&&@Xoo.XXXX&&&&&&&&&&&&&&&&&%##$$&",
"&&&&#oXooo.Xo&&&&&&&&&&&&&&&&&&&%%%$#",
"&&&&&@ ooooXo&&&&&&&&&&&&&&&&&&&&%%%$",
"&&&&&&&&oooXXoo&&&&&&&&&&&&&&&&&&&%%#",
"&&&&&&&&&&oXXoXo&&&&&&&&&&&&&&&&&&&#%",
"&&&&&&&&&&&@XXoXXXX+&&&&&&&&&&&&&&&&&",
"&&&&&&&&&&&#@XXooo+X&&&&&&&&&&&&&&&&&",
"&&&&&&&&&&&&&&&&&&&X&&&&&&&&&&&&&&&&&"
};
