/* XPM */
static char *result[] = {
/* columns rows colors chars-per-pixel */
"36 25 11 1 ",
"  c black",
". c #020307",
"X c #05090F",
"o c #0C0E17",
"O c #0F1A25",
"+ c #1D303B",
"@ c #552F87",
"# c #9F51F7",
"$ c #DC8BF7",
"% c #F7CEF7",
"& c None",
/* pixels */
"&&X&&&&X&&&&&&&&&&&&&&&&&&&&&&&&&&&&",
"&OX&&OOO&&&&&&&&&&&&&&&&&&&&&&&&&&&&",
"Oo&&OO+&&&&&&&&&&&&&&&&&&&&&&&&&&&&&",
"Oo&&O+&&&O+++O+&&&&&&&&&&&&&&&&&&&&&",
"OoO&O+&&O+++O+++&X++&&&&&&&&&&&&&&&&",
"&OO+OOOXO++O++OO++++O+&&&&&&&&&&&&&&",
"&O++OOXO+++O++++O+OO++O&&&&&&&&&&&&&",
"&#+#OOXXOOO+O+++&&&&O+++&&&&&&&&&&&&",
"&O++OOXOXX+OXO+X&&&&&O+O+O&&&&&&&&&&",
"&&++OXOXOOOO++O+&&&&&&O+O+#&&&&&&&&&",
"&&&&&OOOOOXXOO+O&&&&&&&O++%%#&&&&&&&",
"OX&& OOOXXOXXOO+&&&&&&&&#%#%$#&&&&&&",
"O O  XOO&&&@OO+##&&&&&&&&%%#%$#&&&&&",
"&  XX X&&.OO@@#+O+&&&&&&&&&%#%$#&&&&",
"&& XX&&XXOOOO+++OX+&&&&&&&&&%#%$#&&&",
"&&&&&&XXXXXXXXX++++o&&&&&&&&&%#%$#&&",
"&&&&&&@XXXo&&&XX++Xoo&&&&&&&&&%#%$#&",
"&&&&&&#XoXo&&&&XXX.....&&&&&&&&%#%$#",
"&&&&&&&@Xooo&&&&&.....oo&&&&&&&&%%%$",
"&&&&&&&&XXooXX&&&&.....ooo&&&&&&&%%#",
"&&&&&&&&&&&&XXX&&&&@#..oooooo&&&&&#%",
"&&&&&&&&&&&&&XXO&&&&&@..oooXoX&&&&&&",
"&&&&&&&&&&&&&&OX&&&&&&&&&&&&oXo&&&&&",
"&&&&&&&&&&&&&&&X&&&&&&&&&&&&&oo&&&&&",
"&&&&&&&&&&&&&&&&&&&&&&&&&&&&&..&&&&&"
};
