/* XPM */
static char *result[] = {
/* columns rows colors chars-per-pixel */
"36 25 11 1 ",
"  c black",
". c #020307",
"X c #05090F",
"o c #0C0E17",
"O c #0F1A25",
"+ c #1D303B",
"@ c #552F87",
"# c #9F51F7",
"$ c #DC8BF7",
"% c #F7CEF7",
"& c None",
/* pixels */
"&&&&&&&&&&&&&&&&&&&&&&&&&&&&X&&&&X&&",
"&&&&&&&&&&&&&&&&&&&&&&&&&&&&OOO&&XO&",
"&&&&&&&&&&&&&&&&&&&&&&&&&&&&&+OO&&oO",
"&&&&&&&&&&&&&&&&&&&&&+O+++O&&&+O&&oO",
"&&&&&&&&&&&&&&&&++X&+++O+++O&&+O&OoO",
"&&&&&&&&&&&&&&+O++++OO++O++OXOOO+OO&",
"&&&&&&&&&&&&&O++OO+O++++O+++OXOO++O&",
"&&&&&&&&&&&&+++O&&&&+++O+OOOXXOO#+#&",
"&&&&&&&&&&O+O+O&&&&&X+OXO+XXOXOO++O&",
"&&&&&&&&&#+O+O&&&&&&+O++OOOOXOXO++&&",
"&&&&&&&#%%++O&&&&&&&O+OOXXOOOOO&&&&&",
"&&&&&&#$%#%#&&&&&&&&+OOXXOXXOOO &&XO",
"&&&&&#$%#%%&&&&&&&&##+OO@&&&OOX  O O",
"&&&&#$%#%&&&&&&&&&+O+#@@OO.&&X XX  &",
"&&&#$%#%&&&&&&&&&+XO+++OOOOXX&&XX &&",
"&&#$%#%&&&&&&&&&o++++XXXXXXXXX&&&&&&",
"&#$%#%&&&&&&&&&ooX++XX&&&oXXX@&&&&&&",
"#$%#%&&&&&&&&.....XXX&&&&oXoX#&&&&&&",
"$%%%&&&&&&&&oo.....&&&&&oooX@&&&&&&&",
"#%%&&&&&&&ooo.....&&&&XXooXX&&&&&&&&",
"%#&&&&&oooooo..#@&&&&XXX&&&&&&&&&&&&",
"&&&&&&XoXooo..@&&&&&OXX&&&&&&&&&&&&&",
"&&&&&oXo&&&&&&&&&&&&XO&&&&&&&&&&&&&&",
"&&&&&oo&&&&&&&&&&&&&X&&&&&&&&&&&&&&&",
"&&&&&..&&&&&&&&&&&&&&&&&&&&&&&&&&&&&"
};
