/* XPM */
static char *result[] = {
/* columns rows colors chars-per-pixel */
"35 29 10 1 ",
"  c black",
". c #05090F",
"X c #0C0E17",
"o c #0F1A25",
"O c #1D303B",
"+ c #552F87",
"@ c #9F51F7",
"# c #DC8BF7",
"$ c #F7CEF7",
"% c None",
/* pixels */
"%%%.%%%%.%%%%%%%%%%%%%%%%%%%%%%%%%%",
"%%o.%%ooo%%%%%%%%%%%%%%%%%%%%%%%%%%",
"%oX%%ooO%%%%%%%%%%%%%%%%%%%%%%%%%%%",
"%oX%%oO%%%%%%%%%%%%%%%%%%%%%%%%%%%%",
"%oXo%oO%%%%%%%%%%%%%%%%%%%%%%%%%%%%",
"%%ooOoo%%oOOooooo%%%%%%%%%%%%%%%%%%",
"%%oOOoo.oOOoOOOoOooo%%%%%%%%%%%%%%%",
"%%@O@oo.OOoOooooOoOoo%%%%%%%%%%%%%%",
"%%oOOoo.ooOoOOOooooOOo%%%%%%%%%%%%%",
"%%%OOo.o.oOoOOO%%%%ooOo%%%%%%%%%%%%",
"%%%%%.o.o.ooOo%%%%%%%ooOo%%%%%%%%%%",
"%%%%%oooo.OOoOO%%%%%%oooO@%%%%%%%%%",
"o.%% ooo.o.oOoo%%%%%%%oOO$$@%%%%%%%",
"o .  .oo%%%.oOO%%%%%%%%@$@$#@%%%%%%",
"%  .. .%%%+oO@@@%%%%%%%%$$@$#@%%%%%",
"%% ..%%%%o.+@...%%%%%%%%%%$@$#@%%%%",
"%%%%%%.oo....ooo.O%%%%%%%%%$@$#@%%%",
"%%%%%..oooo.o.oooOO%%%%%%%%%$@$#@%%",
"%%%... oooo.o.oo..O%%%%%%%%%%$@$#@%",
"%%o.    oo%%o..oo..%%%%%%%%%%%$@$#@",
"%%@+    %%%%%%%OOo..%%%%%%%%%%%$$$#",
"%%+  ..%%%%%%%%oOO.oo%%%%%%%%%%%$$@",
"%%%. ..%%%%%%%%%oo.+@.%%%%%%%%%%%@$",
"%%%%  %%%%%%%%%%%%..+.%%%%%%%%%%%%%",
"%%%%%.%%%%%%%%%%%%%%...%%%%%%%%%%%%",
"%%%%% %%%%%%%%%%%%%%%.oo%%%%%%%%%%%",
"%%%%..%%%%%%%%%%%%%%%%%Oo%%%%%%%%%%",
"%%%%%%%%%%%%%%%%%%%%%%%.O%%%%%%%%%%",
"%%%%%%%%%%%%%%%%%%%%%%%oo%%%%%%%%%%"
};
