/* XPM */
static char *result[] = {
/* columns rows colors chars-per-pixel */
"64 64 49 1 ",
"  c #010101",
". c #0B0B0B",
"X c #100F0F",
"o c #131313",
"O c #181717",
"+ c #171818",
"@ c #1C1B1B",
"# c #20201F",
"$ c #242424",
"% c #282727",
"& c #282827",
"* c #2B2B2B",
"= c #302F2F",
"- c #30302F",
"; c #343434",
": c #383737",
"> c #3C3C3C",
", c #403F3F",
"< c #40403F",
"1 c #444343",
"2 c #484747",
"3 c #4C4C4B",
"4 c #504F4F",
"5 c #50504F",
"6 c #535353",
"7 c #585757",
"8 c #585857",
"9 c #5C5C5B",
"0 c #605F5F",
"q c #60605F",
"w c #656464",
"e c #686767",
"r c #686867",
"t c #6C6C6B",
"y c #706F6F",
"u c #70706F",
"i c #737373",
"p c #787777",
"a c #787877",
"s c #7B7B7A",
"d c #807F7F",
"f c #80807F",
"g c #838383",
"h c #888787",
"j c #888887",
"k c #8C8B8B",
"l c #908F8F",
"z c #90908F",
"x c #939292",
/* pixels */
"$*%$;>>:2>1211674780q4:;>,;::;>1:>:>36eeqr841;>1&;#X+#$=:,>;=*$#",
"sdsussp9379wtiiiiipsssassdfspsssaa9<325yww90w9tqqwtqwayteqqtppii",
"teetiiie23qptirtw0riityuywtyiuutttt1>2wfggsappppappssgs0146eeqet",
"9wertte0127teerwewerytyutqtyttttytt:;2tyttttqeeeytewtii968>9eww0",
"9wwwete2,39tewrtww9ettwrwwrttteettr:+-wtreweyrtyiyt9ww7367<6wwee",
"rweertt,$2eitrttttretyttw0eweytwwww=+=7ttiiiutuyytrqqw2*13>0rwwy",
"itw0tiy>12wtuurttrtyuyytqweewteertw:+%6wryiitrtytwttyw1&o<4wyyty",
"urwwert6w7ryiutitewttiirwewweeewtww>>:6ttttyiutytwwywq1,<*3rtttr",
"iyteett9eqyiyittteeetiitttwweeeyrt91922tyetyiiiutyttw714<$:ertit",
"iipyyty5<9iyiyteitetiiiiuee0q0tttu99t1;5tyyyuyiyppyew1;33>%wirti",
"90qttw7>q,wyyteieruyir096237386wut19t7o+&19uiiipiy9>+.*98w1>9678",
"...oXo :9#X#&=%+@*=*@..   .%;:&@#+o79q&   .@;>,:&+.   ;;236. .  ",
".     +3q1.             ..        %1;=:&+X           o,96$$X..XX",
"1;;1:2623794,,3we4;o&,>,5672$>5257053>>9994>*%&**#@%.+;>65,6,:1:",
">131569wydhjhggggjsyyyw59r95aspsfipggssssdggggi242=2869ydfggssi6",
"w0>::ylkgsityiyipaggssfs733wauuiyiiipiiiiiyiiipt530yweiippititti",
"ii51,ipyyiyryyyiiiyiiyiaw>36ytrieypiiiiyyytyttyt49q99qq9etwttwtp",
"t5>36iyyiyyiitiiitiiayyyy213yyryttytiipiiyytyiiw267tt9999eyytwty",
"e1$5wiiiipppiyiaiyiaiyyry993tyytiyyyiyiiiiiytri0112teetqweytwttt",
"t1$$6piiipiiytiiaiaiiayytwe1wiyiiiiiiiiytytyiyie>&>etttqettyttiy",
"w-:*3iiiiiyiiyipiaaiiityi9y9tpaaiyyyyiiiuuitiiiy442wwriyrtetiiii",
";+;@$tiiiiiyiiiiippiyiyyp463wyippytiiyiiiiiiiyt03913twwyt00wetyq",
" $,3*2iiippyw0979wwqq9962&31>wwqrtuippiipyuiiit;*9>1989qyyyiye7$",
"X496, +@+#=@..  ..X++..  +:1 .X..+&,3369weyie6; $4;.o++$>1,>=#. ",
"2153,#                . X,152X          .X#$o  @91*.           $",
"41>::<>;;;:>;$#*#20eyiytepppdiiyt02=%.  .    X*56>;;;;%$#+#$+*34",
"w0wqypiw0041542:2ggsssaiaaaaapaasdgkxgi1=1=;49t9ttwt94:271*225w9",
"fgfgddfghghs63959piipipyutyuuiytyiiisgjj;;;37919gssaiitrureusggg",
"iiipiiippiipy;$+6piyytyyyytttttwetuttiis>%1w9:estittetreweiiisii",
"iiddssipspiiw$#;9ituyytttttrtttuiuiiiuiir6756sjitttweetitreyitii",
"iiiiiiiippip3*30qyteytttyuityytuiiiiuiisu7w3egiitttyyyttiiiiiiuu",
"iiipisiiippi:361wettewtyqryiiyiuiiuiiiii3486tytiyytyttitispiuret",
"yyipppyiiiay:9,;etttrtttuuyiipiiipiiuypy@=>8piiirwyuetttiiuuiutt",
"yiippiiiiyat232>rppitetttqtyiuiiippaipi:$9:6riyytquy0etettyuiiyt",
"ypiiiyipiiii3>23wiiuiutiytyyiiupiuiipt#.9w-7yttytytqwwtwttytuuty",
"ipfpppiiyw00:<613iiiiueiiiyyiiiiiiiyie o%%=3yytyyytwrre9wwrttuip",
"w97764,=+.  ;9tr>yiiiiiiiiiytyiipiiyy1%:::#+>2343633677761>:,40e",
".        ..X1q42%:997431269999542:=%+.126,>o          .X.      .",
"oX++o++:799499892            .       #31:>2:o..X+++oX....+X.o#X.",
"yhkkjkfppfpt948ti3$@@*=*@....Xo+o*1579wt8r9yr6>>4444w0,;1:X%0w0w",
"hkhkkklkkklhtwr70tjlkjggsur7>=33ekxxklggljkjkkjsw<8dsgs3*@;99tkl",
"ytypasdfhgfgyyst9tddpiyppasa1*&8gggdpiiiiiipytttddaitwty$$397eii",
"ttiipappsggft<356tiyuytyyuty22&5sipiiiytuyyiiutqwttrrrtr1*6912it",
"iiiiasssssggy3*%2tpiyiiyuyui3796uyurywuppitiiyytw9etiiiy9>+;9wii",
"pppppaapasffy5325ppiiiiuyttt2>:1tteetequpwtiiyttw9eetptee3%@>rti",
"iiiyiipiaasft6317iuiiiiuttuy361&wtiyiiytiiirwwqw6weeeuw8r96=:yii",
"ipiiiiipaasst351>iyytytwrtrr9wt*,typpipyuuywqe9weyitrtqt2%31:iii",
"iippiyppiiipt4662ipiiytwetttr86%.,0eiteyytuiiqqeiiir963<X@243tii",
"iaaiiiytttyi92w05yiiiyyirtrti973. o$=*+124wttw6,,69;o .  *&:19ip",
"ww>o=,:$+@%;@1341wait4,,;>8tr537>.       .+;-$X      X$X$<99:-;2",
"XX          .>1;Xo==+     .*;;2211;$$%>%X      Xo..%2611&*<>;   ",
"  =2@X@$$=,;>>&&%.   #X@$+   197::et26ee92-***:6r2;339e9270w6*#.",
"itgkjjggdgjzlgw14245usipir967isrriissdiggi85063119iissssaasdssgs",
"gggggdapuyiiaghg0>8iyyipiisgsppreituyyiisse62:11wkgsiiiiiipyypss",
"yytiapipiyttishhe;:9trweitittreweriitrttisp62779tiirriiiiyiyttii",
"ityippppuupiyysgp6$=yeweuiitttetetitteteeigw176wewreritiywtyiiii",
"ittryiiiuyiiiiuii97#6ettyiyttewtiiitteertipi332wqwewuiiiytytyipp",
"pitiiiipappuytyyi88**tetryiityyyttuttuttuiut3160qwryiiurwyiwyipi",
"iiipspsaapuyittyu81;%ttryiiiiiietutewruerurw*:3weteryiiewrtttiii",
"ipiiiiisaiuiiuwtt9ww8iietiiiiiiutyiiierttutw:139qetuiiiiytyuyiia",
"ituiiiiiiiiiuyweu1wwwpituiiyyiittttuiyrttii92e7e90ttitrtiyiitiii",
"tuiytissiairteqq1&666ttew00ttrttttrute0eee9*76*6weyitttutriiiiii",
"**&%**::,=%$ooX. $16*@%$o.o#@@@+++@$+...o. .7w;o*#@#*>24231;;;1;",
"                X1:**                oo.  o19w6                 "
};
