/* XPM */
static char *result[] = {
/* columns rows colors chars-per-pixel */
"64 64 229 2 ",
"   c #1B0B19",
".  c #1A0519",
"X  c #1F101D",
"o  c #230B1D",
"O  c #261B1B",
"+  c #2A1D1B",
"@  c #241719",
"#  c #39131B",
"$  c #2C201E",
"%  c #33211E",
"&  c #281927",
"*  c #391A28",
"=  c #320F24",
"-  c #2E2222",
";  c #2C212D",
":  c #322524",
">  c #362827",
",  c #352B2A",
"<  c #3B2E2C",
"1  c #3B2925",
"2  c #3D302E",
"3  c #2E2232",
"4  c #362A36",
"5  c #3C3332",
"6  c #3D3639",
"7  c #52141C",
"8  c #581817",
"9  c #431419",
"0  c #4C2616",
"q  c #5A2D16",
"w  c #542D19",
"e  c #572D18",
"r  c #5D331C",
"t  c #59311A",
"y  c #643519",
"u  c #693719",
"i  c #6C3A1B",
"p  c #63361B",
"a  c #733E1B",
"s  c #6D2814",
"d  c #4A1829",
"f  c #581A28",
"g  c #651820",
"h  c #472D24",
"j  c #49342D",
"k  c #553424",
"l  c #5C3624",
"z  c #5D3925",
"x  c #573929",
"c  c #433634",
"v  c #443836",
"b  c #4B3A34",
"n  c #433B3B",
"m  c #4B3E3B",
"M  c #493638",
"N  c #573D32",
"B  c #4D2E2E",
"V  c #66222B",
"C  c #782A2B",
"Z  c #643C25",
"A  c #6A3E22",
"S  c #623D29",
"D  c #663B2B",
"F  c #71342D",
"G  c #76411D",
"H  c #7C441D",
"J  c #7F481F",
"K  c #4D413E",
"L  c #47403F",
"P  c #53423C",
"I  c #5D443A",
"U  c #6C442C",
"Y  c #6A4026",
"T  c #734424",
"R  c #7A4623",
"E  c #75492C",
"W  c #7A4D2D",
"Q  c #774828",
"!  c #6D4933",
"~  c #674836",
"^  c #744E34",
"/  c #794F33",
"(  c #7C5335",
")  c #78543A",
"_  c #6B513F",
"`  c #3E3E41",
"'  c #3D3641",
"]  c #392E40",
"[  c #443D43",
"{  c #3E4044",
"}  c #464242",
"|  c #4C4443",
" . c #4D4B4C",
".. c #4C4748",
"X. c #524643",
"o. c #544946",
"O. c #5C4A43",
"+. c #554C4C",
"@. c #5A4D4B",
"#. c #594645",
"$. c #5B514E",
"%. c #55514E",
"&. c #554E51",
"*. c #555352",
"=. c #5B5453",
"-. c #5B5956",
";. c #5B575A",
":. c #5D5B5B",
">. c #57595C",
",. c #624C42",
"<. c #62524C",
"1. c #655044",
"2. c #765747",
"3. c #625553",
"4. c #645956",
"5. c #625D5B",
"6. c #6B5D58",
"7. c #7A544C",
"8. c #5F605E",
"9. c #64615E",
"0. c #6C615E",
"q. c #6F6057",
"w. c #74645B",
"e. c #776458",
"r. c #5B5C61",
"t. c #615D62",
"y. c #646362",
"u. c #6B6563",
"i. c #6C6966",
"p. c #64656A",
"a. c #6C6A6C",
"s. c #69686A",
"d. c #746A66",
"f. c #7C6B63",
"g. c #736D6B",
"h. c #756965",
"j. c #79716D",
"k. c #6C6E73",
"l. c #6F7175",
"z. c #6F7278",
"x. c #737274",
"c. c #72757A",
"v. c #76797D",
"b. c #7B7B7C",
"n. c #7B7675",
"m. c #736E70",
"M. c #5E6065",
"N. c #B23E1B",
"B. c #8E2326",
"V. c #88392F",
"C. c #A02C21",
"Z. c #C6391E",
"A. c #D83D23",
"S. c #81471E",
"D. c #83491F",
"F. c #884C1F",
"G. c #B05214",
"H. c #844B21",
"J. c #8A4E21",
"K. c #8D5122",
"L. c #84532C",
"P. c #925423",
"I. c #955826",
"U. c #845835",
"Y. c #915333",
"T. c #AB572C",
"R. c #9B6936",
"E. c #B26B27",
"W. c #F35E0C",
"Q. c #E1451B",
"!. c #EC5513",
"~. c #F67209",
"^. c #DB4921",
"/. c #C96A1C",
"(. c #886855",
"). c #816F6A",
"_. c #836E62",
"`. c #83726B",
"'. c #88776E",
"]. c #817875",
"[. c #927860",
"{. c #A9705E",
"}. c #B08A2C",
"|. c #FD8003",
" X c #FE961A",
".X c #FD900F",
"XX c #FEA31A",
"oX c #FFB928",
"OX c #FFAE20",
"+X c #EE9B35",
"@X c #968674",
"#X c #B38E76",
"$X c #FFB848",
"%X c #FFCC68",
"&X c #FFD860",
"*X c #7B7D82",
"=X c #7E8186",
"-X c #7F8388",
";X c #818286",
":X c #82858A",
">X c #85898E",
",X c #8A8A8D",
"<X c #878B90",
"1X c #8A8D92",
"2X c #8D9195",
"3X c #8F9398",
"4X c #919599",
"5X c #959699",
"6X c #968C8A",
"7X c #A39A96",
"8X c #A69988",
"9X c #A9A19D",
"0X c #9B9EA1",
"qX c #9FA2A5",
"wX c #A3A4A7",
"eX c #B8B1AF",
"rX c #C3BCB9",
"tX c #FFD889",
"yX c #FEE69D",
"uX c #FEEBB1",
"iX c #DECBAC",
"pX c #CEC7C5",
"aX c #FEEFC5",
"sX c #FEF4D9",
"dX c #E3E0DF",
"fX c #FEF9ED",
"gX c #E8E4E3",
"hX c #E3DFDD",
"jX c None",
/* pixels */
"jXjXjXjXjXjXjXjXjXjXjXjXjXjXjXdXhXjXjX9X9XpX5X3.,.X.j : K 2 o.-.=.3.%.3.3.+.K K h.].7XrXjXjXjXjXjXjXjXjXjXjXjXjXjXjXjXjXjXjXjXjX",
"jXjXjXjXjXjXjXjXjXjXjXjXjX6X=.].].$.6.u.u.g.6.3.@.O.o.O.P P @.@.P b %.K K X.o.K $.0.0.g.6.P 4.6X7XeXjXjXjXjXjXjXjXjXjXjXjXjXjXjX",
"jXjXjXjXjXjXjXjXjXjXjXjXu.u.o.4.o.m K %.X.> | -.$.o.$.5.%.$.9.9.$.P y.@.@.=.$.K o.-.%.L | $.3.6.g.].j.jXjXjXjXjXjXjXjXjXjXjXjXjX",
"jXjXjXjXjXjXjXjXjXjXh.@.m m 4.b.i.m %.y.+., $.9.$.o.+.;.o.o.=.*...K 9.X.o.-.o.K $.8.-.P $.u.$.j o.n | #.jXjXjXjXjXjXjXjXjXjXjXjX",
"jXjXjXjXjXjXrXeX].@.P 9.6.@.| y.-.v K -.%.2 %.y.@.K %.-. .K *.-.%.P x.K %.=...b o.8.:.K o.:.-.O.g.5.n 2 K d.eXjXjXjXjXjXjXjXjXjX",
"jXjXjXjXjX6X6.5 m > -.9.:.o.j i.i.K o.8.-.v  .-.X.L  .-.o.K i.a.=.K 8.L  .*...c %.i.-.K %.9.3.0.5.*.b o.i.m 2 <.7XpXjXjXjXjXjXjX",
"jXjXjXgXrX6.o.5.9.X.K %.-.o.c %.8.L K 9.i.K o.-.| K L ..X.K =.-.%.K *.K K *.K c %.-.o.K -.u.X.0.:.o.o.6.5.o.2 L @.3.h.jXjXjXjXjX",
"jXjX7Xu.6.c | u.8.-.m X.-.-.K K %.n m %.-.c } ..n n K  .L 5 L ..K 1 L 2 L ..K 2 .. .v L -.-.K :.*.L $.i.-.K P $.+.m K j.eXjXjXjX",
"jXwX0.K K 2 5 %.-.-.P K $.9.o.c ..n 5 6 } < 5 6 2 < c L 5 , 4 5 , $ , , < 6 2 1 6 6 2 c ....v -...K =.s.%.j 4.8.%.6 2 =.j.rXjXjX",
"jX8X5 4.5.K c L %.>.%.K K *...1 c < , > , : - : - $ - : $ + - - $ $ - $ - : - & - > % > 2 5 2 } c K 9.:...P i.:.L 5 5 X.c 6XeXjX",
"w.9.L -.9.9. .c v %.>...c < 5 $ % + + + + O + O $ $ & $ $ + + + O $ $ $ + + + O O O O + @ + - 2 > L -.%.c 0.k.%.2 n 6.:.m m 5XpX",
"m > > %.8.8.8.K > 5 %. .2 $ $ $ @ @ @ & - > 2 c K o.X.o.K m c M b K L X.#.o.[ M 5 : - O O @ @ @ O , 6 2 c s.-.5 , +.x.x.&., o.w.",
"@.-.X.< 5 ..%.*...1 2 , $ $ @ O < #.a.b.,X2X3X1X1X<X1X1X:X:Xu.;.a.:X;X,X1X1X1X2X2X3X,X].a.+.< + O + $ : c *.6 < | y.i.%.< c v 3.",
"-.i.9.o.< , L ..} 2 $ O $ $ 5 9.,X2X2X2X1X2X4X2X2X2X2X1X1X<Xs.t.x.<X<X2X2X2X3X3X4X4X1X<X1X2X,Xu.c $ @ + : 6 , K =.-. .2 m :.=.| ",
"| -.s.8.K 5 < 5 5 : O O 2 -.].2X0X5X2X>Xb.n.n.g.a.d.d.m.>X<Xa.t.x.<X<Xx.g.d.d.m.j.v.].:X2X5X0X1Xb.6.5 $ + $ < }  .L n X.-.y.9.} ",
"5 L  .%.*. .5 > $ $ $ L i.,X0X4X;Xm.u.6.<.,.,.N N N N O.:X<Xa.t.l.<X>XO.N N N N I O.3.6.h.m.*X3X0X1Xi.L $ + > 6 v v O.i.i.y.-.| ",
"K < > 2 }  ...< O @ 5 v.5X5X:Xb.6.N h 0 0 0 q s e e w x :X2Xa.:.k.2X,XB w q q q q 0 0 0 h m 6.*X>X4X5Xb.c + + : 2 o.u.i.y.*...n ",
"i.-.L $ < n 6 : + - g.5X5X:Xg.#.w w q y u y i H G G p N :X<Xa.t.x.<X:Xj q i H D.S.q u u q 0 0 P m.:X4X1Xg.& O : } %. .} L 5 > > ",
"a.i.i.%.5 % $ O $ o.1X4X>Xu.h w u H.H a H i F.P.D.H i I -X>Xa.:.l.,X:Xb p H K.P.P.y D.J.a q w q B y.;X2X1X@.+ + > < < < v o.=.-.",
"*.>.*.*.*.L , $ , n.1X1Xk.I w u R J.H.H H a P.P.J G G N :X2Xa.r.l.>X:Xb p H.P.I.P.y D.P.H u y H w N g.1X1Xb.2 + - 5 +.4.9.i.9.-.",
"< < 5 n L n , $ | 2X1X:X3.w i D.J.J.F.D.H i P.P.R H T P >X1Xs.5.l.>X>Xb p H.P.I.K.y S.P.D.u a F.i k =.b.1X2X..: $ 6 *.*.=.%...L ",
"L L 5 , , , $ , 5.4X2Xa.P q H P.J.F.F.F.D.a P.K.H H A P >X1Xs.t.l.,X>Xb p D.K.I.K.u D.P.R i H J.H.w b y.1X5Xy., $ , n 5 5 < , : ",
"9.9.%.K 5 $ $ 5 x.2X<X-.x i H I.J.D.F.K.F.a P.P.S.G A m >X<Xs.r.l.2X>Xb r H P.I.K.u F.P.H u G P.J.p h =.1X<Xx.2 $ % 2 2 5 5 6 L ",
"8.-.-.8.8.n $ 5 v.2X:Xo.z H J I.J.H F.K.F.G I.P.S.a A X.:X1Xa.5.l.,X>XK r H P.P.F.i F.P.S.u a P.K.G t @.:X,Xb.c > L 8.9.y.i.g.i.",
"` 6 ` { L > $ 5 c.1X=XK Z D.J I.F.H D.K.D.i I.P.H a A P -X<Xa.t.l.>X>Xb r H K.P.P.a H.P.S.u H F.L.H z I c.>Xc.m > 6  .%.*.:.8.8.",
"P P L v 1 $ $ 5 v.1X*XI A D.D.K.D.G D.J.D.i I.P.H a Y X.:X1Xa.t.l.2X>XK l H K.P.J.a H.P.S.u a P.K.H p O.c.>Xv.v $ $ > , , 5 < 2 ",
"9.-.@.%.v $ $ n v.<Xc.I Y J H.K.D.H F.K.D.a I.P.H a A X.>X<Xa.t.a.<X:XK r H P.P.J.a F.I.R u G K.K.J p I x.<Xc.L , < L o.-.9.i.9.",
"-.*.*.%.2 $ $ 6 v.>Xx.%.Y D.H.K.D.H F.J.D.G I.P.H a Y o.>X1Xa.:.a.<X:Xn r H P.I.J.a H.P.D.u a K.F.J Y ~ l.>Xc.m > L %.-.i.n.b.g.",
"K L | } 5 $ $ 6 c.<Xc.$.~ ( U.U.( / ( U.( ^ U.U./ ! ~ =.>X<Xk.;.k.<X:X..I / U.U.U.! / U.( ~ ^ U.( / ~ <.l.-Xv.v % 5 L L | %.%. .",
"K K K o.K > $ 6 c.>Xv.p.y.w.g.0.0.g.u.0.g.u.0.j.u.9.y.p.:X1Xa.;.a.,X:Xr.;.0.d.d.u.g.u.h.d.u.6.j.g.9.i.g.c.>Xc.L $ $ < < > < 2 c ",
"8.8.8.>.o., $ 6 c.1Xv.l.p.l.=Xy.l.=Xy.p.=Xl.>.*Xx.y.p.v.-X1Xa.;.a.<X>Xp.>.x.b.s.p.>Xk.p.v.v.r.*Xb.M.l.=Xc.<Xc.v % v $.4.@.9.i.g.",
"%..... .L > $ 6 z.<Xc.y.-.-.-.=.=.-.=.*.3.=.+.=.=.@.;.y.-X<Xp.;.k.:X>Xr.&.=.=.*.&.4.&.=.=.=.=.=.-.%.-.y.c.<Xx.L % 5 *.*.*.s.i.i.",
"2 < < 5 > $ $ c c.<Xc.$.N l Z Z z z z Z Z l S Z l l N =.-X<Xp.*.p.>X:X+.j l Z Z Z k Z Z z l l Z Z l x @.c.>Xc.n * , n n n } } } ",
"| ..o.F < 9 $ 6 c.<Xv.$.z y a H u i a G i y a H y u Y @.-X1Xt.*.p.>X:XX.k u a H a q a a i r u H a i r ,.c.>Xc.D - 9 c c 5 5 2 6 ",
"4.u.m.(.6 B.o v x.1Xc.<.Y a J K.a H D.F.H i D.F.a T W $.-X<Xr.&.s.>X:X..l a J.K.D.y H J.H i a H.H.H A ,.c.>Xc.D @ B.4 $. .X.| o.",
"(.a.n.c.M C.. M k.2Xv.3.Y G F.I.H H J.J.J G K.K.a H L.=.*X<X:.+.p.<X>Xo.Z H K.P.K.p D.P.D.a H K.K.R A ,.[.1Xz.v # C.3 x.i.y.y.9.",
"t *.-.*.7 ^.s < k.<Xc.<.Y R H.I.G J F.K.D.a K.P.G R L.@.=X>X:. .p.:X:Xo.Z H J.P.J.y H P.R G G K.P.R A ,.! >Xk.v 7 A.s ..-.*.%. .",
"h h :   Q.~.N.8 3 <X/.Y.S E ) 2.Z T J D.J a E ) ~ E Q @.v.b.*...5.b.v.m r U ) ) Q q H K.J i Y ) ) Q Z ,.j.@Xk.o Q.~.G.7 X , G.G ",
"I I K   W.XX|.^.3 ;X# H Y e.9XwX_ Z i a i A 2.7X7X_.A A U ! Y i Y ~ U p Z _.7X7Xe.y u i i p ! eXeX_.S z ~ h.r.. W.XX|.^.& m 0 _ ",
"9. .7 ^. XtXoXW.B.@.I.H E ).wX5X_ T G G H Q w.5X0Xe.A T G G i i a i a i Z `.5X5Xw.G G G G G _ wX0Xj.! a ! 3.7 ^. XtXOXW.B.6 R.q.",
"..V G. X%XaXtX.XB.[ s G.W f.<X:X_ T D.F.F.L.6.;X-Xe.Y H J H G G H H H a Y w.>X;Xe.D.D.D.J G _ >X<Xd.^ H l C G.XX%XaXtX|.B.4 s I.",
"8 Q. X&XfXfXuXOXG.B A i / f.1X:X2.R F.F.F.J.q.;X-Xe.G J J J S.S.H S.S.S.Q f.:X;Xe.F.D.J D.R ) >X1Xd.^ H 7 Q. X&XfXfXuXOXG.h 4 2 ",
"7 Q.oXuXfXfXsX&X+X7 R D.W f.<X:X_ R D.F.F.L.6.@X=Xe.R F.K.K.K.K.K.J.F.P.L.e.:X;Xe.J.F.F.D.R ) >X<Xd.( D.7 Q.oXuXfXfXfX&X+X7 @.$.",
"7 ~.%XfXfXfXsX&X~.A.+ H W f.:X*X) L.K.F.D.R 3.z.v.q.T J F.K.K.K.J.J.K.F.W e.b.b.e.K.J.J H H _ -X:X0.^ J 7 W.%XfXfXfXsX&X~.A.& t.",
"8 !. X&XfXfXsX$X!.A.# G E I r.:.~ R J J H H I :.>.I T J D.H.D.D.S.S.S.H G ,.>.>._ R F.H H G U r.r.$.Y G 8 !. X%XfXfXsX$XW.A.& ;.",
"& g !.~.aXfXOXW.Z.# c S I K { { j y i u u y m { { b z x ~ ~ k k k ~ I k t v { L b p i i u y k { { n k S & g !.~.uXfXoXW.Z.# & n ",
"c   A. XuXyX.XW.B.[ y.I k k b b t Y G G i i x j j x z P y.y.n 2 | y.5.v k k b b k q G H i y t b b j x I 5.& A..XaXyX.XW.B.& | [ ",
"o.@.# G.}.E.C.# 6 <Xl.@.x Y T T G D.J.D.H H T T Y Y / =.*X-X+.6 ;.-X*X| Y Y Y T G p D.K.D.u p Q R A Z _ a.>X# G.}.E.C.# n 5.u.0.",
"&.=.f.8X7X@X@X<.[ ,Xk.@.S a P.P.D.J.K.J.H H.K.F.H H.L.4.-X<X&.v r.>X*X| Q H.J.K.D.u K.P.S.a a J.P.H p ,.r.t.).8X8X'.@X<.M s.x.a.",
" .3 3 P &.M m & 3 >Xk.O.S a K.K.R J.K.H.D.R K.K.H H.U.4.-X>X+.6 ;.>X*X| Q J.J.J.K.p K.P.S.a H J.P.H Z I t.] 3 ,.&.N [ & & r.y.:.",
"5 & V T.V V.C d 3 >Xk.3.~ ! ) U.^ ( ( ^ ^ / ( ( ! ) ) :.:X>X+.5 ;.>X*X&._ U.U.( ( ~ ( U.^ ~ ^ ( ( ^ I $.k.] V T.V V.C d   > < 2 ",
"m & * T.P.F T.= & <Xz.k.s.g.].a.j.].g.d.n.j.i.n.j.d.g.c.:X<X+.c &.:X:Xu.t.g.j.j.d.n.g.g.j.j.u.].].i.g.n.z.] * T.Y.C T.= & $.$.3.",
"&.=.3 o D R.o = r.1Xc.l.k.z.*Xk.c.*Xk.a.*Xc.p.*Xl.s.k.*X=X<X+.5 =.:X*Xk.r.c.v.k.s.-Xk.k.v.v.p.*X*Xs.x.*Xz.>X3 o D R.o * i.i.y.9.",
"&. .4 w.7.7.3 - r.1Xz.t.&.$.6.#.<.3.@.@.3.<.X.3.$.+.=.s.=X>X+.2 &.:X*X;.o.$.3.@.+.6.$.@.3.3.X.6.4.o.=.u.z.:X[ w.q.7.3 [ y.:.%.%.",
"n 6 6 4 [.#.3 * ;.1Xk.&.k w r q e q r r w w y y w w x =.=X>X+.2 &.:X*X..k q r q q w t r q w q y r w w #.k.:X .4 (.<.3 4 n n 6 5 ",
": > < o d = . 1 ;.1Xk.<.z u a H u a H a u i a a i a E 3.=X<Xo.< &.:X*X| A H H H a q H H a u a a H i l I k.<Xr.o d =   : 2 j m j ",
";.4.t.3 /.V.  > ;.1Xk.<.D i J.P.H.H.H.H.a R F.J.a R U.4.:X>X#.< &.>X:X..Q J.J.J.H.y H.P.H.R H J.P.H Z ,.k.>Xr.o /.V.& t.a.x.g.s.",
";.*.;.& E.d   h ;.<Xk.<.S a J.P.a H.J.H.a H.H.K.S.H.U.3.*X1X..< &.:X*X| Q J.K.P.H.y J.P.H.H H.J.P.H Z ,.k.1Xr.X T.d & ;.5.y.s.8.",
"n n [ & E.V   , ;.1Xk.=.I Y / W U U / E D E E / U E ) 3.:X<X#.< &.:X*X+.~ E W / E S / / E U ! W W U D <.k.>Xt.o E.V = n 6 ` n 6 ",
"n v [ & C V   , ;.1Xv.a.6.6.w.f.).'.`.`.j.).).w.e.0.0.k.:X1X#.1 @.:X:Xp.0.e.e.f.).).'.'.`.`.`.f.w.w.6.s.v.>Xt.o V.f & [ | | ..o.",
"=.$.o.&.{.U.& & ;.<X:X:X:X:X:X1XqXwXwXwXwXwX0X,X;X:X;X*X>X1X#.1 &.-X>X;X:X:X:X,X0XwXwXwXwXwXqX1X:X:X:X:X-X>X&.[ {.7.3 ;.u.u.9.i.",
"s.5.[ r.iX#X] = &.;X;X:X-X:X-X:X;X;X;X;X-X;X;X;X:X;X;X:X:X:XX.1 #.*X;X;X;X;X;X;X;X-X-X-X;X;X;X>X:X-X;X:X-X*X[ t.iX#X]  .s.:.-.-.",
"n n 4 . f d . + M &.+.+.+.&.+.@.+.+.+.&.&.+.+.@.&.+.+.&.+.@.h * B +.+.@.&.+.&.+.&.#.&.#.+.+.+.+.+.@.+.+.+.#.< . f d   4 { 6 ` ` ",
"2 2 < & . . +.h.).).).).).).).).).).).).).).).).).).).).).).).f.f.f.).).).).).).).).).).).).).).).).).).).).f.<.. . + $ - $ - - "
};
