/* XPM */
static char *result[] = {
/* columns rows colors chars-per-pixel */
"64 64 237 2 ",
"   c #130217",
".  c #1B0B1A",
"X  c #1F111E",
"o  c #28091B",
"O  c #24141C",
"+  c #261B1B",
"@  c #2A1D1B",
"#  c #261917",
"$  c #38111E",
"%  c #2C201E",
"&  c #32211E",
"*  c #330C23",
"=  c #261726",
"-  c #381E22",
";  c #2E162C",
":  c #2E2222",
">  c #2E242B",
",  c #322524",
"<  c #362827",
"1  c #352B2A",
"2  c #3B2E2C",
"3  c #382827",
"4  c #3D302E",
"5  c #362A34",
"6  c #3D3332",
"7  c #3D353B",
"8  c #3E383A",
"9  c #3F3837",
"0  c #2E2231",
"q  c #1C0F20",
"w  c #52141D",
"e  c #43141D",
"r  c #4C2616",
"t  c #5A2D16",
"y  c #542C1A",
"u  c #572D19",
"i  c #5D331C",
"p  c #59301B",
"a  c #643519",
"s  c #693719",
"d  c #6C3A1B",
"f  c #63361B",
"g  c #723E1B",
"h  c #7F271E",
"j  c #461725",
"k  c #4C1529",
"l  c #4B2B26",
"z  c #532827",
"x  c #49342D",
"c  c #553424",
"v  c #5C3623",
"b  c #5D3925",
"n  c #573929",
"m  c #423634",
"M  c #443836",
"N  c #4B3A34",
"B  c #433B3B",
"V  c #4B3E3B",
"C  c #463637",
"Z  c #563C33",
"A  c #44253B",
"S  c #722B2A",
"D  c #643C24",
"F  c #6A3E23",
"G  c #623D29",
"H  c #703329",
"J  c #6A1D23",
"K  c #76411D",
"L  c #7C441D",
"P  c #7F481F",
"I  c #4D413E",
"U  c #47403F",
"Y  c #53423C",
"T  c #5C443A",
"R  c #6C442C",
"E  c #6A4026",
"W  c #734424",
"Q  c #75492C",
"!  c #7A4D2D",
"~  c #794725",
"^  c #6D4933",
"/  c #674836",
"(  c #744E34",
")  c #784E36",
"_  c #7C5335",
"`  c #78543A",
"'  c #6B513F",
"]  c #3E3E41",
"[  c #3A2E41",
"{  c #433D44",
"}  c #493E44",
"|  c #3E4044",
" . c #464242",
".. c #4C4443",
"X. c #4D4B4C",
"o. c #4C4747",
"O. c #524643",
"+. c #544946",
"@. c #5C4A43",
"#. c #554C4C",
"$. c #5B4E4A",
"%. c #574745",
"&. c #5B514E",
"*. c #55514E",
"=. c #554E51",
"-. c #555352",
";. c #5B5453",
":. c #5B5956",
">. c #5B575A",
",. c #5D5B5B",
"<. c #56575B",
"1. c #4E4A53",
"2. c #624C42",
"3. c #694F4A",
"4. c #62524C",
"5. c #665145",
"6. c #625653",
"7. c #645956",
"8. c #625C5B",
"9. c #6B5D58",
"0. c #745A4B",
"q. c #5F605E",
"w. c #64605E",
"e. c #6C615D",
"r. c #6F6057",
"t. c #75645B",
"y. c #776458",
"u. c #5C5D62",
"i. c #635C61",
"p. c #646362",
"a. c #6B6563",
"s. c #6C6966",
"d. c #65666B",
"f. c #6C6A6C",
"g. c #69686A",
"h. c #746A66",
"j. c #7C6A63",
"k. c #746D6B",
"l. c #756965",
"z. c #79716D",
"x. c #6C6E73",
"c. c #6F7175",
"v. c #6F7278",
"b. c #737274",
"n. c #73757A",
"m. c #76797D",
"M. c #7B7B7C",
"N. c #7B7675",
"B. c #736E70",
"V. c #5E6065",
"C. c #982A1E",
"Z. c #A73216",
"A. c #B23E1B",
"S. c #8E2326",
"D. c #863D32",
"F. c #A92D24",
"G. c #CD3E18",
"H. c #CC342E",
"J. c #81471E",
"K. c #83491F",
"L. c #884C1F",
"P. c #934F19",
"I. c #AB4D11",
"U. c #844B21",
"Y. c #8A4E21",
"T. c #88432A",
"R. c #8D5122",
"E. c #84532C",
"W. c #925423",
"Q. c #975924",
"!. c #845835",
"~. c #97472F",
"^. c #A64F2B",
"/. c #B06A2E",
"(. c #B86011",
"). c #DD4F1F",
"_. c #F05B0F",
"`. c #F77409",
"'. c #F16F13",
"]. c #DB5127",
"[. c #E05022",
"{. c #C3652D",
"}. c #876A5C",
"|. c #89694A",
" X c #AF724C",
".X c #816F6A",
"XX c #866D65",
"oX c #83726B",
"OX c #88776E",
"+X c #957967",
"@X c #817875",
"#X c #945E4C",
"$X c #FF9E13",
"%X c #FD8C0C",
"&X c #FFAD27",
"*X c #F79427",
"=X c #FFCE38",
"-X c #A99674",
";X c #F9974B",
":X c #FFC854",
">X c #FFD860",
",X c #FFDC74",
"<X c #7B7D82",
"1X c #7E8186",
"2X c #7F8388",
"3X c #818286",
"4X c #82858A",
"5X c #85898E",
"6X c #8A8A8D",
"7X c #878B90",
"8X c #8A8D92",
"9X c #8D9195",
"0X c #8F9398",
"qX c #919599",
"wX c #959699",
"eX c #968C8A",
"rX c #A39A96",
"tX c #AA9D80",
"yX c #ABA59A",
"uX c #A7A09B",
"iX c #ABA18C",
"pX c #9B9EA1",
"aX c #9FA2A5",
"sX c #A3A4A7",
"dX c #B8B1AF",
"fX c #E1BF92",
"gX c #C3BCB9",
"hX c #C1AB87",
"jX c #FED18C",
"kX c #ECDDB6",
"lX c #CEC7C5",
"zX c #FEEFC5",
"xX c #F9F0DA",
"cX c #FEF9ED",
"vX c #E8E4E3",
"bX c #E3DFDD",
"nX c None",
/* pixels */
"nXnXnXnXnXnXnXnXnXnXnXnXnXnXnXbXbXnXnXyXrXlXrX6.$.Y x , I x o.&.7.6.*.7.6.$.V Y l.@XrXgXnXnXnXnXnXnXnXnXnXnXnXnXnXnXnXnXnXnXnXnX",
"nXnXnXnXnXnXnXnXnXnXnXnXnXeX;.@X@X&.9.a.l.k.9.6.$.%.+.%.Y I *.*.Y N #.Y U +.+.V &.r.t.k.9.O.7.eXrXdXnXnXnXnXnXnXnXnXnXnXnXnXnXnX",
"nXnXnXnXnXnXnXnXnXnXnXnXa.e.+.8.*.M I -.o.1 ..:.*.+.&.9.*.&.w.w.*.Y w.*.*.7.*.I +.:.*.U U &.6.9.z.@Xz.nXnXnXnXnXnXnXnXnXnXnXnXnX",
"nXnXnXnXnXnXnXnXnXnXl.$.V V 7.M.s.N *.p.#.1 &.w.&.+.#.<.*.Y ;.-.+.I p.I +.;.+.I *.q.:.+.&.s.&.x O.N } +.nXnXnXnXnXnXnXnXnXnXnXnX",
"nXnXnXnXnXnXgXdX@X$.+.w.9.$.O.p.:.N ..,.*.4 *.p.*.Y #.-.#.I -.:.*.+.b.I #.-.+.N +.q.:.Y #.:.;.$.k.8.N 2 I h.dXnXnXnXnXnXnXnXnXnX",
"nXnXnXnXnXeX9.6 N , :.w.8.o.m s.s.I I q.q.m #.:.I U X.:.#.I s.f.&.Y :.I o.:.o.m *.f.-.I *.w.&.e.,.<.I +.s.N 4 4.rXlXnXnXnXnXnXnX",
"nXnXnXvXgX9.+.8.a...I *.:.+.m *.q.I I w.a.U o.:.+.U I o.o.I ;.:.+.I -.I I -.I m #.,.+...:.e.+.e.,.+.+.w.w.+.4 I $.6.l.nXnXnXnXnX",
"nXnXrXa.9.m ..a.w.:.N +.:.;.I I -.U M #.:.m ..o.B M  .#.I 6 U o.U 4 ] m U o.U 4 o.X.M I :.:.I ,.*.U &.a.:.U Y *.+.V I z.dXnXnXnX",
"nXyXe.I I 2 M *.:.:.+.I &.w.+.m o.B 6 9  .2 6 9 4 4 M U 4 1 4 6 1 % 1 1 2 7 4 3 7 8 2 M o.o.M :.o.I :.p.*.m 7.q.-.9 2 ;.N.gXnXnX",
"nXeX6 8.8.I 9 U *.:.-.I I *.+.& 9 6 < 1 2 : : : % % % , % % : = % % : % : : : % : 1 & , 5 6 4 o.B O.8.q...Y f.:. .6 M ..m eXdXnX",
"l.r.U :.w.w.I m 9 *.:.o.m 4 9 % @ @ @ @ + + @ + % % = % % % @ @ @ % % % % % % = + + @ # # @ - 4 , U :.#.M e.k.*.2 B 8.q.} V wXlX",
"U , < *.q.q.q.o.< 9 X.X.4 # % % # # # @ : < 6 m U +.O.O.U V C C V I I ..+.O.I C 6 , : @ # # # # # 1 9 4 m s.<.9 2 #.b.k.#.2 %.r.",
"*.:...2 6 ..-.-...2 4 1 , # # # A +.h.M.6X9X9X9X9X8X8X8X2X1Xd.>.f.3X3X6X6X8X8X8X9XqX6X@Xf.#.2 O # @ @ , 6 -.B 2 ..p.s.#.2 m C 6.",
"7.s.w.+.4 < U o. .4 : % % % 9 a.4X9X9X9X9X9XqX0X9X9X8X8X8X8Xf.8.b.7X8X9X9X9X9X9X9XqX8X8X9X9X6Xa.B : # @ , 9 < U ;.:.o.m V ,.;...",
"I q.s.q...6 4 6 6 : + # 4 :.M.8XpXwX9X5X@Xm.n.B.s.l.h.z.5X8Xf.i.b.8X5Xb.h.h.h.k.b.M.<X4X9XwXwX9X@X8.m @ @ : 2  .X.U M +.:.s.w. .",
"6 U X.*.-.o.m < : + % B s.6XpXqX3Xb.a.7.3.2.Z / Z Z Z $.4X8Xf.i.v.8X5X%.Z Z Z T / @.4.7.a.z.1X0XpX8Xs.} % # < 9 B M +.s.s.w.:. .",
"I 1 < 6  .X.o.6 @ # 9 N.wXqX4XM.9.T y r r r r a t t u n 2X8Xf.u.x.7X5Xn r t t t t r r r l Z 8.@X5X0XwXM.m @ @ , 6 #.a.f.p.-.o.B ",
"s.:.U % 2 8 9 : + % f.wXqX5Xk.%.r u t a a a g J.K d f T 4X8Xf.8.c.8X5Xx f d L U.J.t s s t r l Y B.4XqX8XB.: # , U #.X. .U 4 < < ",
"k.g.a.*.9 % % % - o.8XqX5Xa.l y s J.~ g g g P.L.J.L K Z 2X7Xf.u.c.8X4Xx f L Y.W.P.a K.Y.g t y p l d.4X8X7X$.@ @ 1 2 2 2 m +.;.:.",
"-.:.-.-.*.U < % 1 N.8X8Xx.T y s P R.K.L L g W.W.P L E T 4X8Xf.,.x.8X4Xx D U.W.W.W.a J.W.L a a L p Z k.8X7XM.2 @ % 6 #.7.w.a.w.q.",
"2 6 9 9 U B 1 % ..8X9X4X6.c s J.Y.Y.K.J.J.g W.R.P L E Y 5X8Xg.i.B.7X5XN f U.W.Q.W.a K.R.P a g Y.d c &.M.8XqXo., % 9 -.-.:.*.o.U ",
"U M 6 < 1 1 % 1 8.qX9Xf.Z p L W.Y.Y.Y.L.K.g Q.R.P K d Y 5X8Xg.u.x.8X4XN f ~ W.Q.R.a J.Q.P d L Y.U.u N a.7XwXa.1 % 2 9 6 4 2 1 , ",
"w.w.*.I 6 % % 6 b.9X7X;.n s P Q.Y.K.Y.W.L.g Q.L.P K F Y 5X7Xg.i.x.8X5XN i P R.Q.Y.s L.Q.J.s g W.Y.f l &.7X7Xb.2 % , 4 6 1 6 8 U ",
"q.:.:.q.q.9 % 9 m.9X4X#.b L P Q.L.P K.W.K.g Q.W.P K D Y 4X8Xf.8.b.8X6XV p L W.Q.Y.s L.W.J.d g R.Y.g c $.4X8Xm.C < U q.w.g.s.k.s.",
"] 8 ]  .U 1 + 6 n.8X1XO.F K.P W.L.L K.Y.K.g Q.W.L g F V 1X7Xf.u.b.7X5XV i ~ W.W.R.g Y.W.J.s L R.R.L b Y n.5XN.M % 9 X.-.-.q.q.q.",
"Y I N m < % % 9 m.8XM.Y F K.U.R.K.K K.R.~ d W.W.L g F %.4X8Xf.i.x.8X6XV p L R.W.Y.g U.W.P s g R.R.L f @.n.8Xm.U , , , < 1 4 4 4 ",
"w.:.-.*.m , % B m.8Xn.@.F ~ U.W.K.L U.R.U.g Q.W.P g F +.5X8Xf.,.x.8X4XV i L W.W.Y.g Y.W.~ s g R.R.L f / n.5Xn.N < 2 U +.:.s.e.w.",
":.:.*.-.M % + 9 m.5Xn.T F U.U.R.K.L U.R.K.g Q.Q.L g E %.5X8Xx.,.x.8X2XB i L W.W.Y.g U.Q.J.s g W.Y.P E T v.5Xn.U < 9 -.q.w.b.N.b.",
" . . . .4 & + 9 n.7Xv.&./ _ !.!._ ) _ !._ ( !.!.( ^ / ;.5X7Xf.u.x.5X4Xo.Z ! !.!.!.^ _ !._ / ( !.` _ / 4.c.5Xn.M & 6 U U o.*.-.+.",
"V I Y +.U < + 9 n.5Xm.d.w.h.h.a.a.h.e.a.k.a.e.z.a.9.i.g.4X8Xf.>.f.5X5Xu.8.a.z.h.i.k.a.l.l.s.9.z.k.w.a.k.n.7Xn.B % % 2 2 < 4 4 9 ",
"w.q.q.,.#.4 % 9 v.7Xm.c.d.v.1Xp.x.1Xd.d.1Xx.<.<Xb.p.d.<X2X8Xd.>.g.5X5Xd.>.c.m.d.d.5Xf.g.m.m.u.<XM.V.c.1Xn.5Xn.M & m &.7.#.w.a.k.",
"X.X.o.X.B < % 9 n.7Xn.p.:.;.;.;.;.6.$.;.6.;.=.;.;.=.>.u.2X8Xg.>.f.5X5X,.=.;.;.;.=.8.=.;.;.;.=.;.,.*.:.p.n.5Xb.U & 9 -.-.-.g.k.a.",
"4 5 2 2 , : @ C b.8Xn.;.n n D D b b b D D c b E v v Z ;.2X7Xd.-.f.5X4X#.x v D D D c D D b c v D G v n $.n.5Xn.B : 1 B B B {  . .",
"I ..O.} m , @ 7 n.8Xm.$.b a g L s s K K d f K K s s E &.2X7Xi.-.d.5X5X%.z s g L g t d L d i s K g d f 2.b.8Xn.C - 3 m m 6 6 4 m ",
"8.a.}./.#.z u C v.8Xn.4.G L P R.g L K.L.P d U.Y.g K ! ;.2X8Xi.-.d.5X5Xo.i g L.R.K.a P R.P s K Y.Y.g D 2.n.6X}.D.: p ) ;.+.....+.",
"8.s.M.b.7 O @ m x.8Xn.4.R L K.Q.K P L.R.P K R.W.g P ! ;.<X7X,.X.d.5X5Xo.D L R.Q.L.a K.W.K.g L Y.R.J.F 2.n.8XB.C O = u.B.f.p.p.p.",
"/ I.:.X.j F.o 9 x.7Xn.4.R K U.Q.K P Y.R.K.K L.R.K ~ E.&.1X5X,.#.d.5X4XO.v L Y.R.L.f K.W.Y.K K R.R.U.F 2.}.I.x.4 * F.o <.:.-.*.X.",
"; = % . S._.A.. <.5Xn.$.D R ` 0.D W P K.K.g ~ ` / Q ! +.n.<X;. .,.<XN.U v Q ` ` ~ t L L.P f E ` ` R D 2.d.>.u.q S._.I.. > < 1 1 ",
"+.$.z C.G.`.'.I.k f./.G G }.yXsX' F d g d E 0.rXuXXXF D R / E f E / R v i XXyXrXy.a s d s f ^ dXdXXXG b 3.5Xz C.G.`.`.I.j 6 Q.#.",
"5.r.w ).%X$X:X'.w #.l P.Q .XsXwX5.F K K L ~ t.wXwXy.F g K K K d g g g g F oXwX9Xy.K K L K E ' sXpXz.^ g F }.w [.`.$X:X'.w 9 9 |.",
"I.N F.;X:X>XxX`.F.l D I.Q j.7X4X' ~ J.L.L.E.9.3X2Xr.W L L L K K K K L L W t.2X3Xy.K.K.P P K ' 7X8Xh.( L I.n F.;X:X>XxX`.Z.j B I.",
"U O ].*XkXcXcX%X_.h D (.) j.8X4X` ~ L.R.L.Y.r.3X2Xy.W P P P P P J.L J.J.~ j.2X4Xy.Y.K.K.P P ( 7X7Xl.( P ~ ; ).*XzXcXcX$X'.h 4 Q.",
"> J '.>XxXcXcX&X`.).$ K.) XX8X4X' ~ J.K.L.E.0.<X1Xy.Q Y.R.R.R.R.R.R.L.R.! j.4X3Xy.Y.L.K.P ~ ` 5X5Xh._ K.D S '.>XzXcXcX&X_.].; =.",
"-.C.&X,XzXcXcX,X].w . a ! t.4X<X0.R.R.L.P U.7.N.m.r.W L L.W.P.Y.L.L.R.L.~ y.1X<Xy.R.R.J.L ~ ( 1X4Xe.( K.p C.&X,XzXcXcXjX].w . =.",
"z G.;XzXzXcXjX'.).w c K W @.u.<./ ~ J.J.L P Y :.<.@.W K K.P U.U.J.J.L J.K @.<.:.' ~ J.J.L K / u.u.*.R K w ).;XzXzXcXjX'.).w o.:.",
"7 S.`.$X=XjX'.H.w #.5.R T I | U c a d d s a M  .] N i E / / n y v / T c c N | 9 N a d d s f p ] | M c D C S._.$X=XjX_.H.w 1 9 9 ",
"U = C.Z.Z.C.S.. X.2Xa.T c c N N c d K g d f n N N n E Y w.p.B 4  .a.8.m c x N N n t K L d t i I N x n T p.7 C.Z.Z.C.S.. m I U U ",
"V -XyXyXyXiX-X3.1.5Xx.$.n E ~ W E U.L.K.P P W W f E ( ;.1X2X#.7 >.3X<X..E K W W K f K.R.J.d d W ~ F D ' $.-XyXyXyXiX-X3.o.w.w.p.",
"0 [ +XtX+X+X6.0 } 9Xx.$.G g W.W.P Y.Y.Y.~ J.L.Y.P J.E.7.1X8X=.9 u.5X<Xo.~ Y.Y.Y.K.a R.W.K.d L R.Q.L d 2.5 [ +XtX+X+X&.0 { d.B.f.",
"B * * S k S o * { 7Xx.$.G g W.R.P Y.Y.Y.J.K.R.R.P U.!.6.2X5X#.8 >.5X<X..Q Y.Y.Y.R.f R.W.K.g g Y.R.K D T 1.* - S k S o * 7 i.p.,.",
"> j ^.{.g T.T.* { 7Xx.;./ ^ ` ` ( _ ` ) ( ( _ _ ( ) 0.;.2X7X#.m >.5X<X#.' _ !._ _ / _ !.( / ( _ _ ( T &.1.j ^./.H ~ D.* @ 3 1 2 ",
"V = j D #X/.k . <.7Xv.f.d.B.@Xj.z.@Xz.h.N.z.h.N.z.h.k.n.2X8X#.6 =.4X2Xd.9.z.z.z.h.N.h.z.z.z.a.@X@Xh.k.b.d.5 j S  X/.k O } *.;.7.",
"-.;.          1 >.8Xn.v.x.v.<Xf.b.<Xx.g.<Xb.d.M.v.d.x.M.2X8X#.6 =.4X<Xx.V.v.m.x.d.2Xx.x.m.m.d.<X<Xd.b.<Xn.5X          w.a.h.p.p.",
"1.o.V hX+XXX; 2 u.8Xv.p.=.$.7.$.4.6.$.$.7.4.%.7.&.#.;.f.1X5X#.2 =.5X<X>.O.4.6.&.$.9.&.$.6.4.%.7.7.$.&.a.x.5X} hX+XXX; :.w.,.-.#.",
"U U > 5 Z ; = 3 ,.8Xc.+.p r i i p p i p y y a i y t n ;.1X5X+.4 =.2X<Xo.c i i f t r p i t y y a i t y %.x.5X7 0 Z 0 = B V M 9 6 ",
": < : - D.e O 3 <.8Xc.&.v s K D.d g g g d d g g d g Q ;.1X8X#.2 =.5X<X..d K L K g a K L g s g K L d c T x.7X{ - D.e O , 4 m N m ",
";.8.} r ~.e # 3 <.7Xx.4.G g Y.R.~ J.Y.U.g J.U.Y.L P E.6.4X5X+.2 =.4X<Xo.Q Y.R.R.P a L.W.K.L L Y.W.L D @.x.5X{ z ~.e { 7.g.B.k.f.",
"<.>.{ c {.o @ 3 8.7Xx.4.G g Y.W.g U.R.U.g ~ Y.R.L U.!.7.4X8X+.3 =.5X<X..~ Y.W.R.U.H Y.W.U.L U.Y.W.L D / x.6X{ z /.o B >.,.d.p.,.",
"V B 5 j S j O 3 ,.7Xx.;.T R ! ! F ^ ! ^ D R Q ! R Q ' 7.1X8Xo.A $.5X<X#./ Q ! ) Q G Q ) Q R ^ ! ! R / 4.v.5X} j S k ; B 8 V  .B ",
"M B 3 o ~.* O < ;.7Xm.f.i.r.t.l..XOXOXoX.XOXoXt.t.e.t.f.2X8X%.3 #.4X2Xd.e.y.y.j..X.XOXOXoXoXoXj.t.r.9.s.n.5X} * ^.* 0 V .... .o.",
";.&.} i. X} * 1 >.7X2X5X4X4X4X8XaXsXsXsXsXaXpX8X4X4X4X<X5X8X%.l =.4X5X3X4X4X5X6XpXsXsXsXsXsXaX8X5X4X4X3X4X6X} i. XA 5 w.a.p.a.s.",
"f.,.{ yXfX.X; ; ;.2X3X3X4X4X4X3X3X3X2X3X3X3X3X4X3X1X3X4X3X4XO.3 } <X3X3X3X3X3X1X1X3X4X3X1X3X3X6X4X3X4X4X4X3X[ yXjX.X= g.g.,.:.:.",
"B B . o k *   & C #.#.#.#.$.$.#.#.#.=.$.#.#.#.#.=.#.#.$.=.=.l $ x $.#.$.#.#.#.#.#.$.#.#.#.#.$.#.#.#.#.#.#.} q o k ; . | ] 8 ] ] ",
"m 2 1 o o = 6.l.XX.X.X.X.X.X.X.X.X.X.X.X.X.X.X.X.X.X.X.X.X.Xj.XX.X.X.X.X.X.X.X.X.X.X.X.X.X.X.X.X.X.X.X.X.X.Xe.[ o q : % % : % : "
};
