/* XPM */
static char *result[] = {
/* columns rows colors chars-per-pixel */
"64 64 231 2 ",
"   c #180518",
".  c #1F101E",
"X  c #27091D",
"o  c #261B1A",
"O  c #2A1D1B",
"+  c #261818",
"@  c #33101E",
"#  c #2C201E",
"$  c #32211E",
"%  c #1B0C20",
"&  c #2E0C22",
"*  c #231523",
"=  c #2C1C24",
"-  c #28192A",
";  c #3C1F26",
":  c #2E2222",
">  c #2D212C",
",  c #322523",
"<  c #352827",
"1  c #352B2A",
"2  c #3B2E2C",
"3  c #382727",
"4  c #3D302F",
"5  c #382A35",
"6  c #3D3332",
"7  c #3D353B",
"8  c #3E383A",
"9  c #3F3837",
"0  c #2E2131",
"q  c #52141C",
"w  c #561C19",
"e  c #4B2517",
"r  c #5A2D16",
"t  c #542C1A",
"y  c #582919",
"u  c #5D331C",
"i  c #58311B",
"p  c #653519",
"a  c #693719",
"s  c #6C3A1B",
"d  c #62361A",
"f  c #723E1B",
"g  c #6F2D14",
"h  c #441426",
"j  c #541A2B",
"k  c #671A22",
"l  c #4B2A25",
"z  c #552727",
"x  c #43322E",
"c  c #4D352C",
"v  c #553424",
"b  c #5C3623",
"n  c #5D3925",
"m  c #573929",
"M  c #433634",
"N  c #443836",
"B  c #4B3A34",
"V  c #433B3B",
"C  c #4B3E3B",
"Z  c #493538",
"A  c #563C35",
"S  c #432C34",
"D  c #643C25",
"F  c #6A3E23",
"G  c #643B28",
"H  c #6F2F2A",
"J  c #76411D",
"K  c #7C441D",
"L  c #7F481F",
"P  c #4C413E",
"I  c #47403F",
"U  c #53423C",
"Y  c #5C443A",
"T  c #6C452C",
"R  c #694327",
"E  c #734424",
"W  c #754A2C",
"Q  c #7A4D2D",
"!  c #794725",
"~  c #6D4933",
"^  c #674835",
"/  c #744E34",
"(  c #784E33",
")  c #7C5335",
"_  c #78543A",
"`  c #6B513F",
"'  c #3E3E41",
"]  c #3A3040",
"[  c #453D45",
"{  c #533F43",
"}  c #3E4044",
"|  c #464242",
" . c #4C4443",
".. c #4D4B4C",
"X. c #4C4747",
"o. c #524643",
"O. c #544946",
"+. c #5C4A43",
"@. c #554C4C",
"#. c #5B4E4B",
"$. c #594641",
"%. c #5B514E",
"&. c #55514E",
"*. c #554E51",
"=. c #555353",
"-. c #5B5453",
";. c #5B5956",
":. c #5B5759",
">. c #5D5B5B",
",. c #57595C",
"<. c #4E4B54",
"1. c #624C42",
"2. c #60484C",
"3. c #62524C",
"4. c #665146",
"5. c #625553",
"6. c #645956",
"7. c #625D5B",
"8. c #6A5D5B",
"9. c #6B5953",
"0. c #755947",
"q. c #5F605E",
"w. c #64615E",
"e. c #6C615D",
"r. c #6F6057",
"t. c #75645B",
"y. c #776459",
"u. c #5C5D61",
"i. c #645D62",
"p. c #646362",
"a. c #6B6563",
"s. c #6C6966",
"d. c #65666A",
"f. c #6C6A6C",
"g. c #69676A",
"h. c #746A66",
"j. c #7C6A63",
"k. c #736D6B",
"l. c #756965",
"z. c #78716D",
"x. c #6C6E73",
"c. c #6F7175",
"v. c #6F7278",
"b. c #737274",
"n. c #72757A",
"m. c #76797D",
"M. c #7B7B7C",
"N. c #7B7675",
"B. c #736E70",
"V. c #5E6065",
"C. c #B2391B",
"Z. c #8E2326",
"A. c #8E3E2F",
"S. c #A52B27",
"D. c #9D2E19",
"F. c #CA3628",
"G. c #81471E",
"H. c #83491F",
"J. c #884C1F",
"K. c #98571C",
"L. c #A74E14",
"P. c #844B21",
"I. c #8A4E21",
"U. c #8D5122",
"Y. c #84532C",
"T. c #925423",
"R. c #965925",
"E. c #845835",
"W. c #96482B",
"Q. c #A5512F",
"!. c #A4622C",
"~. c #DD4F1F",
"^. c #D55811",
"/. c #F67409",
"(. c #EF7015",
"). c #D95029",
"_. c #CC722C",
"`. c #E3581A",
"'. c #853F43",
"]. c #826B5D",
"[. c #A66B43",
"{. c #816F6A",
"}. c #836E62",
"|. c #83726B",
" X c #88776E",
".X c #817875",
"XX c #9D7869",
"oX c #FF9B15",
"OX c #FF8601",
"+X c #F0922A",
"@X c #FFBC2B",
"#X c #F9A32B",
"$X c #FFCE38",
"%X c #968678",
"&X c #B78C6E",
"*X c #FFC64A",
"=X c #FFD860",
"-X c #7B7D82",
";X c #7E8186",
":X c #7F8388",
">X c #818286",
",X c #82858A",
"<X c #85898E",
"1X c #8A8A8D",
"2X c #878C90",
"3X c #8A8D92",
"4X c #8D9195",
"5X c #8F9398",
"6X c #919599",
"7X c #959699",
"8X c #968C8A",
"9X c #A39A96",
"0X c #B19D80",
"qX c #A9A19D",
"wX c #9B9EA1",
"eX c #9FA2A5",
"rX c #A5A4A6",
"tX c #B8B1AF",
"yX c #D5B388",
"uX c #C3BCB9",
"iX c #FFE188",
"pX c #FEE69D",
"aX c #F0D7B5",
"sX c #FEEBB1",
"dX c #E8CB9A",
"fX c #CEC7C5",
"gX c #F7EED0",
"hX c #FEF9ED",
"jX c #E8E4E3",
"kX c #E3DFDD",
"lX c None",
/* pixels */
"lXlXlXlXlXlXlXlXlXlXlXlXlXlXlXkXkXlXlXqXqXfX9X5.2.U x 3 P 4 O.%.5.5.&.5.5.#.C P h..X9XfXlXlXlXlXlXlXlXlXlXlXlXlXlXlXlXlXlXlXlXlX",
"lXlXlXlXlXlXlXlXlXlXlXlXlX8X-..X.X-.6.a.a.k.6.5.#.+.o.O.U U &.&.U C &.P P o.o.P %.r.a.h.6.P 6.8X9XtXlXlXlXlXlXlXlXlXlXlXlXlXlXlX",
"lXlXlXlXlXlXlXlXlXlXlXlXa.e.O.7.&.N P &.o.1 P ;.%.+.%.7.&.%.w.w.&.U w.#.O.>.%.P U ;.@.I U -.5.8.k..Xz.lXlXlXlXlXlXlXlXlXlXlXlXlX",
"lXlXlXlXlXlXlXlXlXlXl.#.C C 6.M.s.B &.p.#.1 -.w.&.o.&.;.O.O.-.=.o.U p. .O.;.O.P %.q.q.O.%.a.%.x O.V  .$.lXlXlXlXlXlXlXlXlXlXlXlX",
"lXlXlXlXlXlXuXtX.X#.o.w.8.#.o.w.q.x X.;.&.4 &.p.&.P &.=.O.P =.;.O.O.b. .#.;.O.B O.q.>.P O.,.;.+.k.7.B 4 P h.tXlXlXlXlXlXlXlXlXlX",
"lXlXlXlXlX8X8.2 B , >.w.7.X.M s.f.B o.w.>.N O.;.X.P @.=.O.X.s.f.;.U ;.P X.=.X.M &.s.=.P &.w.5.e.>.-.P o.h.N 4 3.9XfXlXlXlXlXlXlX",
"lXlXlXjXuX8.O.p.a.X.P &.;.O.x &.q.I P w.s.B X.;.U I P ..X.P -.;.@.P &.I X.=.X.x ..q.X.P 6.a.o.e.>.X.+.7.w.O.4 P #.6.l.lXlXlXlXlX",
"lXlX9Xa.9.M  .a.w.-.B o.>.;.P P &.I V &.;.N I ..V V P ..P 6 I X.I 4 I x V  .I 4 X...B P ;.;.P >.=.P -.a.=.P o.&.O.C o.k.tXlXlXlX",
"lXqXe.U P 4 9 &.;.;.O.P %.w.O.x ..V 6 V | 2 6 8 2 2 9 | 4 1 5 6 1 # 1 1 2 8 4 3 8 8 2 N ..| B ,.X.P 5.d.&.x 6.w.*.9 4 %.N.tXlXlX",
"lX8X9 ;.w.P 6 I &.;.=.P P &.X.< 8 2 , 1 1 : : , : # : , # o : : # # : # : , : O : 1 , , 4 6 4 | V P w.>.O.U s.,.| 6 M X.x 8XuXlX",
"l.r.I ;.w.w.X.x 9 &.;.X.x 4 9 # $ O O + + O O o # # = # # # O O O O # # O # O O + + + o + O = 4 , P ;.&.N e.b.&.2 N 7.>.C C 7XfX",
"I , < @.q.w.q.X.< 9 ....4 O O # + + + o : < 4 M  .o.o.o.P C Z Z C P P  .o. .{ Z 6 1 : o o + + + o 1 9 6 x d.=.6 2 @.b.b.@.1 O.t.",
"&.>.P 2 4  .=.=.X.2 4 1 $ # + o 2 @.h.-X1X4X5X3X3X3X3X1X,X,Xp.:.f.>X>X1X3X3X4X4X4X4X<X-Xa.@.S O o o # , 6 =.V 2  .w.g.=.4 M N 5.",
"6.s.w.O.4 < V ..I 4 # # # # 9 w.1X3X3X5X4X4X6X5X4X4X4X3X3X3Xg.i.b.2X3X4X4X4X3X5X6X6X3X3X4X4X1Xi.N # + O , 9 1 I -.;...4 C :.-. .",
" .;.s.q. .6 4 6 4 , o o 4 ;.M.3X7XwX5X<XM.N.b.B.h.l.h.B.<X2Xf.u.b.3X2XB.h.l.h.B.z.m.-X,X4XwXwX1XM.7.6 O O : 2  ...P V U ;.p.w. .",
"9 I ..&.=.X.M < : o # V s.1XwX6X>XN.i.9.4.2.^ A A A A #.,X2Xf.i.c.2X<X+.A A A A ^ #.4.9.e.z.-X4XwX3Xf.P O o < 9 9 V +.s.s.w.,. .",
"P 1 < 6 X...X.4 O + 6 N.7X6X,XM.9.Y l e e e y r r r t c ,X3Xf.u.c.2X<Xc t r r r r e e e l A 6.-X,X6X7XM.M o O , 4 #.a.g.p.=.X.V ",
"s.;.I # 1 8 9 , O = k.6X6X<Xb.U e y r d a p f G.J s d Y ,X4Xf.7.c.2X,Xc r s K J.G.r a a r e e Y B.,X4X4XB.: + < I .... .V 6 < < ",
"k.s.p.&.6 $ # o O O.3X5X<Xa.l t s L K J J s J.K.H.K s A >X2Xf.q.B.3X,XB d K I.T.K.d H.J.J r y i c p.>X4X1X@.# # 1 4 2 2 x O.-.;.",
"=.;.=.=.&.I 1 # 1 M.3X3Xx.Y t s L U.P.K J f K.U.H.J E Y ,X3Xf.>.x.2X,Xc D P.U.T.T.r J.T.! d p K y A k.3X3XM.2 O # 6 #.;.w.s.w.>.",
"1 4 6 I X.V 1 # | 4X3X,X5.v s P.I.U.J.H.G.s T.K.! K E U <X3Xg.u.c.2X,XB F P.U.R.T.p G.T.G.a f P.f l %.M.3X5Xo.: # 9 &.=.;.&.X.I ",
"I I 6 1 1 , # 1 7.6X4Xk.U r J T.U.P.P.I.J.f T.U.K K s U <X3Xg.u.c.2X1XB d G.T.R.K.p H.T.! a K I.J.i B g.4X5Xp.1 # 2 9 6 6 2 1 1 ",
"w.w.&.P 6 : # 6 b.4X2X;.b s K R.J.H.J.U.P.f T.T.G.J F o.<X2Xg.i.c.3X,XC u ! T.R.I.a P.T.K a K U.I.a l =.<X4Xb.4 # , 4 6 6 6 9 V ",
"q.;.;.q.;.9 # 9 m.4X,XO.n K L R.I.K J.T.P.J T.T.K f F A <X2Xg.i.c.3X<XA i K T.T.I.s I.T.P.a f T.U.f i #.>X1Xm.M , I q.w.p.s.k.s.",
"' 8 8 | V 1 # 6 n.4X;XU F P.L T.J.K H.U.G.s R.U.K f F U :X3Xf.i.c.3X<XC i K T.T.U.f P.T.G.a f T.U.K n +.m.<Xm.B , 8 ....=.>.q.q.",
"P U B N 1 # O 8 m.3Xm.U F H.H.U.H.J H.U.P.s R.T.K f F o.,X3Xf.u.c.3X1XP i K U.T.U.f P.R.G.a f T.U.L u Y n.2Xm.B : , 1 1 4 4 2 4 ",
"w.q.=.&.M $ # V m.<Xm.Y F ! P.T.H.K H.U.J.f R.T.! f F O.<X3Xf.>.x.3X,XC u K T.T.U.f P.T.G.p f I.U.L a Y v.<Xn.I < 4 I o.;.e.e.w.",
";.=.&.=.N # o 8 m.<Xn.+.F P.P.U.H.K J.U.J.f R.R.K f F O.<X3Xf.>.f.2X:XV b K T.T.I.f P.R.G.a f T.I.K R Y c.<Xn.B < 9 &.q.s.b.M.b.",
"I |  . .4 # O 8 n.2Xv.%.~ ) E.E.) / ) E.) / E.E.( ~ ^ -.<X2Xx.:.x.<X,XX.Y ( E.E.E.^ E.E.) ~ / E._ ( ^ 3.c.2Xn.I $ 6 I I  .&.&...",
"C P U O.I < o 9 n.2Xm.d.e.s.k.8.a.k.e.a.k.a.8.k.a.8.p.f.:X3Xf.:.g.2X,Xu.-.a.j.l.a.B.i.l.h.a.7.z.k.w.e.b.v.2Xn.N # # 4 1 1 2 4 x ",
"w.q.q.,.O.4 # 9 v.2Xm.c.d.c.;Xp.x.;Xd.d.;XB.,.-Xc.i.d.m.:X3Xf.:.x.<X<Xd.,.b.m.d.i.<Xf.d.m.m.u.-Xm.p.b.;Xn.2Xb.N $ M %.6.@.w.s.k.",
"....X...V 1 O 9 n.2Xm.V.;.-.;.-.-.5.#.-.;.-.@.:.-.%.:.V.:X3Xd.:.g.<X<X>.*.-.;.-.*.7.*.-.5.-.%.;.;.&.,.p.v.2Xv.I $ 9 &.=.;.s.f.s.",
"4 4 2 2 < $ # 8 n.2X5 -.A n D D n b D D n b D D b b A -.:X2Xd.-.f.<X<X@.c b D D D v D F n v b D G b m #.n.2Xn.V , 3 V 8 V *  .| ",
"P o.X.P 4 , O T.[.3X'.6 n a s K s s f f s p J J p a R #.,X2Xi.*.g.<X<XO.z a J J f r s f s p a K f s d 1.b.1Xn.N : 3 K.W.4 H = 6 ",
">.s.B.s.#.2 # + 5 d.Z.= R f L U.f J H.J.K s J.P.f f Q -.;X2Xu.<.d.<X<X .b f J.J.P.d G.I.! a f P.P.f D 1.n.2Xc.N : 4 - = 9 Z.- O.",
"q.s.m.N.,.6 r 6 d.2.S.= R J J.R.J ! I.U.H.J U.U.K K Y.-.-X2X>.@.d.<X<X .D K T.T.I.p P.T.J.f K I.U.P.F 1.n.2Xc.V , T =.g.A S.> w.",
"..,.;.=. .4 e : j C.~.- L.! P.R.K K I.U.J.f I.T.f ! Y.#.;X<X>...d.<X,XX.b K U.U.I.p K T.P.J J U.U.P.F 1.n.2Xc.Z O e V h C.).* R.",
": < : o @ q q q )./.C.= e R _ 0.D E L J.H.f W _ ^ W Q #.m.M.=.X.>.-XN.P b W _ _ ! r K I.! s D _ _ T D 1.b.<X<.3 q q w ~./.C.. - ",
"O.#.4   S.`.+X+X/./.q f p ].tXrX` F s s s R 0.9X9X}.D F W ~ R d G ~ T u D }.qX9Xy.p a s s p ~ tXtX}.G n 9.*.  S.`.+X+X/./.q T u ",
"p.7.0 F.`.@X=X$X^.k X b $ j.wX7X4.F J K J ! t.7XwXy.F f J J s s s f f f F z.7X8Xy.J J J f E ` rXwXz./ s ~ 0 F.`.@X=X$X^.k * ..> ",
",...* ~.oX$XsX*XL.k y G.( j.1X,X` ! H.J.J.P.e.>X:Xy.R K L K J J J J K K R t.<X>Xr.J.H.G.G.J / 3X2Xh.( ! f + ^.oX$XgX*XC.y l ..*.",
"I h L.OX$XiXaXoX(.(.q K.R.j.3X,X_ ! J.J.I.I.r.>X,Xr.J L G.L G.G.G.G.G.G.! j.<X>Xy.J.H.G.K ! ` 1X2Xh.( G.w L./.$XiXaXoX/.(.q W ~ ",
"2 w (.$XpXhX*X@X(.Z.v s ) j.3X,X` ! H.J.J.I.9.;X;Xy.L I.U.U.U.U.U.I.J.K.Y.y.,X>Xy.U.J.J.J.K _ <X<Xl.) G.q (.$XpXhX*X$X(.Z.8 [ %.",
"z.w #XsXhXhXhXsX+XZ.t p ( y.,X-X_ Y.U.J.L ! 9.N.m.r.E K J.U.U.U.I.I.I.I.Q y.-XM.y.U.J.K G.! ` :X>Xa.( J.y #XsXhXhXgXsX+XZ.[ X.w.",
"f.l +XsXoXiXgXaX`.F.w K E +.q.,.^ ! G.G.L ! U ,.,.Y E L G.H.H.G.K G.G.K J 1.,.,.1.P.J.G.K f T ,.u.#.T f y _.sXoXiXgXaX(.F.l =.,.",
"=.6 g @XoX$XiX).D.H A R Y P } ' c d s a a a B | ' P n m ^ ^ m v m ^ Y v v N } 8 B p s s a d m } ' V m D U g @XoX$XdX).D.k 2 8 8 ",
"I I - i d n z q * d.p.Y v v B B i R J J s a m B x m G U 7.g.C 2 | a.7.M i v B B m r f J s d t B B c m Y p.7 r r R i q . M C C [ ",
"O.4 &XaXgXgXaXyX9.7 c.#.m R E E J H.J.H.K L E E D E W -.-X:X..9 :.;X-X .R R E E E d J.U.G.s s E ! F D ^ 6 &XaXgXgXaXyX9.0 7.w.e.",
"V.7 - Z 5.{ { 5 * ] x.#.G f W.U.! J.T.P.G.P.J.U.K H.Y.6.:X2X*.V :.<X-XX.! J.J.I.P.p I.R.P.f K U.T.J s 1.[ - [ 2.{ { 5 * - d.b.k.",
"=.8 h w Q.H A.z h ] f.#.G f T.U.P.I.U.J.H.! U.U.K H.E.6.:X<X@.8 :.<X-XX.W I.I.I.U.a I.T.K f f I.T.! d +.<.h q Q.H A.z h - i.p.,.",
"7 > & e _.F Q.H & ] x.-.Y ~ ) _ / ) ) ( / / ) ) / / _ >.:X2X@.M :.<X-X@.` ) ) E.) ^ _ E./ ^ / ) ) ~ ^ %.<.& e _.H Q.H X . < 2 2 ",
"{ @.- h k [.!.h * x.x.x.f.z..Xk.k..Xk.k.N.z.h.N.z.k.k.n.:X3X@.6 -.,X>Xd.e.k..Xk.s.N.j.k.z.z.a..X.Xk.k.b.x.0 & H [.!.q * M %.%.6.",
"#.-.>.  o.0 S X u.3Xn.c.f.b.-Xf.b.-Xx.f.-Xn.d.M.v.f.x.-X;X<X@.4 *.,X-Xx.i.v.m.x.f.;Xx.x.M.n.d.-X-Xf.b.-Xb.<X  $.5 S % 7.s.s.p.p.",
"<.X.|   %X&Xi.- ,.3Xv.i.-.#.6.#.%.6.#.#.6.%.o.5.-.O.-.f.;X<X@.6 *.,X-Xu.O.3.6.#.#.7.%.#.5.5.O.6.6.O.-.p.v.<X  %X&Xi.- ;.p.:.=.@.",
"| V V I X &   = >.2Xx.#.c t u u r r u i t r p u t r m -.;X<XO.2 *.,X-X .v r d u r t u u r y i r u r t Y x.,Xu.  & X > 9 V V 9 6 ",
": , 2 x t !.j = :.3Xx.3.b p K K s f J f s s f J s s W 5.:X2X@.2 *.<X-X .F K f K f r f G.f a f G.! a b +.x.<Xu.z Q.q o , x N B x ",
"-.7.7.;.w A.h = ,.2Xx.3.G f U.U.f P.I.P.f ! P.I.f P.Y.5.,X<XO.3 *.,X-X .W I.U.U.P.p P.T.P.f K I.T.J F 1.x.<Xu.t W.h V 7.f.B.B.s.",
":.;.;.;.v _.X = >.2Xx.3.G f U.U.f P.W.P.f K I.I.! P.E.5.,X3XO.x *.<X>X .W U.U.U.P.p I.T.P.! G.I.T.K D 1.x.2Xu.i _.X ] :.>.g.p.q.",
"V V V [ h H h @ :.2Xc.5.Y R ( ( T W ( W T W ! ( T W ` 5.:X2XO.3 @.,X;X@.^ Q Q Q W G ( ( W T W ( Q T G 3.x.<Xi.h H h ; N V V | 8 ",
"B V V o.X Q.& - :.2Xm.g.e.e.t.y.|.|.|.|.z.|.|.t.r.t.l.f.,X3XO.3 @.<X>Xi.e.t.t.j.{.{. X X X|.{.j.y.t.8.f.n.<X7.@ A.@ > { | |  .X.",
";.%.%.> rXyX{ - :.2X,X1X,X,X,X2XeXrXrXeXeXeXeX1X<X>X>X>X<X3XO.3 @.,X<X>X>X,X<X1XwXrXeXrXrXeXeX3X<X,X,X,X,X<X- rXyX[ > e.s.e.a.s.",
"g.>.=.   XyXXX- -.>X>X>X,X,X,X,X>X>X>X>X>X>X>X>X>X>X>X>X,X,Xo.l { -X>X>X>X>X:X>X>X>X,X:X>X>X,X1X;X,X,X;X,X-X  .XyXXX- d.g.>.=.,.",
"V V 8 * X j &   Z @.@.@.@.@.@.@.@.*.#.*.#.*.@.@.*.@.@.*.#.@.l h S #.*.@.#.@.@.@.@.#.@.@.@.@.#.@.@.@.@.@.@.@.% & j & . ' ' ' } 8 ",
"4 2 2 , * X - 9.{.{.{.{.{.{.{.{.{.{.{.{.{.{.{.{.{.{.{.{.{.z.j.j.{.{.{.{.{.{.{.{.{.{.{.{.{.{.{.{.{.{.{.{.{.{.j.5 X & # # $ : : : "
};
