/* XPM */
static char *result[] = {
/* columns rows colors chars-per-pixel */
"64 64 227 2 ",
"   c #1C071A",
".  c #22091B",
"X  c #261B1A",
"o  c #2A1D1B",
"O  c #251619",
"+  c #38171D",
"@  c #2C201E",
"#  c #32211E",
"$  c #1C0D20",
"%  c #291827",
"&  c #3C1526",
"*  c #300D22",
"=  c #2E2222",
"-  c #2E222D",
";  c #322524",
":  c #362827",
">  c #352B2A",
",  c #3B2D2C",
"<  c #3B2727",
"1  c #3D302E",
"2  c #342A33",
"3  c #3D3332",
"4  c #3E353A",
"5  c #3E383A",
"6  c #3F3837",
"7  c #2F2432",
"8  c #741E1E",
"9  c #4B2517",
"0  c #5A2D16",
"q  c #542D19",
"w  c #572C18",
"e  c #5D331C",
"r  c #59311A",
"t  c #643519",
"y  c #693719",
"u  c #6C3A1B",
"i  c #63361B",
"p  c #723E1B",
"a  c #6D2218",
"s  c #521B2B",
"d  c #701B22",
"f  c #482B26",
"g  c #542529",
"h  c #49342C",
"j  c #553424",
"k  c #5C3623",
"l  c #5D3925",
"z  c #573829",
"x  c #482C34",
"c  c #433634",
"v  c #443836",
"b  c #4B3A34",
"n  c #433B3B",
"m  c #4B3E3B",
"M  c #45343B",
"N  c #563B32",
"B  c #5A3934",
"V  c #672726",
"C  c #643C25",
"Z  c #6A3E22",
"A  c #633D2A",
"S  c #683B28",
"D  c #723730",
"F  c #451218",
"G  c #76411D",
"H  c #7C441D",
"J  c #7F481F",
"K  c #4D413E",
"L  c #47403F",
"P  c #53423C",
"I  c #5C443A",
"U  c #6D4023",
"Y  c #6C442C",
"T  c #65402C",
"R  c #734424",
"E  c #7A4623",
"W  c #75492C",
"Q  c #7A4D2D",
"!  c #784827",
"~  c #6D4933",
"^  c #674835",
"/  c #744E34",
"(  c #794F33",
")  c #7C5335",
"_  c #78543A",
"`  c #6B513F",
"'  c #3E3E41",
"]  c #3E3540",
"[  c #433C43",
"{  c #3E4044",
"}  c #464243",
"|  c #4C4443",
" . c #4D4B4C",
".. c #4D4747",
"X. c #524643",
"o. c #544946",
"O. c #5C4A43",
"+. c #554C4C",
"@. c #5A4E4A",
"#. c #574743",
"$. c #5B514E",
"%. c #55514E",
"&. c #574F53",
"*. c #555352",
"=. c #5B5453",
"-. c #5B5956",
";. c #5B565A",
":. c #5D5B5B",
">. c #56575B",
",. c #624C42",
"<. c #6D4B49",
"1. c #62524C",
"2. c #685347",
"3. c #725745",
"4. c #625653",
"5. c #645956",
"6. c #625C5B",
"7. c #6B5E5B",
"8. c #6A5B54",
"9. c #70504D",
"0. c #5F605E",
"q. c #64615E",
"w. c #6C615E",
"e. c #6F6057",
"r. c #75645B",
"t. c #776559",
"y. c #7F684E",
"u. c #5C5D61",
"i. c #615D61",
"p. c #646362",
"a. c #6B6563",
"s. c #6C6966",
"d. c #65666A",
"f. c #6C6A6C",
"g. c #69686A",
"h. c #746A66",
"j. c #7C6A63",
"k. c #746D6B",
"l. c #756965",
"z. c #78716D",
"x. c #6C6E73",
"c. c #726E72",
"v. c #6F7175",
"b. c #6F7278",
"n. c #737274",
"m. c #73757A",
"M. c #76797D",
"N. c #7B7B7C",
"B. c #7B7675",
"V. c #5E6065",
"C. c #AD371B",
"Z. c #88392D",
"A. c #902F2B",
"S. c #A62E21",
"D. c #B52E2B",
"F. c #8D261F",
"G. c #C13720",
"H. c #81471E",
"J. c #83491F",
"K. c #884C1F",
"L. c #974E1B",
"P. c #844B21",
"I. c #8A4E21",
"U. c #81462A",
"Y. c #8D5122",
"T. c #83532C",
"R. c #925423",
"E. c #965824",
"W. c #845736",
"Q. c #974B31",
"!. c #AF662A",
"~. c #A75E27",
"^. c #CB4318",
"/. c #D94518",
"(. c #E85615",
"). c #FA7A06",
"_. c #ED6115",
"`. c #F66909",
"'. c #86684B",
"]. c #8B6858",
"[. c #816F6A",
"{. c #836E62",
"}. c #83726B",
"|. c #88776E",
" X c #817875",
".X c #967669",
"XX c #AC6343",
"oX c #FB8E12",
"OX c #FFAA1D",
"+X c #FB9C21",
"@X c #FFB62F",
"#X c #948073",
"$X c #B89C7B",
"%X c #FCAF63",
"&X c #FFDA79",
"*X c #7B7D82",
"=X c #7E8186",
"-X c #7F8388",
";X c #818286",
":X c #82858A",
">X c #85898E",
",X c #8A8A8D",
"<X c #878B90",
"1X c #8A8D92",
"2X c #8D9195",
"3X c #8F9398",
"4X c #919599",
"5X c #959699",
"6X c #968C8A",
"7X c #A39A96",
"8X c #A9A19D",
"9X c #9B9EA1",
"0X c #9FA2A5",
"qX c #A3A4A7",
"wX c #B8B1AF",
"eX c #C3BCB9",
"rX c #E5AA87",
"tX c #FFE493",
"yX c #D2C5AE",
"uX c #F9DE9F",
"iX c #CEC7C5",
"pX c #FCF2CB",
"aX c #F9EECF",
"sX c #FEF9ED",
"dX c #E8E4E3",
"fX c #E3DFDD",
"gX c None",
/* pixels */
"gXgXgXgXgXgXgXgXgXgXgXgXgXgXgXfXfXgXgX8X8XiX7X4.,.#.h ; K 1 o.$.4.4.$.4.4.+.m P j. X7XyXgXgXgXgXgXgXgXgXgXgXgXgXgXgXgXgXgXgXgXgX",
"gXgXgXgXgXgXgXgXgXgXgXgXgX6X=. X X$.7.w.s.k.5.4.@.o.o.o.P P %.$.K b %.K K X.X.K @.q.w.k.7.| 5.6X7XwXgXgXgXgXgXgXgXgXgXgXgXgXgXgX",
"gXgXgXgXgXgXgXgXgXgXgXgXa.a.o.5.@.v K %.X.> K -.$.o.$.5.%.@.q.q.$.P p.%.o.:.$.K o.-.+.L [ =.4.7.j. Xz.gXgXgXgXgXgXgXgXgXgXgXgXgX",
"gXgXgXgXgXgXgXgXgXgXa.$.m m 5.N.s.n %.p.+.> $.p.=.o.+.-.+.o.=.*.o.K q.| o.-.o.K $.0.-.o.1.s.@.h o.m [ o.gXgXgXgXgXgXgXgXgXgXgXgX",
"gXgXgXgXgXgXeXwX X%.P q.7.+.X.p.-.b K -.%.1 %.a.+.K %.-.o.K *.-.o.o.n.K %.%...n o.0.:.P o.:.=.O.k.p.n , K j.wXgXgXgXgXgXgXgXgXgX",
"gXgXgXgXgX6X7.c b ; 5.q.6.X.c s.s.K o.0.0.b ..>.X.L  .>.+.K a.f.-.P :.K o.-.| b %.s.*.K +.q.=.w.:.*.K #.s.b 1 1.7XiXgXgXgXgXgXgX",
"gXgXgXdXeX7.o.i.a.| K +.-.o.c $.0.L K q.q.K o.-.| K K ..K K *.:.o.K %.K | %.| c %.:.X.K 6.q.o.a.:.| @.6.0.o.1 K +.4.l.gXgXgXgXgX",
"gXgX7Xa.8.c | a.0.-.L o.-.=.K K %.L n %.-.c L  .n n K  .K 6 L ..L , ' c L | L 1 .. .n K -.-.K :.*.K $.a.-.K P *.+.m P z.wXgXgXgX",
"gXqXw.P K 1 6 %.-.-.o.K %.0.o.c ..L 1 5 } 1 1 5 , , c } 1 > 2 3 > @ 1 : , 4 1 : 4 5 , v ....b *...K -.d.%.c 7.:.%.6 , 1.B.wXgXgX",
"gX6Xc -.q.K 6 L %.-.*.K P %.o.# 3 1 : : > # @ = = = = ; = = = = @ @ = @ = ; = o = > # : 1 1 1 ..6 X.6.:.o.K s.-.} 3 n | c 6XeXgX",
"t.w.L -.q.q...c 6 %.-.o.c 1 6 @ o o o o o X @ X @ @ o o X @ o o o @ @ @ o = @ o X X X X X o ; 2 : L -.+.v w.n.%., v 6.:.[ m 5XyX",
"K : : o.0.0.-...: 6  . .1 X @ @ o O O % = : 1 6 | X.o.X.| m x c b K L | o.X.m M 1 : = X O O O O X > 6 1 c a.*.6 , +.n.n.+., @.i.",
"%.-.X., 3 | *.-.| , 1 : @ @ O X < +.k.*X,X2X2X1X1X1X1X1X:X:Xa.;.f.:X;X,X1X1X1X2X2X2X>X Xk.+., o O o o ; c *.5 , | p.s.%., c c 5.",
"-.s.q.o.1 : 6  .} 1 @ @ @ @ c q.,X2X1X2X2X1X5X4X2X1X2X2X<X<Xf.i.n.<X<X2X2X2X3X1X4X4X1X<X1X1X,Xa.v @ O o ; 3 > L =.-. .c m 6.=.| ",
"| :.a.0.L 3 , 1 3 ; X X 1 -.N.1X9X5X2X>X*XB.n.k.f.l.l.c.>X<Xf.i.v.<X<Xc.h.s.k.k.n.N.*X:X2X9X4X2X*X5.c o o ; : |  .L v P -.a.6.| ",
"3 L  .%.-...6 : @ @ @ n s.,X9X5X;Xc.a.8.1.,.I I B N B O.>X<Xf.i.v.<X,XO.B B N I ^ O.1.8.l.c.*X2X9X1Xs.L o o > 6 5 v o.s.f.p.-.} ",
"K > : 3 }  ...1 o O 1 N.5X5X:XN.8.P q 9 9 9 w 0 0 r w N :X2Xf.:.c.<X>Xz q 0 0 t 0 9 9 9 j m 5.*X,X2X5XN.c X o ; c o.s.f.p.*...6 ",
"s.-.n ; > ' 6 ; @ % k.5X5X-Xn.I 9 0 0 t t t p H.G u y N :X<Xf.i.n.<X:Xh r y H H.H.0 y y 0 9 9 P c.:X2X2Xc.= X ; L +. .} L 3 : : ",
"k.s.a.%.3 ; @ X o o.1X3X>Xa.h 9 u H.E G H u L.K.H.H u I -X>Xf.u.v.<X:Xb i H K.R.L.t J.I.p 0 q 0 h a.:X2X1X@.o o > , , f v o.-.-.",
"-.*.*.*.%.L : @ > N.1X1Xx.I w y H.Y.J.H H p R.R.J H U N :X2Xf.:.x.<X:Xb i H.R.E.R.t P.R.H t y H q B k.1X<XN., o @ 3 +.-.q.s.q.-.",
"> 3 3 6 L n > @ | 1X1X:X1.j u J.I.Y.K.J.H u R.R.P.G Z I :X1Xg.i.v.<X:Xb C K.R.E.Y.t H.R.E y G K.u j $.M.2X2Xo.; @ 6 *.*.-.%.} L ",
"K L 3 : > > @ 1 6.4X2Xk.P r H R.Y.P.I.K.J.p R.Y.H.G Z P >X1Xg.u.v.<X>XN i E Y.E.Y.y H.R.H u G Y.H.q b a.2X5Xi.> @ > 6 3 1 1 > : ",
"q.q.%.L 1 ; @ 1 n.2X<X-.z u H E.I.H.K.Y.K.p E.R.P.p Z I >X1Xg.i.n.<X>Xb e H R.E.Y.y K.E.H u G Y.I.y f =.>X<Xn.c @ ; 1 3 3 3 5 n ",
"0.-.:.0.:.6 @ 3 M.2X:Xo.k H J E.K.H K.Y.K.p R.R.H.p Z [ :X1Xf.i.m.<X>Xm e H Y.R.I.u K.R.H y H Y.Y.G r +.:X>XM.c : L 0.q.p.a.k.f.",
"' 5 { { L > @ 3 m.1X=XP C H.J.E.K.H K.Y.H.u E.R.G p Z P -X1Xf.i.v.<X,Xm e H R.R.I.p I.R.H.y G R.Y.R e X.M.:XN.n ; 6  .*.*.:.0.0.",
"P P b v : @ X 5 M.1XM.#.Z P.J.Y.J.G J Y.P.u E.R.H p Z #.>X<Xf.u.n.<X:Xm k G R.R.R.p P.R.H y G Y.Y.J e ` m.>XM.n @ ; : > > 3 1 1 ",
"q.5.%.%.c # @ 5 M.<Xm.I Z E P.Y.K.G P.Y.J.p E.R.H p T #.:X1Xf.6.x.<X:Xm e H Y.R.I.p K.R.H.y p Y.Y.J C I m.,XM.m : 1 K o.-.s.w.q.",
"-.>.*.%.c @ @ 6 M.<Xm.O.U H.I.Y.H.H K.Y.J.G E.E.H p U o.>X1Xf.u.x.>X;Xm e H R.E.I.p J.E.P.y G I.I.H u I v.>Xm.b : n %.-.q.n.B.n.",
"L L L K 6 @ X 6 m.<Xm.$.~ ) W.W.) ( ) W.) / W.W./ ~ ^ -.>X<Xf.:.x.<X:X..I ( W.W.W.^ ) W.) ^ / W.) ( ~ 1.v.>Xm.n @ 3 L K ..%.%. .",
"K K K o.K : @ 6 b.<Xm.d.q.s.k.w.a.k.w.a.k.a.e.z.a.7.i.d.:X<Xf.:.f.<X:Xu.=.a.k.h.a.k.a.l.l.a.7.z.k.q.s.x.m.1Xm.v @ # > , : 1 1 c ",
"0.0.0.u.o., @ 6 b.<XM.v.g.v.=Xp.v.*Xd.d.=Xx.>.*Xv.V.d.*X=X<Xf.;.f.>X<Xd.;.n.N.g.d.:Xf.f.M.M.u.*XM.p.v.*Xm.>Xm.n # c $.5.%.0.s.k.",
" . ... .' ; @ 6 b.1XM.p.-.=.-.=.=.-.@.=.5.=.+.;.=.=.=.p.-X<Xg.;.x.>X:X:.&.=.=.*.&.5.&.&.-.=.$.;.-.*.=.a.m.>Xn.n # 6 *.*.*.a.k.s.",
"1 1 , > ; ; o v m.<XM.$.N j C T k z C C C j C C k k B =.-X<Xp.;.d.:X:X+.h k S A C j C C C j k A C k z ,.m.<Xm.v ; > n n n } | } ",
"| X.X.| 3 ; o 5 m.<XM.$.l y p J y u G G u t G G y y T @.:X<Xi.*.d.<X:XX.j y p H p 0 p p y i y p p u C O.m.>Xb.v # > v c 3 1 3 3 ",
"6.p.c.s.+., o v v.2Xm.$.T G E Y.G H J.J.H u J.Y.p G Q =.-X<Xu.%.d.<X:XX.k p K.K.P.e H.I.H u p I.I.p C ,.m.<Xb.M ; 3 o.=.o.| | o.",
":.f.B.B.m > r z v.>XM.1.U H P.E.G H I.Y.J G Y.Y.G H T.=.*X<X:. .f.:X<X..k H R.E.I.y H.R.P.p G R.Y.H.Z ,.m.<Xv.v + 1 y.j.f.p.q.p.",
"+.>.W.9.Z.$ w B x.1Xm.1.T G P.E.G J K.Y.K.G Y.Y.G E T.$.=X>X:.+.d.>X:XX.C E Y.R.I.t H R.P.p G K.I.P.Z ,.m.,XXXB 8 $ 3.2.>.*.*. .",
"= ; : & S.S.  R.t.<XM.@.T U _ _ T G J J.E G ! _ ^ Y ! @.M.*X=.} 6.N.M.L e Y _ _ ! 0 H I.H u Z _ _ Y C ,.m.>Xx.< S.S.O L.j > > : ",
"+.V ) g /.C.O w q.;X8.T T ].wXqX` Z u p u u 8.7X7X{.Z Z Y Y U i A ~ Y e C {.8X7Xt.t u u u i ` wXwX{.A k 1.<.'.s /.C.= w c L ..o.",
"p.p | g (.^.+ 1 0.l.~.G ~ j.8X5X2.U G G H E t.5X5Xj.Z G G G U u p p p p Z z.5X6Xt.G G G G U ` 0X9Xz./ p ~ Z.&.F _./., %.%.>.~.q.",
":.*.2 S.`.`.a F M Q.# H.Q j.<X:X` R H.P.K.T.8.;X-Xt.U J J H G G G H H p R t.>X;Xt.J.J J.J G / <X1Xh./ G ! e.[ S._.).a F x ! % ;.",
"[ 4 & C.oXtXoX_.F.c P.H./ j.<X:X_ E K.K.I.Y.e.;X-Xt.U J J J H.J H.H H.H.! t.-X:Xt.K.J.J J H _ <X1Xh.( H ! 3.] D.).uXoX`.F.% n m ",
"1 , d rXpXsXtXoX^.g H K.) j.<X;X` ! J.K.K.T.8.#X-Xt.! K.K.Y.Y.Y.K.R.K.R.Q j.-X;Xt.Y.K.K.K.E _ >X<Xl.) P.! 3.d rXpXsXuX+X^.s @.$.",
"n.4 G.rXaXsXsX@X_.F.0 L.( t.:X=X3.Y.Y.K.J.! 4.M.M.e.R H K.L.Y.Y.K.K.Y.K.! t.=XN.t.Y.I.J H E ` -X;Xa./ P.U.< G.rXpXsXsX@X_.F. .y.",
"c.% /.+XtXsXsXtXoX(.. ~.Y O.0.>.^ E H.J.H H #.-.>.O.R H J.H.J.H.J.H.H H.R ,.>.:.` J H.H.H G T u.u.@.Y p G % (.+XtXsXsXtXoX(.% W.",
"!. .d oXtXsXpXOX)./.< A T K { L h y y y y y b { { b e T ^ ^ z j j ^ I j r v { L b i u u y t j { ' n j C !.k.d ).&XsXpXOX)./.% L ",
"L % D.(.OXsXpX%X_.8 q.P z j b b j u G p u y z b c j l P p.a.n , | a.6.c j j b b j r p H u t r b b z z I a.' D._.OXsXaX%X_.8 L K ",
"o.$.g ^.+X&X%XC.g f.v.%.T C ! R U J.Y.J.H H R R U U ( =.*X-X+.6 ;.=X*X| C U U R U t J.R.H.y u R ! Z C ,.v.<Xg ^.+X&X%XS.V  .q.q.",
"q. .1.<.'.'.W.[ [ 6Xx.@.A p R.R.H I.Y.I.P.E K.Y.H H.W.4.-X<X&.5 u.>X*X| ! I.K.I.H.y K.E.P.p E I.R.H i ,.b.*X&.<.'.'.W.[ [ i.c.c.",
"-.% #XyXpXeXuX.X[ 2Xx.,.B p Y.Y.P.I.Y.P.J H.Y.Y.H P.W.4.-X>X+.6 ;.>X*X..! I.I.K.Y.y Y.R.H p p Y.R.G i O.x.7 .XeXpXyXuX.X[ i.i.6.",
"4 7 % h 9.B I * & >Xx.4.B ~ W.( / ) _ ) / ( _ ) ~ ( _ :.:X>X+.3 ;.:X*X+.` ) W.) _ ^ ) W./ ^ ~ ) W.~ ^ $.x.x.% h 3.B B & % < < , ",
"P O.& Q.Q.Z.Q.s 7 <Xb.x.k.k. Xk.z. Xh.h.B.z.l.B.z.h.k.M.:X<X+.c =.:X;Xd.7.z.B.z.l.B.k.l.B.z.l. XB.k.k.n.*X<XF Z.Q.Z.Q.s & @.=.5.",
"@.=.  & !.Y ~.  7 1Xm.b.x.b.*Xf.v.*Xx.f.*Xm.d.N.b.f.x.*X-X<X+.3 &.:X-Xx.p.b.M.x.f.-Xx.x.N.m.d.*X*Xf.b.*Xm.:X$ & !.R Q.  7 s.a.p.",
"*. .] % . f   * ;.1Xb.i.&.1.8.+.1.5.@.+.5.$.#.4.$.+.=.s.=X>X+., &.:X*X>.o.1.4.@.+.5.$.$.4.4.o.4.5.o.=.a.v.>X;.. . g . 2 :.:.*. .",
"' n n [ $X.X;.% :.<Xx.+.j q e e w r 0 e w w e e r w z $.=X>X+.3 &.:X*X| j 0 e e 0 q 0 i 0 w 0 t e q q #.x.:Xu.c $X.X&.% n v 6 3 ",
"; ; , ; < x * 7 ;.1Xx.1.z y p H y p H G y u p H u u W -.=X<Xo., &.:X*X| Z p H H p 0 G H p y p p H u k I x.<Xu.% x x % # c c b c ",
"-.-.i...V Z.. < ;.<Xx.1.A u I.R.U.H.K.J.p H.P.K.H E U.5.:X:X+.< +.:X*X..! I.Y.I.H.y K.R.I.p G Y.R.p C ` v.>X7.% k A.. 6.k.c.k.s.",
"-.;.;.} C V   < :.<Xx.1.A p I.Y.p P.I.P.u P.I.I.H P.W.5.:X1X+., =.:X-X..! I.R.Y.U.t I.R.I.E P.I.E.H C ,.v.>X:.; V s   -.:.a.d.u.",
"[ n n 3 Q A.. < :.1Xx.$.I S ( ( Y Y ( W A Y Q W Y W _ 5.*X1XX., &.:X*XX.^ Q ( Q / A W ( W Y Y Q Q Y T $.x.>Xi.% T.Q.. M 5 n [ n ",
"v n n 4 F D . < ;.>X*Xg.w.7.r.j.[.|.}.}.}.}.}.j.w.r.a.f.:X1XX.< +.:X:Xd.7.r.r.j.[.[.|.|.}.[.|.j.r.r.7.s.m.>X6.% F V . [ | | | ..",
"4.$.=.+.1.XX% % ;.1X:X>X:X:X:X<X0XqXqXqXqX0X0X,X:X:X;X*X1X1X#.f +.:X>X-X:X:X:X1X9XqXqXqX0XqX0X1X:X:X:X;X:X>X:.< &.XX% -.a.a.a.s.",
"s.:.;.[ wXrX;.% &.;X;X:X:X;X;X:X;X:X-X-X;X;X;X:X:X;X;X:X:X:XX.< #.*X;X-X;X;X;X;X;X;X:X-X;X;X:X,X;X:X:X:X:X*X&.[ eXrX;.] s.:.>.*.",
"n n 5 % * s . . b +.+.+.+.@.+.+.+.+.@.+.+.+.+.&.+.+.+.+.+.+.c F x +.+.@.+.+.+.+.+.+.@.+.+.+.+.@.+.+.o.+.+.+.M . * s   7 { 5 5 { ",
"c 1 > = % . [ r.[.[.[.[.[.[.[.[.[.[.[.[.[.[.[.[.[.[.[.[.[.[.j.j.j.[.[.[.[.[.[.[.[.[.[.[.[.[.[.[.[.[.[.[.[.[.{.r.% . O @ @ = = = "
};
