/* XPM */
static char *result[] = {
/* columns rows colors chars-per-pixel */
"64 64 229 2 ",
"   c #1C0919",
".  c #240A1C",
"X  c #28081D",
"o  c #261B1A",
"O  c #2A1D1C",
"+  c #251718",
"@  c #390B1C",
"#  c #2C201E",
"$  c #33211E",
"%  c #2F0C22",
"&  c #271926",
"*  c #371126",
"=  c #2E2222",
"-  c #2C222C",
";  c #322524",
":  c #352827",
">  c #352B2A",
",  c #3B2E2C",
"<  c #392727",
"1  c #3D302E",
"2  c #362B33",
"3  c #3C3332",
"4  c #3E383A",
"5  c #3D3639",
"6  c #1D0F21",
"7  c #51131D",
"8  c #581817",
"9  c #46171E",
"0  c #4C2617",
"q  c #5A2D16",
"w  c #542D1A",
"e  c #572C19",
"r  c #5C331C",
"t  c #59311A",
"y  c #643519",
"u  c #693719",
"i  c #6C3A1B",
"p  c #63361B",
"a  c #723E1B",
"s  c #6F2A14",
"d  c #461428",
"f  c #541A2B",
"g  c #492C26",
"h  c #582425",
"j  c #43322E",
"k  c #4D352C",
"l  c #553424",
"z  c #5C3624",
"x  c #5D3925",
"c  c #573929",
"v  c #442A36",
"b  c #433634",
"n  c #443836",
"m  c #4B3A34",
"M  c #433B3B",
"N  c #4B3E3B",
"B  c #48353A",
"V  c #563C33",
"C  c #573D36",
"Z  c #643C25",
"A  c #6A3E22",
"S  c #633D29",
"D  c #693728",
"F  c #6C332D",
"G  c #6B1E24",
"H  c #76411D",
"J  c #7C441D",
"K  c #7F481F",
"L  c #4C413E",
"P  c #47403F",
"I  c #53423C",
"U  c #5C443A",
"Y  c #6E4123",
"T  c #6C442B",
"R  c #65402C",
"E  c #734424",
"W  c #7A4623",
"Q  c #75492C",
"!  c #7A4D2D",
"~  c #784827",
"^  c #6D4933",
"/  c #674736",
"(  c #744E34",
")  c #784D34",
"_  c #7C5335",
"`  c #78543A",
"'  c #6B513F",
"]  c #3E3E41",
"[  c #3B3043",
"{  c #453D43",
"}  c #533F43",
"|  c #3E4044",
" . c #464242",
".. c #4C4443",
"X. c #4D4B4C",
"o. c #4C4848",
"O. c #524543",
"+. c #544946",
"@. c #5C4A43",
"#. c #554C4C",
"$. c #5B4E4A",
"%. c #584547",
"&. c #5B514E",
"*. c #55514E",
"=. c #554E50",
"-. c #555352",
";. c #5B5453",
":. c #5B5956",
">. c #5B5759",
",. c #5D5B5C",
"<. c #57595C",
"1. c #4D4950",
"2. c #634C42",
"3. c #62524C",
"4. c #655044",
"5. c #735748",
"6. c #625553",
"7. c #645956",
"8. c #625D5B",
"9. c #6A5D5B",
"0. c #6B5B54",
"q. c #775E51",
"w. c #5F605E",
"e. c #64615E",
"r. c #6C615E",
"t. c #6F6057",
"y. c #75645B",
"u. c #776459",
"i. c #5C5D61",
"p. c #615D62",
"a. c #665B65",
"s. c #646362",
"d. c #6B6563",
"f. c #6C6966",
"g. c #65666A",
"h. c #6C6A6C",
"j. c #69686A",
"k. c #746A66",
"l. c #7C6A63",
"z. c #746D6B",
"x. c #766966",
"c. c #78716D",
"v. c #6C6E73",
"b. c #6F7175",
"n. c #6F7278",
"m. c #737274",
"M. c #73757A",
"N. c #76797D",
"B. c #7B7B7C",
"V. c #7B7675",
"C. c #736E70",
"Z. c #5E6065",
"A. c #8B332D",
"S. c #AA2E22",
"D. c #A32928",
"F. c #C6391E",
"G. c #D53B26",
"H. c #81471E",
"J. c #83491F",
"K. c #884C1F",
"L. c #975315",
"P. c #844B21",
"I. c #8A4E21",
"U. c #804C28",
"Y. c #8D5122",
"T. c #84532C",
"R. c #925423",
"E. c #965925",
"W. c #855836",
"Q. c #9E5131",
"!. c #AA542E",
"~. c #E2441B",
"^. c #EA5A14",
"/. c #F97508",
"(. c #F0660E",
"). c #DA4422",
"_. c #D77423",
"`. c #8A6A5A",
"'. c #816F6A",
"]. c #856C64",
"[. c #83726B",
"{. c #88776E",
"}. c #817875",
"|. c #BC7957",
" X c #FE8302",
".X c #FF9E13",
"XX c #FB8911",
"oX c #FFA619",
"OX c #FFBE2C",
"+X c #FFAA35",
"@X c #A88763",
"#X c #FFCA4D",
"$X c #FFDC74",
"%X c #FFD860",
"&X c #7B7D82",
"*X c #7E8186",
"=X c #7F8388",
"-X c #818286",
";X c #82858A",
":X c #85898E",
">X c #8A8A8D",
",X c #878C90",
"<X c #8A8D92",
"1X c #8D9195",
"2X c #8F9398",
"3X c #919599",
"4X c #959699",
"5X c #968C8A",
"6X c #A39A96",
"7X c #AA9C81",
"8X c #AAA39D",
"9X c #B9A38C",
"0X c #9B9EA1",
"qX c #9FA2A5",
"wX c #A3A4A7",
"eX c #B8B1AF",
"rX c #E1BF92",
"tX c #C3BCB9",
"yX c #DEC69D",
"uX c #FEE69D",
"iX c #FFE188",
"pX c #EED6A9",
"aX c #CEC7C5",
"sX c #FBEFC4",
"dX c #E3E0DF",
"fX c #FEF9ED",
"gX c #E8E4E3",
"hX c #E3DFDD",
"jX c None",
/* pixels */
"jXjXjXjXjXjXjXjXjXjXjXjXjXjXjXdXdXjXjX8X8XaX6X6.@.O.j < m 1 +.;.6.6.&.6.;.#.N I x.}.6XtXjXjXjXjXjXjXjXjXjXjXjXjXjXjXjXjXjXjXjXjX",
"jXjXjXjXjXjXjXjXjXjXjXjXjX5X;.}.}.&.7.d.d.z.9.6.@.#.O.%.+.I *.&.L m *.I L +.O.L &.t.d.x.9.O.7.5X6XeXjXjXjXjXjXjXjXjXjXjXjXjXjXjX",
"jXjXjXjXjXjXjXjXjXjXjXjXd.d.+.7.*.b O.*.O.> L :.&.O.&.7.$.&.e.e.&.I e.#.$.8.&.L +.:.+.P L &.6.9.z.}.c.jXjXjXjXjXjXjXjXjXjXjXjXjX",
"jXjXjXjXjXjXjXjXjXjXk.$.B N 7.B.f.m *.e.#., ;.8.&.+.*.:.*.I -.:.+.L s...+.-.+.L *.w.w.O.&.d.&.j +.M L %.jXjXjXjXjXjXjXjXjXjXjXjX",
"jXjXjXjXjXjXtXeX}.$.I e.r.#.I s.:.m L :.*.1 *.s.*.L +.:.X.P -.:.*.I m.L #.-.+.m +.w.w.I +.,.;.@.z.e.M , I k.eXjXjXjXjXjXjXjXjXjX",
"jXjXjXjXjX5X9.j m # e.e.8.O.b f.f.L o.w.,.m X.:.O.L *.-.+.I f.h.;.L w.L X.-.o.b *.j.*.L #.e.;.r.,.;.L O.f.m , &.6XaXjXjXjXjXjXjX",
"jXjXjXgXtX9.+.p.d.O.L *.:.+.j -.w.L L e.d.P +.:.O.L P X.o.L -.:.+.L *.L L *.I b *.:.O.L :.f.+.r.,.O.$.w.e.+.1 L $.6.x.jXjXjXjXjX",
"jXjX6Xd.0.b ..d.e.-.P I w.:.L L -.P M *.:.j  .o.4 M L X.L 4 P ..P 1 | 3 P X.P 1 o.X.M L :.:.L e.*.L &.d.-.L I :.+.N O.z.eXjXjXjX",
"jXwXy.I L , 3 *.:.:.I L *.w.+.3 X.M 3 M  ., 3 5 1 , b P 1 > 3 3 : = > : , 5 3 < 5 4 , M o.o.n ;.o.L :.s.*.b 7.w.-.3 > ;.V.tXjXjX",
"jX5X3 :.:.L P L -.:.*.L I :.L : b , : : > = = = # # = : # O = & # # = # = ; = O = : $ ; 1 3 1  .4 O.8.w.+.L f.,. .3 n O.b 5XeXjX",
"y.r.P :.e.e.X.3 4 -.:.o.j , 4 $ O O O + o O O O # # O & O = o o O # # # O # O o O o o O o O = , ; L :.#.n r.c.*.3 n 8.,.N N 4XaX",
"L : : *.w.e.w.L : 3 *.X.1 # # # O + o & = : 1 b L +.+.+.N N m B n L L +.%.+.N B 1 ; = O + + o + O > 4 3 j d.-.4 , #.m.m.1., %.t.",
"*.:.I 1 3 o.-.-.O., , : # # + # < =.x.B.>X1X1X<X<X<X<X<X;X;Xs.>.h.-X-X>X>X<X1X1X1X1X>X}.h.#.j o + O # = j -.] > ..e.g.-.1 3 n 7.",
":.f.e.+.1 : n X. .1 # # # # 3 e.>X<X1X1X1X1X3X1X1X1X1X<X<X<Xh.p.m.<X<X1X3X<X1X1X1X3X<X<X1X1X>Xa.n # o O ; 4 : L :.:.#.j N 7.:...",
"..:.f.w.L 3 , 3 3 = o o 1 :.B.<X0X3X1X;XB.V.V.z.k.k.x.C.:X,Xh.p.m.<X:Xm.z.k.f.C.m.B.&X;X1X3X0X1XB.7.3 O o $ <  .X.P n I :.d.8. .",
"3 P X.-.-.o.4 : # # # P f.>X0X3X-XV.d.9.3.2.@.C V V C @.;X,Xh.p.n.,X:X@.V V C C / @.3.7.r.V.&X1X0X<Xh.L # # : 4 4 n +.f.h.s.:...",
"L : : 3  .*. .3 O + 3 B.4X3X;XB.9.C g 0 0 0 q q q q q c -X1Xh.i.m.<X:Xk 0 q q y q 0 0 0 g V 8.}.:X3X4XV.n o O ; j $.d.h.s.-.X.4 ",
"k.:.M # > ] 4 = O O h.4X3X:Xz.@.0 e q y u y a H.H i p I :X<Xh.8.n.<X;Xk y i H J.H.q u u q 0 g I C.;X3X1Xc.& o ; P #.#. .M 3 : : ",
"h.f.s.*.3 # # # O #.>X3X:Xd.g 0 i P.J H a a L.K.J.J i U *X<Xh.i.v.<X;Xk p J Y.R.L.q J.Y.H e e t k s.;X<X<X#.O O : , , , b +.;.:.",
":.:.:.-.-.P : # > V.1X<XC.I t i J Y.P.H J a R.Y.H.J Y V ;X:Xh.,.b.:X:Xm p J R.R.R.y J.R.J y u H w C z.<X,XB.1 O = 3 #.:.e.f.r.:.",
", , 3 P P P : #  .1X1X;X6.l i J.I.Y.K.J.H.a R.Y.K J Y I ;X<Xh.>.C.:X:Xm Z J.R.R.R.y J.R.W i a K.a g $.&X<X1Xo.; # 4 -.:.:.*.X.4 ",
"P P 3 : , ; # > 8.2X1Xh.I q H R.Y.P.I.K.J.a R.R.K H A I :X<Xh.8.n.,X:Xm p K Y.E.Y.y J.R.J i H Y.J.t m d.1X4Xs.> # , 3 3 1 , > : ",
"e.e.*.L 3 # # 3 m.1X,X;.z i J E.K.J.K.Y.K.a R.R.J.H A I :X<Xh.p.n.<X;Xm r K R.E.Y.u K.R.J i H Y.I.u g ;.:X<Xm.1 # ; 1 1 3 3 4 P ",
":.:.:.w.w.4 # 3 N.1X:X+.Z H K E.I.J K.Y.K.a R.R.J H Z } ;X<Xh.p.m.,X:XI t J Y.R.Y.i K.R.H.u H Y.I.H l @.;X:XB.b : P w.e.e.f.z.f.",
"| ] ]  .P > # 3 M.1X*XI Z J.J.R.K.J J.Y.P.i R.R.J a A N ;X<Xj.p.n.:X:XN r J R.R.Y.a I.R.H.u H R.Y.J x U M.:XB.M ; 4 X.-.-.w.w.w.",
"I I P j : # O 4 N.,XB.O.Z J.J.R.J.H J.Y.P.i R.R.J a A %.;X,Xh.i.b.<X:XN r H Y.R.Y.a P.R.J u H Y.Y.K r @.M.:XN.N # # : > > 3 1 : ",
"e.:.*.*.b $ # M N.,XM.U Z K P.Y.J.H J.Y.P.a E.R.W a Y +.:X,Xh.p.v.<X;XN r J R.R.I.a K.R.H.u a I.Y.W p U m.:XN.M : 1 P +.:.e.r.e.",
":.:.*.*.b # o 4 N.:Xn.@.Y P.I.Y.J.J K.Y.P.a E.E.J a A +.:X<Xh.,.h.:X;XN z H R.E.I.a K.R.P.u H Y.I.K Y U m.:XM.M : P *.:.f.V.B.c.",
"P  .P  .b # o n M.,XM.&.^ _ W.W._ _ _ W._ ^ W.W.) ^ / ;.:X,Xv.>.v.:X:X..U ! W.W.W./ _ W._ ^ ( W._ _ / 3.b.:XM.m ; 3 P P ..*.*.X.",
"L L L +.L : o 4 n.,XM.g.r.f.x.d.d.z.y.d.z.d.t.z.d.9.p.g.=X<Xh.,.h.,X;Xi.;.d.x.x.d.z.d.x.k.d.9.z.z.e.f.h.M.,Xn.M # # , , : 1 1 4 ",
"e.w.w.w.+., # 4 M.,XN.b.g.n.*Xp.v.&Xg.g.-Xv.<.&Xm.s.g.&X=X<Xh.>.h.:X:Xg.<.n.B.g.a.:Xj.g.N.N.i.&X&Xs.b.*XM.:Xm.P $ j &.7.$.e.r.z.",
"X.o.o.X.M : # 4 M.,XM.s.:.;.:.;.;.:.$.;.7.;.#.>.;.=.;.s.=X,Xg.>.v.:X:X,.=.;.;.;.;.>.;.;.:.;.-.>.;.&.;.s.M.:XM.P $ 3 -.-.-.f.h.f.",
"1 1 , , : = & M M.<XM.&.V z Z Z z z Z Z Z l Z Z z z V ;.=X,Xs.>.g.:X;X#.k z Z Z Z l Z Z Z l z Z S z c $.M.:XM.M ; ,  .M M  .o. .",
"{ +.^ L D ; q S M.<XM.&.x y a J u i H H i y H H u y T $.=X<Xi.=.g.:X:XO.l u a a a e i H i r u J a i p 2.M.,X].B e : D S 3 1 1 3 ",
"7.d.F j.S - O b n.<XN.3.Y H H.Y.H H J.J.J i P.Y.a a ! ;.=X,Xi.=.g.:X:Xo.z a Y.Y.P.y H.I.J i a K.I.a Z 2.M.:XS B 8 2 #.*.X.O...+.",
",.h.B.B.7 A.o n b.<XN.3.R H K.E.H K I.Y.K H Y.Y.a J T.;.&X,X,.#.j.:X:X..Z H.Y.R.I.y P.R.J.a J I.Y.H.A 2.M.,Xn.n 7 A.=.C.h.s.e.s.",
"=.-.,.3 S.G.% n v.5XM.4.R E P.E.H W Y.Y.J.H P.R.E J T.&.*X:X,.X.g.:X;X+.z H I.R.I.r H.R.J.H H Y.I.P.A 2.M.>Xv.& S.G.& ;.-.-.-.X.",
"< H :   )./.@ 2 g.@X8.$.Y E ` 5.Y Y K J.K a ~ ` / Q ! @.N.&X-...,.B.B.N r Q ` ` ~ t J I.K i Z ` ` Q Z 2.m.|.v.. )./.9 : , L.= > ",
"V q L G ^.XXA.  f.-X_ _.R u.wX8X' A i i i Y q.6X6X].Z A T ^ Y p S / / p p ].6X6Xq.u u i i p ^ eXwX].S x / q >.G ^. XA.  b L R _.",
"E.8.B S./.OX^.).@ I s L.Q '.wX4X4.A H J J W t.4X4Xl.A a H H i a a a i a A [.4X4Xu.H H H H Y ' wXwXc.( a L.z.} S./.#X^.).@ 4 u R.",
"o.-.7 ~.iXuX.X/.F.h z J _ l.,X:X' W J.K.K.P.t.-X=Xt.Y J K J H H H a J J Y y.:X-Xu.J.K J.J H ' <X<Xx.) a z 5.7 ~.uXuXoX/.F.f ] -.",
"{ 5 7 (.$XfX%X.X~.7 W J ! l.:X:X5.W K.I.I.T.t.-X=Xu.Y J.H.H.H.H.H.H.H.H.~ l.=X;Xu.K.J.K K K ` :X<Xx.) H.~ 5.7 (.$XfX%X.X~.7 M { ",
", & S./.sXfXsXOX^.8 ~ P._ l.,X-X' ~ J.J.P.~ 0.@X=Xu.W K.K.Y.Y.Y.Y.R.K.R.T.u.-X-Xu.Y.K.J.J.W ` :X,Xk._ J.~ v S./.sXfXuXOX^.7 $.=.",
"V.{ S.(.$XfXfXuX/.G.. a _ u.=X*X` Y.Y.K.J.Q -.&XB.t.E J K.R.Y.Y.K.K.K.K.~ u.*XB.u.Y.Y.H.J K ' =X=Xr.( H.U.m S.(.$XfXfXuX/.G.& >.",
"C.] D.~.+XsXfXuX X).+ a T $.w.<./ W H.H.H.W O.:.<.@.Y K J.P.J.K H.H.J H.E 2.<.,.' W H.H.J H R i.i.&.T a F v D.~.+XsXfXuX X).& X.",
"-.2 S.(..XiX#X+X~.7 v S c m | P k u i i u u n { | m x x / / l l l / U l t n | | m y i i u y c | | M l Z 2.} S.(..XiX#X+X~.7 = 4 ",
"{ N d S./.OXXX^.8 } g.I c c m m l i H a i i c m j c R I s.g.N , ..d.8.b l c m k l q H J i q r m m c l U a.-X{ S./.OXXX^.7 g N  .",
"+.{ y.;.>.6.;.$.N B.b.*.R i ~ E Y J.K.J.J J E E Y Y Q &.&X=X#.3 ;.=X&X..Z Y Y E Y y K.Y.H.i i E E Y Z 2.v.C.y.&.>.i.;.2.B :.8.d.",
"s.- x.9XsXaXrX7X} g.v.=.D a R.R.K I.Y.P.K J.I.Y.J J.T.8.=X,X-.M ,.:X&X..~ I.K.I.P.u I.E.P.a H I.R.J Z ' v.[ x.9XsXpXyX7X} { n.b.",
"-.{ & v 6.} C 2 6 a.v.%.V a Y.Y.J.P.Y.K.J.W Y.Y.J J.T.7.=X:X#.5 >.:X&X..~ I.I.K.Y.u I.R.P.a a I.R.H x U v.v.& v &.{ } 2 & { a.i.",
"3 3 % h Q.F A.h d Z.&X>./ ^ W.` ) _ ` ) ( ( _ _ ( ( 5.8.*X:X#.3 >.:X&X#.' _ W._ ` R _ W.( / ( _ _ ^ U &.v.:X% h !.F A.h d & , , ",
"O.&.. d _.A !.F % a.v.g.j.z.}.x.c.}.z.k.V.c.k.V.z.k.z.M.;X<X*.3 ;.;X-Xg.d.z.V.z.k.N.x.z.c.c.d.}.}.k.z.V.M.;X. 9 _.F Q.F . B =.7.",
"#.;.o.* % ` Y % [ <XM.v.v.n.&Xj.n.&Xv.h.&XM.g.B.n.h.b.&X*X:X#.3 =.;X&Xv.Z.m.&Xv.j.*Xv.v.M.N.g.&XB.h.M.N.M.:XX.* % W.A % { h.d.s.",
"=.o.o.& @X$.5.& i.<Xn.p.=.&.7.$.3.0.$.$.7.3.+.6.&.#.&.j.=X:X+.1 =.;X&Xi.+.3.6.$.$.9.&.$.6.6.O.0.7.#.&.s.n.:X,.. {.2.q.& p.:.-.+.",
"| P 4 - =.`.[ & ,.,Xv.$.g e r r e e r r e w y r q w c ;.*X:X#.1 =.;X&X..l q p q e 0 t r q e q r r w w @.v.;X,.& $.`.[ & M M 3 3 ",
"; ; 1 j % d X & >.,Xv.3.S u a H.u a H a u i a a i i Q 7.=X:X#., ;.;X&X..A H J J a y H J a u a H.J u x U v.:Xi., % f X O j b m n ",
":.:.e.:.r !.f & ,.,Xv.3.S a I.I.a P.I.P.a W P.I.a W W.7.;X:X+., =.;X&Xo.~ I.Y.Y.P.y I.Y.P.a a Y.R.H Z 2.v.:X,.< h !.f { h.m.z.j.",
":.<.:.:.w !.  * >.,Xv.3.S a I.R.a P.Y.P.i P.I.I.P.P.T.6.;X,X+.< =.;X=X..Q I.R.Y.P.p I.R.I.W P.Y.E.H Z 2.v.,X,., w !.  { :.d.g.w.",
"N 4 N M g Q.d & ,.,Xv.;.U T ! ! Q T ) Q D T ( ! T Q ` 6.=X,X%., =.;X&X#.^ ! ! ) Q S ! ) Q T ^ ! T.T R 3.v.:X8., g Q.d - 4 M M M ",
"M M N ..X A.@ & >.,XB.h.9.9.y.l.'.[.{.[.[.{.[.u.t.t.d.j.;X<X+.< =.;X;Xa.r.y.y.u.'.'.{.{.{.'.'.l.u.9.9.d.N.:X8.< % A.@ >  .....o.",
";.&.&.+.9.|.v & >.<X;X;X;X;X:X:XwXwXqXwXwXwX0X>X;X;X-X-X>X<X%.g #.;X:X-X;X;X;X<X0XwXwXwXwXwXwX<X;X;X;X;X;X:X8.& a.|.v [ d.d.r.f.",
"h.8.<.& wXrX].& ;.-X-X-X;X;X&X;X-X-X=X-X-X-X-X-X;X=X-X=X;X;XO.< %.&X-X-X-X-X=X-X-X-X;X=X&X*X;X:X;X;X;X-X;X&X;.. 8XrX'.& h.,.:.:.",
"M M 4 -   f %   B #.$.=.#.#.=.#.#.#.=.=.=.%.=.#.#.=.=.=.#.#.g $ v $.=.#.#.=.=.%.=.#.$.#.#.#.%.#.#.#.#.$.#.#.m . X f % 6 4 ] ] ] ",
"1 1 , ; % % & 9.'.].'.'.'.'.'.'.'.'.'.'.'.'.'.'.'.'.'.].'.'.].l.l.'.'.'.'.'.'.'.'.'.'.'.'.'.'.'.'.'.'.'.'.'.l.x.- X   # = # = = "
};
