/* XPM */
static char *result[] = {
/* columns rows colors chars-per-pixel */
"64 64 237 2 ",
"   c #1B0919",
".  c #1F101C",
"X  c #2A0A1B",
"o  c #24071D",
"O  c #261B1A",
"+  c #2A1D1B",
"@  c #261818",
"#  c #35101C",
"$  c #2C201E",
"%  c #33211E",
"&  c #261828",
"*  c #351324",
"=  c #2E2222",
"-  c #2E232C",
";  c #322524",
":  c #352827",
">  c #3A2926",
",  c #352B2A",
"<  c #3B2D2B",
"1  c #342529",
"2  c #3D302E",
"3  c #332634",
"4  c #372D35",
"5  c #3D3332",
"6  c #3C353A",
"7  c #3E393A",
"8  c #3B3537",
"9  c #2E2331",
"0  c #1D0F20",
"q  c #52151D",
"w  c #491F15",
"e  c #4A2618",
"r  c #5A2D16",
"t  c #542C1A",
"y  c #572C19",
"u  c #5D321C",
"i  c #59311B",
"p  c #643519",
"a  c #693719",
"s  c #6C3A1B",
"d  c #64361A",
"f  c #733E1B",
"g  c #7D3613",
"h  c #7E2B1D",
"j  c #461626",
"k  c #4C1529",
"l  c #6E1C22",
"z  c #4B2E26",
"x  c #43322E",
"c  c #4D352C",
"v  c #553424",
"b  c #5B3624",
"n  c #5D3925",
"m  c #573929",
"M  c #433634",
"N  c #443836",
"B  c #4B3A34",
"V  c #433B3B",
"C  c #4B3E3B",
"Z  c #42353A",
"A  c #563C33",
"S  c #482833",
"D  c #782726",
"F  c #643C25",
"G  c #6A3E22",
"H  c #623D29",
"J  c #793528",
"K  c #632D27",
"L  c #76411D",
"P  c #7C441D",
"I  c #7F481F",
"U  c #4C413E",
"Y  c #47403F",
"T  c #53423C",
"R  c #5C443B",
"E  c #5D463A",
"W  c #6C442C",
"Q  c #6B4025",
"!  c #734424",
"~  c #75492C",
"^  c #7A4D2D",
"/  c #794725",
"(  c #6D4A33",
")  c #674835",
"_  c #744E34",
"`  c #774C35",
"'  c #7C5335",
"]  c #78553B",
"[  c #6B513F",
"{  c #3E3E42",
"}  c #3A2D42",
"|  c #433D43",
" . c #443B44",
".. c #3E4044",
"X. c #464243",
"o. c #4C4443",
"O. c #4D4B4C",
"+. c #4C4747",
"@. c #524543",
"#. c #544946",
"$. c #5C4A43",
"%. c #554C4C",
"&. c #5A4D4A",
"*. c #5A4640",
"=. c #5B514E",
"-. c #56514E",
";. c #544E53",
":. c #555352",
">. c #5B5453",
",. c #5B5956",
"<. c #5B575A",
"1. c #5D5B5C",
"2. c #57585B",
"3. c #4F4651",
"4. c #634C42",
"5. c #62524C",
"6. c #655043",
"7. c #735845",
"8. c #625553",
"9. c #645956",
"0. c #625C5B",
"q. c #6B5B57",
"w. c #755E55",
"e. c #5F605E",
"r. c #63615E",
"t. c #6C615E",
"y. c #6F6057",
"u. c #75645B",
"i. c #776459",
"p. c #5C5C61",
"a. c #635C62",
"s. c #646362",
"d. c #6B6563",
"f. c #6C6866",
"g. c #65666A",
"h. c #6C6A6C",
"j. c #69686A",
"k. c #746A66",
"l. c #7C6A63",
"z. c #746D6B",
"x. c #756965",
"c. c #78716D",
"v. c #6C6E73",
"b. c #6F7075",
"n. c #6F7278",
"m. c #737274",
"M. c #73757A",
"N. c #76797D",
"B. c #7B7B7D",
"V. c #7B7675",
"C. c #736E70",
"Z. c #5E6065",
"A. c #A93718",
"S. c #B2341C",
"D. c #8E2326",
"F. c #883D2B",
"G. c #872C17",
"H. c #81471E",
"J. c #83491F",
"K. c #884C1F",
"L. c #974B15",
"P. c #AF5A0A",
"I. c #844B21",
"U. c #8A4E21",
"Y. c #88442A",
"T. c #8D5122",
"R. c #83522C",
"E. c #925423",
"W. c #965824",
"Q. c #845835",
"!. c #97462B",
"~. c #A34A2C",
"^. c #B16F2A",
"/. c #9F6025",
"(. c #DD4F1F",
"). c #EA5315",
"_. c #F4740B",
"`. c #ED6711",
"'. c #D74624",
"]. c #D0662F",
"[. c #E56426",
"{. c #836A54",
"}. c #AE6F4B",
"|. c #816F6A",
" X c #876D65",
".X c #83726B",
"XX c #88776E",
"oX c #957966",
"OX c #817875",
"+X c #E46E4D",
"@X c #B08A2C",
"#X c #FD9611",
"$X c #FFA619",
"%X c #FEAA24",
"&X c #FFBA29",
"*X c #F7993B",
"=X c #A69172",
"-X c #9C8166",
";X c #FFCA4D",
":X c #FFD860",
">X c #FFDC74",
",X c #7B7D82",
"<X c #7E8186",
"1X c #7F8388",
"2X c #818286",
"3X c #82858A",
"4X c #85898D",
"5X c #8A8A8D",
"6X c #878B90",
"7X c #8A8D92",
"8X c #8D9195",
"9X c #8F9398",
"0X c #939599",
"qX c #968C8A",
"wX c #A39A96",
"eX c #AA9D80",
"rX c #ABA49B",
"tX c #A7A09B",
"yX c #ABA18C",
"uX c #9B9EA1",
"iX c #9FA2A5",
"pX c #A3A4A7",
"aX c #B8B1AF",
"sX c #E1BF92",
"dX c #C3BCB9",
"fX c #C1AB87",
"gX c #FEE69D",
"hX c #FFE188",
"jX c #FEDFB9",
"kX c #FEE3AB",
"lX c #C7C1BF",
"zX c #CEC7C5",
"xX c #F9EBD0",
"cX c #FEF9ED",
"vX c #E8E4E3",
"bX c #E3DFDD",
"nX c None",
/* pixels */
"nXnXnXnXnXnXnXnXnXnXnXnXnXnXnXbXbXnXnXtXtXzXwX8.&.@.x > U 2 #.>.8.8.&.>.9.&.Y U x.OXwXzXnXnXnXnXnXnXnXnXnXnXnXnXnXnXnXnXnXnXnXnX",
"nXnXnXnXnXnXnXnXnXnXnXnXnXqX>.OXV.=.y.d.d.z.q.8.&.*.@.*.T T &.-.U B -.U U @.#.U =.y.u.k.q.U 9.qXwXaXnXnXnXnXnXnXnXnXnXnXnXnXnXnX",
"nXnXnXnXnXnXnXnXnXnXnXnXd.d.#.0.-.B U -.@., U ,.=.#.=.0.%.=.r.r.=.T r.&.#.,.=.U #.,.-.Y U >.8.q.l.OXc.nXnXnXnXnXnXnXnXnXnXnXnXnX",
"nXnXnXnXnXnXnXnXnXnXk.&.C C 9.B.t.Y -.r.-., >.r.=.@.%.,.%.#.>.:.#.U s.@.&.,.#.U -.e.1.T =.d.=.x #.C | #.nXnXnXnXnXnXnXnXnXnXnXnX",
"nXnXnXnXnXnXdXaXOX&.#.r.q.&.@.r.,.B U 1.-.2 -.r.-.U -.,.#.U :.,.#.#.m.U #.:.#.B #.e.,.U #.1.,.$.z.a.Y > U k.aXnXnXnXnXnXnXnXnXnX",
"nXnXnXnXnXqXq.5 N ; 9.r.0.+.M f.f.U +.e.1.M -.2.@.Y O.:.-.U d.h.>.T e.U O.,.+.M -.f.,.U -.r.>.t.1.:.U *.f.B 2 =.wXzXnXnXnXnXnXnX",
"nXnXnXvXdXq.%.q.d.@.U -.,.#.x =.1.Y U r.t.U #.2.@.U o.+.o.U -.1.#.U -.U #.-.U M O.e.@.U ,.t.#.t.1.#.#.r.r.#.2 U &.8.x.nXnXnXnXnX",
"nXnXwXd.q.M o.s.e.,.N #.,.,.U U -.Y Y -.,.M U +.7 N o.O.Y M Y +.Y 2 { M 7 +.Y 2 +.O.Y U ,.,.U e.:.U =.d.,.U T :.O.C T c.aXnXnXnX",
"nXrXt.T Y < 5 -.,.,.#.U -.e.#.x +.V 5 V X.2 5 7 2 < M X.2 : 4 5 , $ , , 2 7 2 > 8 7 2 N +.+.N :.+.U >.g.-.M 9.e.:.7 , >.V.aXnXnX",
"nXqX5 9.9.#.M Y -.,.:.U T -.+.> 7 2 : 1 , $ = = = $ = 1 $ $ $ & $ $ = $ $ ; = $ = 1 % : 2 2 x o.7 T r.1.@.T f.,.Y 2 N @.B qXdXnX",
"k.t.Y ,.r.s.U M 7 -.,.+.B 2 8 $ + + O O O $ O + $ $ + + $ $ + + + $ $ $ & $ + O O + O O @ O $ 4 : Y ,.-.N t.m.-.2 N 0.1.o.C qXzX",
"Y ; : O.e.s.e.+.: 5 -.O.2 @ $ $ @ O O = = : 2 M U @.#.@.U Y B M B Y Y @.*.*. .Z 5 ; $ + O @ O @ + , 8 2 M f.:.7 < %.m.m.%., #.t.",
"-.,.U < 5 +.:.-.#.> 2 , $ O @ O S #.h.OX5X7XqX8X8X7X7X5X3X2Xg.<.h.3X2X5X5X7X7X8X8X8X5XOXh.%.S O O + + ; 5 :.V , o.r.j.:.< M M 8.",
"9.f.r.%.< , Y +.X.2 $ $ $ $ M r.3X8X7X9X7X9X0X9X8X8X7X7X7X7Xh.a.m.7X7X8X8X9X8X9X0X9X7X7X7X8X5Xd.N $ O + ; 7 : U >.1.+.x C 1.>.+.",
"U ,.f.e.Y 5 < 5 5 ; O O 2 ,.B.8XuX0X9X4X,XV.OXz.f.x.k.m.4X6Xh.a.b.6X4Xm.k.f.f.C.m.N.B.3X8X0XuX7XB.0.5 + + = : o.O.Y N T ,.f.0.o.",
"N Y O.-.:.#.7 : = O $ V f.5XuX9X2XV.a.q.5.4. .) A A A &.3X6Xh.p.b.7X4X$.A A A ) E 4.5.q.d.c.,X9XuX7Xz.V + + : 7 N V #.f.h.e.,.o.",
"U , ; 5 +.O.+.2 + @ 5 N.0X0X3XB.9.R z e e w r r r r r m 3X8Xh.a.v.7X4Xc t r r r r e e e z C 9.,X3X0X0XB.N O + ; 2 #.d.h.s.:.+.7 ",
"f.,.Y $ , 7 7 ; + = h.0X0X3XC.*.e r r p a p g H.L s d T 4X4Xh.0.m.7X3Xc r s P H.H.r a a r e e R C.3X9X8Xc.& O ; Y -.+.o.V 5 > : ",
"z.f.s.-.5 ; $ O + #.7X9X3Xd.z t s I.I L L s T.T.H.P L A <X4Xh.p.m.6X3XB d I K.W.L.p J.U.f r y r c d.2X8X7X&.+ + : 2 < x B #.>.,.",
":.,.2.:.-.Y : $ , V.8X7Xm.R y a I U.I.f P L T.E.I P Q R 4X4Xh.e.v.4X2XB d I.E.E.E.p U.T.H.a p P t A z.5X7XB.2 O $ 5 %.,.r.f.r.1.",
", 2 5 V Y 7 : ; Y 8X8X3X>.i s J.K.T.J.J.H.s E.E.I L Q T 3X7Xh.p.m.6X4XB F J.E.W.E.p J.E.H.a f K.s z &.B.7X9X%.= $ N -.,.,.-.+.Y ",
"Y Y 5 , < , $ < 0.0X8Xh.T u L T.T.K.K.K.J.f E.E.I P s T 4X7Xj.1.v.7X4XB d J.E.W.U.p J.E./ s L T.J.i B g.7X0Xs., $ , 8 5 2 , , ; ",
"r.r.-.U 5 ; O 5 m.8X6X,.m s I W.K.J.K.E.J.L E.E.J.L G A 4X7Xh.a.m.7X4XB u / T.W.U.a K.E.H.a f T.U.a z >.5X7Xm.< $ ; 2 5 5 5 7 Y ",
"e.,.,.e.,.7 $ 5 N.8X3X#.n P I W.K.I J.E.J.L E.E./ L F @.3X7Xh.p.v.7X4XC u L E.W.U.s K.W.J.s f T.U.L v $.3X5XN.N ; Y 1.r.s.f.z.f.",
"..7 { ..7 , $ 5 M.7X<XT d I.I E.K.P K.K.J.f W.E.P f G C 2X7Xh.a.n.7X4XC u P E.E.T.f U.E.I.a P E.T.L n E N.4XB.N ; 7 O.:.:.e.e.e.",
"T T B Y : $ $ N N.6X,XE Q J.I.E.J.L J.T./ s W.E.P f G *.4X4Xh.p.v.7X4XC b L T.E.T.f I.E.I p f T.T.L Q $.M.4XN.N ; ; ; , , 5 < < ",
"r.e.-.-.M % $ 7 N.6XM.E Q J.I.T.J.P I.T.I.f W.E./ f G #.4X7Xh.1.v.7X2XC u P E.E.U.f I.E.H.p f T.E.L d E m.4XN.Y ; 2 Y #.9.r.t.r.",
",.:.-.%.5 $ $ N M.6XM.#.Q / U.T.J.I K.T.I.L W.W.P f G #.4X7Xh.p.v.5X2XC b P E.E.U.f I.E.I.p f T.U.I Q E b.4Xm.Y : 7 -.1.r.V.B.m.",
"Y Y +.U 5 $ $ 7 M.6XM.>.) ' Q.Q.' ' ' Q.' _ Q.Q.` ( ) >.4X7Xh.1.v.6X2X@.A ' Q.Q.Q.) Q.Q.' W _ Q.' ' ) 5.b.6Xm.M % 5 Y Y O.-.-.O.",
"U U U T U : $ 5 M.6XM.f.r.f.z.t.d.f.d.t.z.d.y.z.f.q.s.h.3X6Xh.1.h.6X4Xp.8.d.k.x.d.z.d.x.k.h.q.c.z.r.d.z.M.4XM.Y $ $ 2 : : 2 2 M ",
"e.e.e.e.%.< $ 7 n.6XN.b.j.b.<Xs.v.<Xg.g.<Xv.2.<Xb.a.g.N.<X7Xh.<.h.4X4Xg.2.m.B.j.a.4Xh.g.,XM.p.,XB.Z.b.<XM.6XM.5 % 5 =.9.-.r.t.z.",
"O.+.+.O.7 , $ 7 M.6XM.s.,.,.>.=.>.>.=.>.8.>.%.>.>.>.,.p.1X6Xg.<.g.4X4Xp.;.>.>.:.-.<.>.>.<.>.-.>.1.-.,.s.M.4Xm.Y % Y :.-.,.f.h.f.",
"F.- < , : $ $ 7 M.7XN.=.A n n Q n n n F F v F F n n A :.1X6Xg.:.v.3X3X;.c b H H F v F F F v n F F b m &.}.v.n.Z % < V V V X.X.X.",
"U & ` !.x % $ 7 M.4XN.&.n d s P a a L L s p L P p a Q =.1X6Xa.:.g.4X3X@.t a f P f r f f a p p P f a K 4.M.}  XF.% 1 N M 5 2 2 7 ",
"C D.<.f.%.2 $ 7 b.8XN.=.Q L / E.L P J.K.P s K.I.f f ^ >.<X6Xp.;.h.4X3X#.b f U.T.J.u I T.I a f U.U.L d 6.;.D.p.N ; M #.=.%.U o.@.",
"| D.3 V.0.H.$ , W.=XN.5.W L I.W.L I T.K.I L T.T.f I R.=.<X6X1.%.g.4X4X+.F P T.E.U.p J.E.I.f L T.T.I G 6.;.D.3 N % F.s.<./.{.s.s.",
"7 D.h 5 U g u 2 m ~.N.5.W ! I W.L I I.T.J.L I.T.L ! R.=.,X6X1.O.g.3X3X@.F P U.E.U.r J.E.I.L L T.T./ G 4.;.D.G.; % g 7.%.i L.:.O.",
"& D.`.A.#     ; j.6XN.&.Q ~ ] ] F ! I K.I L ^ ] ( ~ ^ $.N.,X=.+.1.,XB.C i W ] ] / r I U.I a Q ] ] ~ F 4.;.D.`.S.#     - , , , , ",
"M # `.`.S.D.D.l 9 h.5.W Q i.pXrX[ G s s f s w.tXwX XF F W ( Q a Q ) W n d  XwXwXi.p a s a d ( aXrX XW n  .# `.`.A.D.D.l @ M +.#.",
"t.- S._.&X%X%X'.D X ^ P.~ c.tXuX6.G L P P / y.0X0Xi.G L L L s s s f f s G .X0X0Xu.L P L L Q [ iXpXc.( s ( 3 S._.&X%X%X'.D X 7./.",
"7._ X G.%X:X:X$X'.q K.g ^ u.6X3X[ / J.I.K.I.t.3X1Xi.Q P I P L L P P P f ! u.4X2Xi.I.J.J.I L [ 8X6Xk.` L E.' o G.%X:X:X$X'.q ) T ",
"i & (._._.jXkX&X#XL.q L ' l.6X3X] / K.T.K.T.y.2X1Xi.! I H.I H.H.P H.H.H./ l.1X2Xi.I.J.I I I _ 4X7Xk.` I a = (._._.jXgX&X#XL.j 5 ",
"t - G.`.$X%XxXhX&X#XD.u ' l.7X1X6./ I.I.U.I.q.B.1Xy./ K.T.T.T.T.T.T.K.E.^ i.3X2Xi.T.K.K.J./ ] 4X6Xk.' J.a R h ).$X%XxXhX&X#XD.N ",
"c.z.q ].:XgXcXcXgX;XA.y ' i.1X<X] T.T.I.I I.9.V.,Xy.L P K.T.T.T.K.K.T.K.^ i.,XB.i.T.K.I P I [ 1X<Xt._ I I.7.q [.:XgXcXcXgX;XA.X.",
"h.%.D [.kXcXcXkXxX>XA.y ~ $.p.e.) / J.J.I / E 1.2.$.Q I J.J.J.I.H.H.P P ! 4.2.1.[ I H.H.P L ) p.Z.=.W L ! A D [.kXcXcXgXxX>XA.7 ",
":.8 D.(.+XgXgX%X;X*Xe m m Y ....c d a a a d N ....B n n E ) m i m ) ) v v M ..X.B d s s a p v ....N m n 6.>.D.'.+XgXgX&X;X*Xw 5 ",
"X.o.5 o l E.@X^.P.e d.E m m B c i s L f s d m c x m n T r.d.V < o.s.0.B i m B c v r L P s u i c B c v E g.<XO.  l !.@X^.P.w o.o.",
"@.&.T -XyXrXrXyX=XoXX.$.R d ! / Q I.U.I.P I / ! Q ! ^ =.<X1X%.7 ,.<X,X .F Q Q ! Q p K.T.H.s s ! / s F [ b.6X@.-XyXyXrXyX=XoX .0.",
"s.e.3 } q.yXoXXX8.} 3 &.H f T.E.I T.T.I.J.I T.T.P I.R.9.1X6X:.Z 1.4X,Xo.~ U.U.U.I.a U.W.H.f f E.E.I F E v.7X3 } q.eXoXoX8.} 3 b.",
":.:.6   o D k D X * 3 &.H J E.T.J.I.T.J.I I.T.T.P I.Q.,.1X4X%.7 <.4X,Xo./ U.U.U.T.d U.W.I.f L U.E.L F $.v.4X .o o D k K o * 9 1.",
"7 5 - X J ^.J F.F.k 3 <.) ( ' ' ` ' ' ] ( _ ' ' _ _ ] 0.1X4X%.M <.4X,X;.[ ' Q.' ' ) ' Q._ ) _ ' ' ( ) =.v.4X .X J ^.F.F.Y.k 0 < ",
"@.&.<.4 * K ^.^.k o p.v.j.z.OXz.c.V.z.k.V.c.k.V.c.k.z.M.1X6X%.5 >.3X1Xg.q.c.c.c.f.V.k.k.V.z.d.OXOXk.z.m.M.4X2.O * K }./.k o  .9.",
"&.:.2.,.&   S j o 3.M.b.v.m.,Xg.m.,Xv.h.<XM.g.B.n.g.v.B.1X6X%.5 ;.3X1Xv.p.M.,Xv.h.1Xv.v.N.M.g.,X,Xh.b.,XM.4Xp.: X o S z o  .a.d.",
";.O.+.+.& fXoX X& p.n.a.;.&.q.=.=.9.&.&.8.=.*.9.>.%.>.h.<X4X%.2 ;.2X,X<.#.5.8.&.%.q.=.&.8.5.#.9.9.#.=.g.b.3Xp.>   fXoX X&  .;.%.",
"V V | V 4 3 A & } ,Xv.&.z t u u r r u i t y u r y r m >.<X4X%.< ;.3X,X+.v r p u r e i u r t y p u y t *.v.3Xp.< @ 1 S 9 - M Z 5 ",
"= : < x > % F.j  .7Xv.5.n p P P s s P L a s L P s s ~ 8.<X6X%.< -.3X,Xo.G f P P f r P H.f a f P I a n E b.4Xp.> @ j F.j = M B M ",
",.9.r.,.&.z F.j  .7Xv.5.H s T.T.P I K.J.L P I.K.P / R.8.1X3X@.S -.3X2X+.~ U.T.U.I.p J.E.I.L I U.E.P F 4.v.4Xp.> + t !.* 3.z.z.j.",
",.,.,.2.;.t ].o  .6Xv.5.H f U.W.J I.T.J.s I I.T.P I.Q.8.1X6X%.< ;.3X,X#.~ T.T.T.Y.p T.E.I.P / T.W.L F 4.v.5Xp.> % y ].o  .g.g.e.",
"V V V | Z j D k  .6Xv.>.A W _ ^ W ~ ` ~ Q ~ ~ ^ W ~ ] 9.1X7X#.> %.3X2X3.W _ R.^ ~ H ^ ` ~ W W ^ ^ W ) 4.v.4Xa.> + j J j 3 V V V ",
"V V C o.V X ~.#  .6X,Xg.s.u.u.u.|..XXX|.V..X.Xu.y.y.d.v.1X7X*.> =.3X1Xa.a.u.w.l.|.|.XXXXXX.X.Xl.u.y.q.h.M.4X9.> + # !.X 4 o.o.+.",
">.=.=.0.C a.}. .} ,X3X3X3X3X3X7XiXpXpXpXpXpXuX4X4X3X2X2X4X7X#.1 %.3X4X2X3X3X3X5XuXpXpXpXpXpXiX7X4X3X3X2X2X6X0.1 * d.}.S Z 1.d.f.",
"f.1.,.,.& rXsXXX& p.2X1X3X3X2X2X2X3X1X1X,X2X2X2X2X2X2X2X2X4X@.z @.,X2X3X2X3X2X2X2X1X3X1X2X2X2X6X2X2X3X2X2X,X<.1   rXsX|.&  .,.,.",
"V V 8 7 & X k * o  .&.%.%.;.&.&.%.%.=.;.%.%.;.&.%.&.%.;.%.%.x j S &.%.%.=.%.%.%.%.%.%.&.3.&.&.%.%.%.%.&.%.#.M % @ o k * 0 4 { { ",
"2 2 2 = S 3 o & t.|.|.|.|.|.|.|.|.|.|.|.|.|.|.|.|.|.|.|.|.|.l.l.l.|.|.|.|.|.|.|.|.|.|.|.|.|.|.|.|.|.|.|.|.|.|.x.*.& o   $ & = = "
};
