/* XPM */
static char *result[] = {
/* columns rows colors chars-per-pixel */
"64 64 233 2 ",
"   c #1B0A1A",
".  c #26081D",
"X  c #261B1B",
"o  c #2A1D1C",
"O  c #251719",
"+  c #38181E",
"@  c #33091E",
"#  c #2C201E",
"$  c #32211E",
"%  c #330C23",
"&  c #271827",
"*  c #3A1E22",
"=  c #2E162C",
"-  c #2E2222",
";  c #2E242D",
":  c #322524",
">  c #362827",
",  c #352B2A",
"<  c #3B2E2C",
"1  c #392727",
"2  c #3D302F",
"3  c #362A34",
"4  c #3C3332",
"5  c #3D353B",
"6  c #3E383A",
"7  c #3F3837",
"8  c #2E2231",
"9  c #1C0F20",
"0  c #52141C",
"q  c #5C1B14",
"w  c #461F15",
"e  c #4A2618",
"r  c #5A2D16",
"t  c #542C1A",
"y  c #572D19",
"u  c #5C321C",
"i  c #59301B",
"p  c #643519",
"a  c #693719",
"s  c #6C3A1B",
"d  c #63361B",
"f  c #733E1B",
"g  c #431324",
"h  c #471A26",
"j  c #4C1529",
"k  c #651820",
"l  c #4A2C25",
"z  c #542A24",
"x  c #49342D",
"c  c #553424",
"v  c #5C3624",
"b  c #5D3925",
"n  c #573929",
"m  c #433634",
"M  c #443836",
"N  c #4B3A34",
"B  c #433B3B",
"V  c #4B3E3B",
"C  c #463436",
"Z  c #563A34",
"A  c #482836",
"S  c #782726",
"D  c #643C25",
"F  c #6A3E22",
"G  c #623D29",
"H  c #603723",
"J  c #703329",
"K  c #76411D",
"L  c #7C441D",
"P  c #7F481F",
"I  c #4D413E",
"U  c #47403F",
"Y  c #53423C",
"T  c #5C443A",
"R  c #6C442C",
"E  c #6A4026",
"W  c #734423",
"Q  c #75492C",
"!  c #7A4D2D",
"~  c #794725",
"^  c #694835",
"/  c #744E34",
"(  c #794F33",
")  c #7C5335",
"_  c #78543A",
"`  c #6B513F",
"'  c #3E3E41",
"]  c #3A2E41",
"[  c #433D44",
"{  c #493E44",
"}  c #3E4044",
"|  c #464242",
" . c #4C4443",
".. c #4D4B4C",
"X. c #4C4748",
"o. c #524643",
"O. c #544946",
"+. c #5C4A43",
"@. c #554C4C",
"#. c #5B4E4A",
"$. c #594744",
"%. c #5B514E",
"&. c #55514E",
"*. c #554E50",
"=. c #555352",
"-. c #5B5453",
";. c #5B5956",
":. c #5B5759",
">. c #5D5B5B",
",. c #57595C",
"<. c #4E4A53",
"1. c #634C42",
"2. c #694F4A",
"3. c #62524C",
"4. c #685245",
"5. c #625653",
"6. c #645956",
"7. c #625C5B",
"8. c #6A5C57",
"9. c #745A4B",
"0. c #5F605E",
"q. c #64615E",
"w. c #6C615D",
"e. c #6F6057",
"r. c #75645B",
"t. c #776459",
"y. c #5B5C61",
"u. c #635D62",
"i. c #646362",
"p. c #6B6563",
"a. c #6C6966",
"s. c #65666A",
"d. c #6B6A6C",
"f. c #69686A",
"g. c #746A66",
"h. c #7C6A63",
"j. c #736D6B",
"k. c #756965",
"l. c #79716D",
"z. c #6C6E73",
"x. c #6F7175",
"c. c #6F7278",
"v. c #737274",
"b. c #73757A",
"n. c #76797D",
"m. c #7B7B7D",
"M. c #7B7675",
"N. c #736E70",
"B. c #5E6065",
"V. c #903E11",
"C. c #B63719",
"Z. c #8A302C",
"A. c #A92D23",
"S. c #D43A28",
"D. c #81471E",
"F. c #83491F",
"G. c #8B491B",
"H. c #914F1B",
"J. c #B46812",
"K. c #844B21",
"L. c #8A4E21",
"P. c #87442B",
"I. c #8D5122",
"U. c #84532C",
"Y. c #925423",
"T. c #965824",
"R. c #845835",
"E. c #95472F",
"W. c #A64F2B",
"Q. c #A6652B",
"!. c #BA7231",
"~. c #A44C18",
"^. c #DE481F",
"/. c #E85116",
"(. c #C7650F",
"). c #F56A0A",
"_. c #ED731D",
"`. c #DA4622",
"'. c #D76527",
"]. c #876F5E",
"[. c #AE6F4C",
"{. c #816F6A",
"}. c #866D65",
"|. c #83726B",
" X c #88776E",
".X c #957967",
"XX c #817875",
"oX c #B08A2C",
"OX c #FE9A17",
"+X c #FE8F0B",
"@X c #FAA628",
"#X c #FEAD2E",
"$X c #EE8B28",
"%X c #FFC632",
"&X c #A99674",
"*X c #FFBC5C",
"=X c #FFD860",
"-X c #FFD071",
";X c #FFD34C",
":X c #7B7D82",
">X c #7E8186",
",X c #7F8388",
"<X c #818286",
"1X c #82858A",
"2X c #85898E",
"3X c #8A8A8D",
"4X c #878B90",
"5X c #8A8D92",
"6X c #8D9195",
"7X c #8F9398",
"8X c #939599",
"9X c #968C8A",
"0X c #A39A96",
"qX c #AA9D80",
"wX c #ABA59A",
"eX c #A7A09B",
"rX c #ABA18C",
"tX c #9B9EA1",
"yX c #9FA2A5",
"uX c #A3A4A7",
"iX c #B8B1AF",
"pX c #E1BF92",
"aX c #C2B3A0",
"sX c #FEC684",
"dX c #FEDFB9",
"fX c #ECDDB6",
"gX c #CEC7C5",
"hX c #FEEFC5",
"jX c #F9EDD8",
"kX c #FEF9ED",
"lX c #E8E4E3",
"zX c #E3DFDD",
"xX c None",
/* pixels */
"xXxXxXxXxXxXxXxXxXxXxXxXxXxXxXzXzXxXxXwXwXgX0X5.1.o.x : N 2 O.-.5.5.%.5.-.#.V I g.XX0XgXxXxXxXxXxXxXxXxXxXxXxXxXxXxXxXxXxXxXxXxX",
"xXxXxXxXxXxXxXxXxXxXxXxXxX9X-.XXXX%.8.p.p.j.6.5.#.$.o.O.O.Y &.%.I N &.I I o.o.I %.w.r.j.8.I 5.9X0XiXxXxXxXxXxXxXxXxXxXxXxXxXxXxX",
"xXxXxXxXxXxXxXxXxXxXxXxXp.p.O.6.&.M I &.o., { ;.%.O.%.7.&.%.q.q.%.Y i.#.@.6.-.I Y ;...U I %.5.8.l.XXl.xXxXxXxXxXxXxXxXxXxXxXxXxX",
"xXxXxXxXxXxXxXxXxXxXp.%.M V 6.m.a.M &.a.@., %.i.%.O.@.;.O.O.%.=.O.I q. .O.=.#.V #.0.0.O.%.p.-.x O.M { O.xXxXxXxXxXxXxXxXxXxXxXxX",
"xXxXxXxXxXxXgXiXXX#.O.q.w.#.o.i.0.x  .;.&.2 &.p.&.I &.;.O.I =.;.O.O.v.I &.;.O.N O.0.;.Y O.>.-.+.j.7.I < I k.iXxXxXxXxXxXxXxXxXxX",
"xXxXxXxXxX9X8.m M : 6.q.7.O.m a.a.U  .0.;.M ..;. .I ..=...Y a.d.;.Y >.U X.=. .M &.f.;.I &.q.-.w.>.-.U Y a.N < 3.0XgXxXxXxXxXxXxX",
"xXxXxXlXiXp.$.7.p.o.U &.;.O.x &.>.U Y q.a.I X.;.O.V I X. .I =.>.O.I =.I O.=.I m ..0.O.I ;.w.O.w.>.o.#.0.q.O.2 U #.5.k.xXxXxXxXxX",
"xXxX0Xp.8.M  .p.q.=.N O.;.;.U I &.U U O.;.m I ..B M  ...I 7 U X.U 2 U 4 6  .U 2 X...M o.;.-.U 0.=.I %.p.=.I O.%.@.V I l.iXxXxXxX",
"xXwXw.Y I 4 m &.;.;.Y I %.0.O.m X.U 2 6 | 2 4 7 2 2 M U 2 , 3 4 , # , , < 5 2 > 7 6 < M X.X.N =.X.Y ;.i.&.M 6.>.&.7 , 6.l.iXxXxX",
"xX0X2 ;.q.I 2 U &.,.=.I Y =.O.> 7 2 > : , - # - # # # : # # - - # # - # : : & $ - , $ : 2 2 2 X.7  .7.0.o.Y a.>.[ 4 M o.M 9XgXxX",
"r.q.U ;.q.q...2 M &.;.X.x 2 7 # # o o X o # X X # # o & # # o o X # # # o o o o X X o O X o : < > I ;.@.M w.v.&.2 M 7.;.B V 9XgX",
"U : > &.0.0.>.O.> 7 ....2 # X # O O X - - > 2 7 I O.O.O.I B C C N I I o.O.o. .M 2 : - # O O O O X , 7 2 m f.=.7 < @.v.v.@., @.8.",
"%.6. .> 4  .=.=.O.> 2 , # # O X A @.a.XX3X6X6X6X6X5X4X3X1X1Xi.:.d.1X<X3X3X5X5X6X6X8X3XXXd.@.< X O X # : M =.6 , o.q.f.=.4 m C 5.",
";.a.q.@.< , B ..| 2 # # # # 7 q.1X6X5X6X5X6X8X7X6X6X5X5X5X5Xd.u.v.4X5X6X6X6X6X5X7X6X5X4X5X6X3Xp.M # X X : 7 > I =.;.X.4 V ;.;. .",
"o.;.a.0. .4 , 4 2 : X X 2 ;.m.5XtX8X6X3XXXm.v.j.g.k.j.N.2X4Xd.u.x.4X4Xv.j.g.j.j.v.n.m.1X6X8X8X6XXX6.4 o X # ,  ...U N Y ;.p.q.I ",
"7 U ..&.=.X.M > # # # B a.3XtX7X<Xv.p.6.3.1.T T Z Z Z #.1X5Xd.y.x.5X2X$.Z Z Z T ^ #.3.8.k.N.<X7XyX5Xd.I # o , 7 M B O.a.d.0.>.| ",
"I , > 2 X...X.4 X O 4 M.8X8X1Xm.8.T l e e w r r r t t n ,X6Xd.>.v.5X3Xx t r r u r e e e l Z 8.:X2X7X8Xm.M X o : 2 #.i.d.s.=...7 ",
"a.;.U # , 6 7 - o # j.8X8X1XN.Y e r r p a p s G.K K p Z 2X4Xd.u.v.3X1Xx u s L D.G.r a a r e e Y N.,X7X6Xj.- X : | ....| U 2 > > ",
"a.d.p.&.4 $ # # & #.5X7X2Xp.l t a D.P K K s H.H.F.L E Z ,X4Xd.>.N.4X1XN d L I.Y.H.p F.L.K y t y x i.1X5X3X@.o o > < < l m O.%.;.",
"=.;.=.=.&.U > # , M.5X5Xx.Y i s P I.D.L L K Y.I.P L K Z 1X4Xd.0.z.4X1XN d D.I.T.H.p D.Y.P p d L i Z N.4X5Xm.< o - 4 #.;.q.a.q.0.",
", < 4 B | B , # | 6X6X1X3.c a K.I.I.F.D.P s Y.Y.P L F T 2X5Xf.7.v.4X2XN s K.I.T.I.p F.Y.P a f G.f z %.m.6X6X@.- # 7 =.=.;.&.X.U ",
"I U 4 , , , # , 6.8X5XN.Y i L Y.I.F.I.I.F.f Y.H.P K F Y 2X5Xf.y.x.4X1XN d ~ Y.T.I.d F.Y.P a L L.D.y N i.6X8Xi., # , 7 4 2 , , , ",
"q.q.&.I 4 # # 4 v.6X4X;.n s P T.F.D.I.I.F.K T.Y.D.K F V 1X5Xd.u.x.5X2XN u L Y.T.I.a F.T.~ a L I.I.d l -.2X6Xv.2 # > 2 4 4 4 6 M ",
"0.;.>.0.;.B # 4 n.6X1XO.v L D.T.F.P F.I.F.K T.I.K.f F o.1X5Xf.u.v.5X3XV u L I.Y.L.f F.T.K.a f L.I.K i #.,X2Xn.m > U 0.q.q.a.j.d.",
"} 6 ' } U , # 4 b.6X>XY D F.D.Y.H.L F.I.K.s T.I.L f F Y 1X5Xf.y.x.4X2XV u L I.Y.I.f L.Y.D.a L Y.I.L u +.n.2Xn.M $ 7 ....,.>.0.0.",
"Y Y U M > # o 7 n.4Xm.Y D K.F.Y.K.K D.I.K.s T.Y.L f F o.1X5Xd.u.x.5X3XI u L I.Y.I.f K.Y.D.a f Y.I.K E +.b.2Xn.N : - > , , 2 2 < ",
"q.0.#.&.M # # 6 n.4Xn.T F D.K.Y.D.L K.I.K.f T.Y.~ f F O.1X5Xd.y.z.5X1XV u L Y.Y.L.f K.Y.K.a f L.I.L d T x.2Xb.I > 2 I O.;.q.w.q.",
";.=.&.&.M # X 6 n.2Xc.+.E D.K.I.D.P K.I.F.f T.T.L f F O.2X5Xd.7.z.2X<XB v P Y.Y.L.f K.T.~ a f H.L.L d ` x.2Xb.U > 6 =.;.w.M.m.v.",
"U U U  .2 # X 7 b.4Xc.%.^ ) R.R.) ) R.R.) / R.R.( ^ ` -.1X4Xz.>.z.2X1XX.Z ) R.R.R.^ R.R.) ^ / R._ ) ^ 3.v.2Xb.M $ 4 U U ..&.&...",
"I I Y O.I , # 7 c.4Xn.s.w.a.l.7.p.j.w.p.j.i.w.j.k.7.u.s.1X4Xf.>.d.4X1Xy.;.p.g.k.u.N.p.k.k.a.7.l.j.q.a.j.c.4Xc.U # $ < > > 2 2 m ",
"0.0.0.>.O.2 # 7 c.4Xn.x.s.x.,Xi.z.:Xs.s.>Xz.,.:XN.y.f.:X>X4Xd.:.d.2X2Xs.,.v.m.s.u.2Xs.f.m.n.y.:X:Xi.x.:Xb.2Xb.m $ 7 %.q.#.q.w.j.",
"....X...6 , # 7 b.4Xn.i.;.-.;.-.-.;.#.-.5.-.*.5.-.-.-.i.,X4Xs.:.z.2X2X>.*.-.-.-.*.7.-.%.:.-.@.;.;.&.;.i.b.2Xv.U $ 7 =.=.=.a.d.a.",
"2 < < < > * o m s.5X[.#.n b G D b b D D b v D D b v Z -.,X4Xs.=.f.2X1X@.x v D D H c D D b c n D D b n #.b.2Xb.M * , B M 5 | E.| ",
"V X.O.I 4 V.o n A z.b.#.b p f L a a f K s d f L a s E #.1X4Xu.=.s.2X2Xo.z s f L f r f L s u a K K a u 1.b.4Xb.M & G.C n g > 4 4 ",
"7.p.N.f.Q.3 o 0 0 u.n.3.D f D.H.K L D.F.L s K.L.f f Q -.>X4Xy.*.s.2X2X .v f F.H.F.d D.F.P a K G.G.L F 1.b.2Xc.M H.2 #.0 0 3  .O.",
">.d.y.3 X.4 O A.k s.n.3.R ~ F.T.K P I.I.P K I.Y.f P U.-.:X4X>...s.4X2Xo.v P I.T.I.p F.Y.F.f L I.L.~ F 1.b.4Xy.. o M 5 A.q X.i.q.",
"&.,.=.G G <   A.Z :X:XQ.R W K.T.K P K.I.F.K I.I.K ~ U.%.>X2X>.@.s.1X1XO.H L I.I.F.p D.Y.F.K K I.I.K.F 1.b.3Xs.v r 2 & A.x ..&.Q.",
"- : : &   + 0 ).V.$..X(.G F _ 9.D W D.F.~ f ~ _ ^ R ! $.b.>X-.X.>.m.m.I v Q _ _ Q u P I.L s E _ _ R D 1.v.2Xz.4   + 0 ).V.+ u J.",
"O.#.& O k A.^.+X/.0 8.h G ].iXwX` F s K f s e.0X0X].F F ^ R E d E ^ R u u }.wX0X9.p s s s d ^ iXiX].G G 5.1X3   k A.^.+X/.0 O.< ",
"i.8 S.`._.OX+X@X).S.o K Q h.yX8X4.E K K L ~ e.8X8Xh.F K K K s s f s f f D |.8X6Xr.K K K K W ` uXyXl.^ s ^ 1 S.S._.OXOX@X).S.; q.",
"..  ).+X%XdX=X@X^.S H t ( h.5X1X` W F.I.F.K.e.<X,Xt.E P L L K K L L f L W r.2X<Xt.F.F.P P L ` 4X5Xk./ L v   ).+X%XdX=X@X`.S B 3 ",
"* (.@X;XhXkXkX@XA.j f w ! h.4X1X_ ~ F.I.H.U.e.<X,Xe.W P P F.P P P P D.D.~ t.,X<Xt.L.F.D.P L / 4X4Xk.( D.t (.#X;XhXkXkX@XA.h n + ",
"0 $X=XhXkXhX*X_.0 V L.H.) h.4X1X` ~ D.F.K.K.8.&X,Xt.~ K.H.I.I.I.I.I.G.I.! h.1X<Xt.I.F.F.F.~ _ 4X4Xk.) D.0 $X=XhXkXhX*X_.0 B 4.4.",
"q $XjXdXkX=XOXOX^.0 i L ( t.1X:X9.I.H.F.~ ~ ;.z.n.e.W L L.I.H.I.L.L.L.I.! t.:Xm.t.I.H.F.L L ` ,X1Xp./ G.q $XjXdXkX=X+X+X^.0 ..i.",
"q ).-X#XjXkXsX#X`.0 e L W +.y.>.^ ~ D.L D.~ $.:.,.+.W L D.D.K.D.D.P D.L K +.,.>.1.K.F.P L K R ,.y.#.R f q ).-X#XjXkXsX#X`.0 5 =.",
"A C.+XOX=X-XhX_.S V 2.G E I } ' x p s s a a M [ ' N u E ^ ^ n c c ^ T c c N } 6 I p s s a p c ' ' M c G c C.+XOX=X-XhX/.S * 5 M ",
"V & ~.J.oXQ.Z.  ..,Xf.T N c N N i s K f s a n N m n b Y i.i.B < | i.7.C c c N N c r K L s r u I N n n T a.3 ~.J.oXQ.Z.  C V { I ",
"N &XwXwXeXrX&X^ ..2Xx.+.T d ~ ~ E K.I.F.P L K W D W ! -.>X1X@.7 :.,X:X .E E W W E p F.H.D.s s W ~ F D 1.%.&XwXwXwXrX&X2...7.q.i.",
"3 ] .XqX.X.X-.8 { 5Xc.3.H f Y.Y.~ F.Y.L.D.K.F.I.P P U.5.,X4X=.5 y.2X:X .Q K.H.F.K.a L.T.K.f f I.Y.L D ` 3 ] .XqX.X.X5.8 [ s.N.d.",
"5 % * S h J . % [ 4Xs.#.G f Y.I.K.L.I.F.P K.I.I.P K.R.6.,X2X@.M :.2X:X .~ L.I.I.L.a L.Y.K.f f L.Y.K v T <.% % J j S . % 5 >.i.>.",
"8 g W.!.f Z.P.% [ 4Xz.-.^ ^ _ _ / ) ) ( / / ) ) / ( 9.;.>X2X@.4 :.2X>X@.` ) R.) _ ^ ) R./ ^ / ) ) / ^ %.<.g W.!.J P.P.% X > < 2 ",
"V 9 g J [.Q.j   :.4Xc.z.f.j.XXk.j.XXj.g.M.l.g.M.j.g.j.v.,X5X@.m *.1X>Xs.w.l.M.g.g.v.j.j.l.l.a.XXXXa.j.v.f.8 j H [.Q.j & { %.%.6.",
"-.| .   l e . ; y.5Xb.z.z.c.:Xz.v.:Xz.z.:Xb.i.m.b.s.z.:X>X2X@.4 *.,X:Xz.i.x.n.z.z.1Xz.z.m.b.i.:X:Xs.v.:Xc.z..   l l . @.a.a.i.i.",
"<.X.N aX.X}.& < y.5Xc.u.*.3.6.@.#.8.#.#.5.-.O.5.-.#.-.d.>X2X@.2 -.1X:Xy.O.%.5.%.$.6.%.#.5.3.O.6.6.#.5.i.z.2XY rX.X}.& >.q.>.&.@.",
"| B 8 3 Z = & , >.4Xz.#.x t u u t y u r t y d d y y n -.>X2X@.< *.,X:X .z u r u r t u u r t y d u y t o.z.1X] 3 Z = & B B N 7 4 ",
": : - + Z.g O : >.5Xz.3.n a f V.a f L f a f f f a s Q 5.,X4X@.< *.2X:X .F L L L f r L L f a f L P a v T z.4X[ h Z.% X : 2 m N m ",
";.;.[ t E.g O < >.2Xz.3.G s I.Y.L K.L.K.f L K.L.f ~ R.5.1X2XO.< -.,X,X{ ! L.L.I.D.p L.Y.K.L L L.Y.L F 1.z.4X[ z E.g B 7.d.v.j.f.",
">.:.[ i '.. O 1 >.4Xz.3.G s L.Y.L ~ L.K.f ~ L.L.D.K.R.5.1X4XO.< *.1X:Xo.~ L.L.Y.P.p L.Y.K.L L Y.T.f D 1.z.4X[ z !.. ] :.7.i.s.0.",
"B B 3 g J % O 1 :.4Xz.3.T F / ( J / ( Q D R ! Q F Q _ 5.:X5Xo.1 *.1X:X..^ ( ( ( Q G ( ( R R R ( U.R G 5.z.2X{ h J g = B B B U B ",
"M M 3 @ E.% O 1 :.4X:Xf.u.8.r.h.|.{. X{.|.|.|.h.r.r.p.z.1X5XO.l #.1X1Xs.r.r.t.t.{.{. X X X|.|.h.r.8.8.p.b.2X{ % W.% 3 V |  .| X.",
";.%.{ u.[.{ % ; :.4X1X1X3X1X1X5XyXuXuXuXuXuXtX5X1X1X,X>X2X5XO.1 @.1X2X1X,X1X1X5XtXuXuXuXuXuXyX5X1X1X1X,X1X4X{ u.[.A 3 q.a.p.i.a.",
"f.7.] wXpX{.= > *.1X,X1X1X<X,X<X<X<X,X,X,X<X<X1X1X,X>X,X1X2X{ l { :X,X<X,X,X,X<X<X<X1X<X>X<X<X4X1X1X1X,X1X<X] wXsX}.& f.a.>.;.-.",
"{ B 9 . j %   + C #.@.@.@.#.@.#.*.@.#.@.@.@.@.@.@.@.@.#.#.@.x + A #.@.#.@.@.@.@.@.*.@.@.$.@.@.#.@.*.@.@.@.{ 9 . A = 9 [ 6 ' ' ' ",
"1 2 1 O . 9 5.k.{.{.{.{.{.{.{.{.{.{.{.{.{.{.{.{.{.{.{.{.{.{.h.h.}.{.{.{.{.{.{.}.{.{.{.{.{.{.{.{.{.}.{.{.{.{.w.] .   # # - # - - "
};
