/* XPM */
static char *result[] = {
/* columns rows colors chars-per-pixel */
"64 64 229 2 ",
"   c #1C0C1A",
".  c #1A0619",
"X  c #1E101C",
"o  c #23091D",
"O  c #261B1A",
"+  c #2A1D1B",
"@  c #251719",
"#  c #39111C",
"$  c #2C201E",
"%  c #33211E",
"&  c #370C23",
"*  c #271826",
"=  c #361D26",
"-  c #2E2222",
";  c #2D212E",
":  c #322524",
">  c #352827",
",  c #352B2A",
"<  c #3B2D2C",
"1  c #382727",
"2  c #3D302E",
"3  c #372B35",
"4  c #3C3332",
"5  c #3D3639",
"6  c #3E393A",
"7  c #3C3536",
"8  c #1F1022",
"9  c #52141C",
"0  c #43141D",
"q  c #4C2616",
"w  c #5A2D16",
"e  c #542D1A",
"r  c #572B19",
"t  c #5D331C",
"y  c #59311A",
"u  c #643519",
"i  c #693719",
"p  c #6C3A1B",
"a  c #63361B",
"s  c #723E1B",
"d  c #7D291B",
"f  c #4B1928",
"g  c #5D1B2A",
"h  c #651C25",
"j  c #4B2B25",
"k  c #572825",
"l  c #48342D",
"z  c #553424",
"x  c #5C3624",
"c  c #5D3925",
"v  c #573929",
"b  c #433634",
"n  c #443836",
"m  c #4B3A34",
"M  c #433B3B",
"N  c #4B3E3B",
"B  c #43353D",
"V  c #563C33",
"C  c #682626",
"Z  c #782424",
"A  c #643C25",
"S  c #6A3E22",
"D  c #633D2A",
"F  c #65392A",
"G  c #713B25",
"H  c #76411D",
"J  c #7C441D",
"K  c #7F481F",
"L  c #4C413E",
"P  c #47403F",
"I  c #53423C",
"U  c #5C433B",
"Y  c #5D463A",
"T  c #6C442C",
"R  c #6B4025",
"E  c #734424",
"W  c #75492C",
"Q  c #7A4D2D",
"!  c #794725",
"~  c #6D4A33",
"^  c #674735",
"/  c #744E34",
"(  c #794F33",
")  c #7C5335",
"_  c #78543A",
"`  c #6B513F",
"'  c #3A2E43",
"]  c #3E3E41",
"[  c #433E44",
"{  c #3E4044",
"}  c #464242",
"|  c #4C4443",
" . c #4D4B4C",
".. c #4B4747",
"X. c #524543",
"o. c #544946",
"O. c #5C4A43",
"+. c #554C4C",
"@. c #5B4E4A",
"#. c #574445",
"$. c #5B514E",
"%. c #55514E",
"&. c #544D51",
"*. c #555352",
"=. c #5B5453",
"-. c #5B5956",
";. c #5B5759",
":. c #5D5B5B",
">. c #57575B",
",. c #4E4A53",
"<. c #634C42",
"1. c #62524C",
"2. c #665146",
"3. c #755843",
"4. c #625553",
"5. c #645956",
"6. c #625D5B",
"7. c #6B5D58",
"8. c #7A544C",
"9. c #5F605E",
"0. c #64615E",
"q. c #6C615E",
"w. c #6F6057",
"e. c #75645B",
"r. c #776459",
"t. c #5C5D62",
"y. c #615D62",
"u. c #656363",
"i. c #6B6563",
"p. c #6B6866",
"a. c #64656A",
"s. c #6C6A6C",
"d. c #69686A",
"f. c #746A66",
"g. c #7C6A63",
"h. c #736D6B",
"j. c #756965",
"k. c #78716D",
"l. c #6C6E73",
"z. c #6F7175",
"x. c #6F7278",
"c. c #737274",
"v. c #72757A",
"b. c #76797D",
"n. c #7B7B7C",
"m. c #7B7675",
"M. c #736E70",
"N. c #5E6065",
"B. c #902D1F",
"V. c #8E2326",
"C. c #853528",
"Z. c #AA2E22",
"A. c #CA3C1B",
"S. c #D43A28",
"D. c #81471E",
"F. c #83491F",
"G. c #884C1F",
"H. c #99571F",
"J. c #B06A14",
"K. c #844B21",
"L. c #8A4E21",
"P. c #804C28",
"I. c #8D5122",
"U. c #84532C",
"Y. c #925423",
"T. c #965924",
"R. c #845835",
"E. c #904D33",
"W. c #AC5D34",
"Q. c #9F6226",
"!. c #B26735",
"~. c #B54F17",
"^. c #F35F0C",
"/. c #E2481B",
"(. c #EA5A14",
"). c #FA7807",
"_. c #F76C08",
"`. c #D94223",
"'. c #CC752F",
"]. c #CA5715",
"[. c #84685B",
"{. c #AE7356",
"}. c #816F6A",
"|. c #866D62",
" X c #83736B",
".X c #877669",
"XX c #817875",
"oX c #977965",
"OX c #FB8911",
"+X c #FF9A10",
"@X c #FFA619",
"#X c #FFB930",
"$X c #C5803A",
"%X c #FFC632",
"&X c #AD9274",
"*X c #9E876B",
"=X c #FFBA52",
"-X c #FFB96A",
";X c #FFDC74",
":X c #7B7D82",
">X c #7E8186",
",X c #7F8388",
"<X c #818286",
"1X c #82858A",
"2X c #85898D",
"3X c #8A8A8D",
"4X c #878C90",
"5X c #8A8D92",
"6X c #8D9195",
"7X c #8F9398",
"8X c #939599",
"9X c #998D88",
"0X c #A39A96",
"qX c #ABA49A",
"wX c #9B9EA1",
"eX c #9FA2A5",
"rX c #A3A4A7",
"tX c #B8B1AF",
"yX c #C3BCB9",
"uX c #FFD982",
"iX c #FFE493",
"pX c #EBD8AE",
"aX c #CEC7C5",
"sX c #FEEFC5",
"dX c #F9F0DA",
"fX c #FEF9ED",
"gX c #E8E4E3",
"hX c #E3DFDD",
"jX c None",
/* pixels */
"jXjXjXjXjXjXjXjXjXjXjXjXjXjXjXhXhXjXjXqXqXaX0X4.O.#.l : P 2 o.$.4.4.$.4.4.+.N I f.XX0XaXjXjXjXjXjXjXjXjXjXjXjXjXjXjXjXjXjXjXjXjX",
"jXjXjXjXjXjXjXjXjXjXjXjXjX9X=.XXXX$.7.i.i.h.5.4.O.@.#.o.Y L %.%.X.m %.L N o.X.L $.q.e.h.7.L 5.3X0XtXjXjXjXjXjXjXjXjXjXjXjXjXjXjX",
"jXjXjXjXjXjXjXjXjXjXjXjXi.q.o.6.%.m L *.| , | 6.$.o.$.6.@.$.0.0.$.I 0.$.+.-.$.L I -.%.L L $.4.7.k.XXk.jXjXjXjXjXjXjXjXjXjXjXjXjX",
"jXjXjXjXjXjXjXjXjXjXj.@.N N 5.n.p.n %.0.+., =.6.%.o.+.-.%.I *.-...I u.P +.-.o.L %.9.9.L $.i.=.l o.M I #.jXjXjXjXjXjXjXjXjXjXjXjX",
"jXjXjXjXjXjXyXtXXX@.o.0.7.@.| u.-.m L -.%.2 %.u.%.L %.-.o.P -.-.%.o.c.L o.*. .m @.9.-.I +.-.-.@.h.6.M 2 L f.tXjXjXjXjXjXjXjXjXjX",
"jXjXjXjXjX9X7.b m : 5.0.:.o.b p.p.L o.9.0.b  .-.| L o.>.o.L 0.s.$.I -.L o.-.o.b %.s.*.L @.0.$.q.6.*.L Y f.n < 1.0XaXjXjXjXjXjXjX",
"jXjXjXgXyX7.o.y.u...P %.-.o.b $.9.P L 0.q.P o.>.X.N P ..o.L =.:.%.L *.L o.%.L 4  .-.I ..-.q.I q.:...O.0.9.o.2 L @.4.j.jXjXjXjXjX",
"jXjX0Xi.7.b } i.0.-.m o.-.=.L L %.P P o.-.b | ..M n |  .P 4 P ..P < { 2 M ..P 2 .. .P L -.-.L 9.*.L =.u.=.L o.%. .N I k.tXjXjXjX",
"jXrXq.I L 2 b %.-.-.o.L $.0.o.l ..M 4 6 } < 4 6 2 2 7 P 2 , 3 4 > $ , , 2 5 4 1 5 6 < n ....n >...L -.u.%.n 5.9.*.7 < $.k.yXjXjX",
"jX9X4 -.0.L 4 P %.-.*.L L %...> 4 l > , , : - - $ $ % : $ $ - * $ $ - $ - - - + - , % : 4 2 2 | M X.6.9.o.I p.-.L 4 n ..n 9XtXjX",
"e.q.P -.0.0. .4 7 %.-...l 2 7 $ + + + + O + + + $ $ * $ $ $ + + + $ $ $ + $ + + @ + + + O O = < : L -.+.n q.k.%.< M 6.:.N [ 8XaX",
"L > > %.9.0.-.o.> 4 %. .2 O $ $ + @ @ * - : 2 b L o.X.X.L N m b n N L o.#.o.N B 4 - - + @ @ @ @ O , 7 2 n u.>.7 < +.c.c.+., O.w.",
"%.5.L 2 4 | *.*...< 2 , $ $ @ O < @.s.n.3X6X6X6X6X4X4X5X1X1Xi.;.s.1X<X3X5X6X5X6X6X7X3XXXs.+.b @ @ + + : n *.6 , L u.p.+.2 b b 4.",
"-.p.0.o.2 , P ..P 2 $ $ $ $ 4 0.3X6X6X6X6X5X8X7X6X6X6X5X5X4Xs.y.c.4X4X6X6X6X7X7X7X7X5X5X6X6X3Xi.M $ @ + : 7 > L =.-. .b N 6.-.X.",
"| -.p.9.L 4 2 2 2 : O O 2 -.n.6X8X8X6X2XXXn.c.h.f.j.f.M.2X4Xs.y.c.4X5XM.f.f.f.M.c.n.:X1X6X8X8X6XXX6.4 + + - 1 .. .P n X.-.i.:.| ",
"4 P  .%.*. .4 > $ $ $ M p.3XwX8X>Xm.i.5.1.<.U U V V V @.1X4Xs.y.z.4X2XO.V V V V ^ O.1.5.i.k.<X6XwX5Xs.L + + , 7 b M o.p.s.9.-.| ",
"L < > 4 .. ...2 + @ 7 n.8X7X1Xn.7.V e q q q q u w w e v >X6Xs.:.c.4X3Xl q w w w w q q q j N 7.:X2X7X8Xn.b O + : 4 +.i.p.u.*...6 ",
"p.-.P $ , 6 7 : + + h.7X8X2XM.U j r w u u u s D.H p i I 1X6Xs.y.c.5X1Xl t s J F.D.w i i r q q U M.1X7X7Xh.$ + - P %. .} M 4 < > ",
"s.p.u.%.4 % $ $ + +.5X7X2Xi.l e i D.D.H s s G.I.D.J R V >X3Xs.:.l.4X1XV a J I.Y.H.w F.G.s w r w j d.<X5X5X@.+ + > 2 < l m o.$.-.",
"-.-.*.*.%.P > $ , m.6X5Xh.I r i D.I.K.H J s Y.Y.K J H U 1X4Xs.t.M.4X1Xm a F.Y.Y.H.u F.Y.D.a a J e V h.5X5Xn.3 + $ 4 +.-.0.p.0.-.",
"< < 4 M } M , $ | 5X6X1X4.z p F.L.I.F.F.D.s Y.I.K J R I 1X5Xd.t.l.4X2Xm A F.Y.Y.Y.u F.Y.D.i s G.s j $.n.6X6Xo.- $ 6 %.=.>.%...M ",
"P P 4 > , , $ , 6.7X6Xs.I w H Y.L.K.L.G.D.s H.Y.F.H p I 2X5Xd.6.c.4X2Xn a F.I.T.L.a D.H.! p H L.K.y m i.6X7Xu., $ , n 7 2 < , > ",
"0.0.%.L 4 $ $ 4 c.6X4X-.x p J T.G.F.L.Y.F.s Y.Y.D.H S I 2X5Xs.y.c.4X2Xm t ! Y.Y.L.i F.Y.D.i H I.L.a j =.2X4Xc.4 $ : 2 2 4 4 6 P ",
"9.-.9.9.-.M $ 4 b.6X1Xo.A H F.T.L.J F.I.K.s H.Y.! s S I 1X5Xd.y.c.5X3XN t J Y.Y.L.s L.Y.D.p s Y.I.H y +.1X3Xn.b > P 9.0.u.p.s.p.",
"] 6 ] } P > $ 4 v.5X>XI A F.F.Y.G.J F.I.K.p Y.Y.J s S [ 1X5Xd.y.c.4X2XN t ! Y.Y.I.s K.Y.D.i s Y.I.J c O.b.2Xb.n % 6  .*.*.9.9.9.",
"L I m b > $ $ 7 b.4Xb.Y A K.F.I.F.H F.I.K.p T.Y.J s S O.1X5Xs.t.z.4X2XN t H Y.Y.I.s K.T.D.i s Y.I.K t Y v.3Xb.P % - , , , 4 < , ",
"0.-.*.%.b % $ 6 b.2Xv.O.S K K.I.F.J K.I.K.s T.Y.J s S #.1X5Xs.y.l.5X1XN y J Y.Y.I.s K.Y.D.u s I.I.K a Y z.3Xb.m , 2 P o.-.0.p.0.",
"-.>.%.%.b $ $ 6 v.2Xv.O.R K.K.I.F.J F.I.K.s T.T.J s R o.2X5Xs.:.l.2X<XN t J Y.Y.L.s K.Y.K.u s I.L.J R Y z.3Xb.n > n %.-.p.v.m.k.",
"P | P | 2 % O 6 v.4Xz.$.~ ) R.R.) ( R.R.) ~ R.R.( ~ ^ =.2X4Xs.:.l.4X1XX.U Q R.R.R.~ ) R.) ^ / R._ ( ~ $.z.2Xv.P % 4 P P ..%.%.o.",
"L L L o.L , $ 6 v.2Xb.a.0.p.h.q.i.h.q.i.h.i.7.h.i.7.y.a.1X4Xs.:.d.4X1Xt.-.i.k.j.i.h.i.j.j.i.7.h.h.0.p.M.v.4Xv.b $ $ 2 < > 2 2 4 ",
"9.9.9.9.o.< $ 7 v.4Xb.z.s.z.>Xu.M.>Xa.a.:Xl.>.:Xz.y.a.:X,X4Xs.>.s.2X2Xa.>.l.b.d.a.2Xd.d.b.b.t.:Xn.u.z.:Xv.2Xv.b % b $.-.@.0.p.h.",
" ..... .M , $ 7 v.4Xv.a.-.=.-.=.=.-.@.=.5.=.=.=.=.=.;.u.,X4Xd.;.s.2X2X>.=.=.-.$.&.5.&.=.;.=.=.-.;.%.-.u.v.2Xv.P % 7 *.*.%.p.h.p.",
"2 < A C.0 - = D v.3Xm.$.V c A A x x A A A z A A c x V *.,X4Xa.*.s.2X2X,.l c F A A z x A c x x A A x v @.v.3X|.B.0 < M ^ M [ ..| ",
"L X.T.3 V.@ + F v.6Xv.@.x a s J u p H H i a H H u i T @.1X4Xy.*.a.2X1XX.e i s J H w s H p t p H s p A Y v.3X{.1 V.$ M F < 2 < 4 ",
"6.W.h.=.C V.@ b z.5X{.H.A H ! Y.H J F.F.J p K.I.s s Q $.,X4Xt.&.a.2X2XX.A s L.I.F.u K I.K p H G.K.H a <.v.{.z.3 h V.4 $.+.| Y.T.",
":.s.b.y.d A.0 b z.5Xk ) T H K.T.H K L.I.F.H I.Y.H J U.$.,X2X:.+.a.4X2X..x J I.Y.L.u K Y.F.s H I.Y.K.S <.v.4Xz.3 d A.j s.s.i.k 3.",
",.>.-.] B./.9 b l.4XN.=.T E K.T.H J L.L.F.H I.I.H ! U.$.>X2X:. .a.2X1XX.A H I.Y.L.t F.Y.F.R H I.I.! S <.v.4Xl.1 B./.9 ;.-.%.{  .",
"- : = % Z.).S.o t.3 y.@.A T _ _ R E ! K.K H E _ ^ W W O.v.:X*...:.n.n.L t T _ _ ! t J L.K p R _ 3.E A <.c.2Xa.= Z.).`.  > X - , ",
"o.@.7 9 (.-X(.h * 8 : D A [.tXrX` R p H s p r.0X0X[.S S T T R i A ~ T x t |.qX0X8.a i s p u ~ tXtX|.T c 5.2X,.9 (.-X(.h   . * o.",
"u.6.9 `.).sX=XOX`.S.% E / |.8X8X2.p H H H ! 7.7XwXg.S s H H H p p s p s S }.8X8Xr.H H H H R ` eXwXg.^ p T g.9 `.).sX=XOX/.S.; 0.",
";.*.9 ^.@XsXsXuXOX(.h i ( g.5X1X` ! F.K.L.P.w.1X,Xr.R J K J H H H H J J E e.,X1Xr.F.F.K J H ` 4X5Xj./ J E 3.9 (.@XsXsXuXOX(.h ..",
"~ * /._.@XsXfXsX#X).Z.r ( g.5X1X` ! F.I.L.I.w.<X>Xr.E K K K D.D.D.D.D.D.! g.,X1Xr.G.F.D.K K _ 3X5Xj./ D.Y.% (._.@XsXfXsX#X_.Z.f ",
"~.: Z (.).;XfXfX;X+X(.9 ) g.5X2X` ! K.F.G.P.7.*X>Xr.! L.I.I.I.I.I.L.G.Y.Q g.1X<Xr.I.G.G.F.! _ ,X4Xj.) D.].U V./.).;XfXfX;X@X(.f ",
"k.-.Z /.OXiXfXuX#XOXA.r Q g.:X:X_ Y.I.K.F.! -.x.b.w.E J G.I.I.I.L.L.I.G.! r.>Xn.r.I.L.K K K ` >X<Xi./ D.P.O.Z /.OXiXfXiX#XOXA.k ",
"M.; S.^.@XsXsX%X+X^.V.y W Y t.-.^ ! D.D.F.! U ;.>.O.E J F.F.F.F.D.D.D.D.E O.>.-.` K F.D.J H T t.t.@.T H E = S.^.@XsXdX%X+X^.V.6 ",
"*.6 Z /.).=XdXOX^./.f c U P { M z a p p i a m { { m c c ^ ^ c j z ^ U z y m { ] m a i p i u z ] ] M z A <.=.Z /.).%XdXOX^./.f 2 ",
"P P 7 # B.J.J.V.# * u.Y z z m I z p H s p u v m 2 v R L u.u.N < | u.6.b z z m m z w H J p u y L m v z Y i.<X..# V.J.J.V.# o P L ",
"o.4 &X&XqXqXqX&XoX..z.@.v R E E R K.L.F.K H ! E R E W =.>X,X+.6 ;.,X:X| A R E E E t F.Y.D.i i E E S A <.l.>.*X&XqXqXqX&XoXN 0.0.",
"u.6 ' [ *X9X[..X' 8 l.@.F H I.Y.F.L.I.L.D.! I.G.J F.U.5.,X4X&.b t.4X:X| ! K.G.I.F.u I.T.F.p J I.Y.K A <.l.>.' [ *X9X[.|.' 8 c.M.",
"*.%.o & C f G & & o d.1.F G Y.I.J L.I.F.F.F.I.I.J K.U.5.,X2X+.6 ;.1X:X..W L.L.G.I.u L.T.F.p H I.Y.H A Y l.4Xo & C g G # & o u.:.",
"5 4 o C !.E C !.f o z.=.Y ~ ) ) / ) _ / / / ) ) / / 3.:.,X2X+.b ;.2X:X+./ _ R.) ) ^ ) ) / ~ W ) ) / Y $.l.2Xo C '.G C !.f o 1 < ",
"X.4.3 o f W.'.f o [ x.M.i.h.XXh.k.XXk.f.m.k.f.m.k.f.k.v.,X4X+.b =.1X:Xd.i.k.m.h.p.m.f.f.m.k.p.XXXXf.h.c.c.4X3 o f E.$Xf o ; $.6.",
"=.=.*.3 . = v . 3 :Xv.z.l.c.:Xs.x.:Xl.s.:Xv.a.n.x.d.l.:X,X4X+.4 &.1X,Xl.t.c.:Xl.l.>Xz.l.b.b.a.:Xn.d.c.:Xx.2X>.* . f v . B y.i.u.",
",.....3 .X&XoX' [ 5Xx.y.&.4.7.@.1.7.@.@.5.1.X.5.=.+.=.d.<X1X+.< &.1X:X;.o.1.4.@.O.6.$.$.1.$.o.5.5.+.$.i.z.2X:.=  X&XoX' [ 6.*.o.",
"M M [ 7 = m 3 * >.5Xl.@.j e y t r r u t e e u u e e x =.,X2X+.< +.1X:X} z t a w w q w t w e w w t e e #.l.1Xt.: * V 3 * 5 M b 7 ",
": : < l 8 E.h o >.5Xl.1.c u J H i s s s i i s s i s W -.,X2X+.< &.1X<X..S H J H H u H J H i H J J p t O.l.2Xt.1 . E.h   l b m b ",
"-.:.6.4.* W.h o :.5Xl.1.F s L.I.D.K.K.K.s K.K.L.s K.R.4.1X2Xo.< =.1X:XX.W L.Y.L.K.u K.Y.K.s C.I.Y.H A <.l.2Xy.1 . W.h = s.M.l.p.",
"-.;.;.-.; '.k 8 :.4Xl.1.D s L.Y.G K.L.K.s J K.L.! K.U.4.1X5Xo.< &.1X<X..E L.Y.L.K.u L.Y.K.K.! Y.T.H p <.l.4X6.1 o '.k * t.i.u.9.",
"N 6 M [ * C.g 8 ;.4Xl.4.U D / ) G ~ ( W A ~ W W T W _ ;.:X5Xo.1 +.1X:Xo.~ W Q ( W F ( P.W T ~ Q ) T ^ @.l.2X6.1   P.h * 6 M } 6 ",
"n M [ ..* C.h 8 ;.4Xv.s.q.w.e.r. X X X}. X X Xg.w.e.q.l.1X5Xo.1 +.2X1Xa.7.e.e.g.}.}.XXXX X X}.g.e.w.7.i.b.2X6.1   C.h * | | | ..",
"=.$.$.=.[ {.E.& &.5X1X1X1X1X1X5XeXrXeXrXrXeXeX5X1X1X<X<X1X6X#.j +.1X1X1X1X1X1X5XwXrXrXrXrXrXeX6X1X1X1X<X1X2X6.: [ {.8.3 6.i.y.i.",
"p.0.>.6 t.pX9X[ [ <X<X1X1X1X1X<X<X1X1X<X<X<X<X,X1X<X<X<X<X1X#.1 [ :X<X1X<X<X<X,X<X1X1X<X>X<X<X2X1X<X1X1X<X:X=.* t.pX&X'  .:.;.-.",
"M M 5 3 . f f . 1 +.+.+.+.@.+.+.@.+.&.+.+.+.+.@.+.+.&.+.+.+.l f l @.&.@.+.+.+.+.+.+.@.+.#.+.+.+.@.+.+.+.+.+.b & . f f . 3 ] ] ] ",
"2 2 2 - 3 . . 1.}.}.}.}.}.}.}.}.}.}.}.}.}.}.}.}.}.}.}.}.}.}.j.[.}.}.}.}.}.}.}.}.}.}.}.}.}.}.}.}.}.}.}.}.}.}.g.j.[ . . + $ $ - - "
};
