/* XPM */
static char *result[] = {
/* columns rows colors chars-per-pixel */
"64 64 7 1 ",
"  c #0F0D11",
". c #211E22",
"X c #332F32",
"o c #6E6162",
"O c #BDA99A",
"+ c #4E474C",
"@ c #0A090D",
/* pixels */
" .X.. .oOO+X .X@ .X.. .oOO+X .X@ .X.. .oOO+X .X@ .X.. .oOO+X .X@",
".X+X .X.X+@@.XX .X+X .X.X+@@.XX .X+X .X.X+@@.XX .X+X .X.X+@@.XX ",
" X.  X+. +@ +..  X.  X+. +@ +..  X.  X+. +@ +..  X.  X+. +@ +.. ",
" .X @@.  . +oX.. .X @@.  . +oX.. .X @@.  . +oX.. .X @@.  . +oX..",
".Xo.@   .X .X @..Xo.@   .X .X @..Xo.@   .X .X @..Xo.@   .X .X @.",
"X+OX. ..+oX..@  X+OX. ..+oX..@  X+OX. ..+oX..@  X+OX. ..+oX..@  ",
"oOO++.. .X .   XoOO++.. .X .   XoOO++.. .X .   XoOO++.. .X .   X",
".X+  .+.X..X. X .X+  .+.X..X. X .X+  .+.X..X. X .X+  .+.X..X. X ",
" .+ X+oX.  . X+  .+ X+oX.  . X+  .+ X+oX.  . X+  .+ X+oX.  . X+ ",
"...X+.X @@.X.+oX...X+.X @@.X.+oX...X+.X @@.X.+oX...X+.X @@.X.+oX",
"..X+oX.@ .X+X.X ..X+oX.@ .X+X.X ..X+oX.@ .X+X.X ..X+oX.@ .X+X.X ",
".X++o+X .X+o+X. .X++o+X .X+o+X. .X++o+X .X+o+X. .X++o+X .X+o+X. ",
" +oOO++.  .+@ +. +oOO++.  .+@ +. +oOO++.  .+@ +. +oOO++.  .+@ +.",
" .XXo@  @... .oX .XXo@  @... .oX .XXo@  @... .oX .XXo@  @... .oX",
". .X+ . .o. .oO+. .X+ . .o. .oO+. .X+ . .o. .oO+. .X+ . .o. .oO+",
"@  .X...oOX.@.o@@  .X...oOX.@.o@@  .X...oOX.@.o@@  .X...oOX.@.o@",
" .X.. .oOO+X .X@ .X.. .oOO+X .X@ .X.. .oOO+X .X@ .X.. .oOO+X .X@",
".X+X .X.X+@@.XX .X+X .X.X+@@.XX .X+X .X.X+@@.XX .X+X .X.X+@@.XX ",
" X.  X+. +@ +..  X.  X+. +@ +..  X.  X+. +@ +..  X.  X+. +@ +.. ",
" .X @@.  . +oX.. .X @@.  . +oX.. .X @@.  . +oX.. .X @@.  . +oX..",
".Xo.@   .X .X @..Xo.@   .X .X @..Xo.@   .X .X @..Xo.@   .X .X @.",
"X+OX. ..+oX..@  X+OX. ..+oX..@  X+OX. ..+oX..@  X+OX. ..+oX..@  ",
"oOO++.. .X .   XoOO++.. .X .   XoOO++.. .X .   XoOO++.. .X .   X",
".X+  .+.X..X. X .X+  .+.X..X. X .X+  .+.X..X. X .X+  .+.X..X. X ",
" .+ X+oX.  . X+  .+ X+oX.  . X+  .+ X+oX.  . X+  .+ X+oX.  . X+ ",
"...X+.X @@.X.+oX...X+.X @@.X.+oX...X+.X @@.X.+oX...X+.X @@.X.+oX",
"..X+oX.@ .X+X.X ..X+oX.@ .X+X.X ..X+oX.@ .X+X.X ..X+oX.@ .X+X.X ",
".X++o+X .X+o+X. .X++o+X .X+o+X. .X++o+X .X+o+X. .X++o+X .X+o+X. ",
" +oOO++.  .+@ +. +oOO++.  .+@ +. +oOO++.  .+@ +. +oOO++.  .+@ +.",
" .XXo@  @... .oX .XXo@  @... .oX .XXo@  @... .oX .XXo@  @... .oX",
". .X+ . .o. .oO+. .X+ . .o. .oO+. .X+ . .o. .oO+. .X+ . .o. .oO+",
"@  .X...oOX.@.o@@  .X...oOX.@.o@@  .X...oOX.@.o@@  .X...oOX.@.o@",
" .X.. .oOO+X .X@ .X.. .oOO+X .X@ .X.. .oOO+X .X@ .X.. .oOO+X .X@",
".X+X .X.X+@@.XX .X+X .X.X+@@.XX .X+X .X.X+@@.XX .X+X .X.X+@@.XX ",
" X.  X+. +@ +..  X.  X+. +@ +..  X.  X+. +@ +..  X.  X+. +@ +.. ",
" .X @@.  . +oX.. .X @@.  . +oX.. .X @@.  . +oX.. .X @@.  . +oX..",
".Xo.@   .X .X @..Xo.@   .X .X @..Xo.@   .X .X @..Xo.@   .X .X @.",
"X+OX. ..+oX..@  X+OX. ..+oX..@  X+OX. ..+oX..@  X+OX. ..+oX..@  ",
"oOO++.. .X .   XoOO++.. .X .   XoOO++.. .X .   XoOO++.. .X .   X",
".X+  .+.X..X. X .X+  .+.X..X. X .X+  .+.X..X. X .X+  .+.X..X. X ",
" .+ X+oX.  . X+  .+ X+oX.  . X+  .+ X+oX.  . X+  .+ X+oX.  . X+ ",
"...X+.X @@.X.+oX...X+.X @@.X.+oX...X+.X @@.X.+oX...X+.X @@.X.+oX",
"..X+oX.@ .X+X.X ..X+oX.@ .X+X.X ..X+oX.@ .X+X.X ..X+oX.@ .X+X.X ",
".X++o+X .X+o+X. .X++o+X .X+o+X. .X++o+X .X+o+X. .X++o+X .X+o+X. ",
" +oOO++.  .+@ +. +oOO++.  .+@ +. +oOO++.  .+@ +. +oOO++.  .+@ +.",
" .XXo@  @... .oX .XXo@  @... .oX .XXo@  @... .oX .XXo@  @... .oX",
". .X+ . .o. .oO+. .X+ . .o. .oO+. .X+ . .o. .oO+. .X+ . .o. .oO+",
"@  .X...oOX.@.o@@  .X...oOX.@.o@@  .X...oOX.@.o@@  .X...oOX.@.o@",
" .X.. .oOO+X .X@ .X.. .oOO+X .X@ .X.. .oOO+X .X@ .X.. .oOO+X .X@",
".X+X .X.X+@@.XX .X+X .X.X+@@.XX .X+X .X.X+@@.XX .X+X .X.X+@@.XX ",
" X.  X+. +@ +..  X.  X+. +@ +..  X.  X+. +@ +..  X.  X+. +@ +.. ",
" .X @@.  . +oX.. .X @@.  . +oX.. .X @@.  . +oX.. .X @@.  . +oX..",
".Xo.@   .X .X @..Xo.@   .X .X @..Xo.@   .X .X @..Xo.@   .X .X @.",
"X+OX. ..+oX..@  X+OX. ..+oX..@  X+OX. ..+oX..@  X+OX. ..+oX..@  ",
"oOO++.. .X .   XoOO++.. .X .   XoOO++.. .X .   XoOO++.. .X .   X",
".X+  .+.X..X. X .X+  .+.X..X. X .X+  .+.X..X. X .X+  .+.X..X. X ",
" .+ X+oX.  . X+  .+ X+oX.  . X+  .+ X+oX.  . X+  .+ X+oX.  . X+ ",
"...X+.X @@.X.+oX...X+.X @@.X.+oX...X+.X @@.X.+oX...X+.X @@.X.+oX",
"..X+oX.@ .X+X.X ..X+oX.@ .X+X.X ..X+oX.@ .X+X.X ..X+oX.@ .X+X.X ",
".X++o+X .X+o+X. .X++o+X .X+o+X. .X++o+X .X+o+X. .X++o+X .X+o+X. ",
" +oOO++.  .+@ +. +oOO++.  .+@ +. +oOO++.  .+@ +. +oOO++.  .+@ +.",
" .XXo@  @... .oX .XXo@  @... .oX .XXo@  @... .oX .XXo@  @... .oX",
". .X+ . .o. .oO+. .X+ . .o. .oO+. .X+ . .o. .oO+. .X+ . .o. .oO+",
"@  .X...oOX.@.o@@  .X...oOX.@.o@@  .X...oOX.@.o@@  .X...oOX.@.o@"
};
