/* XPM */
static char *result[] = {
/* columns rows colors chars-per-pixel */
"64 64 41 1 ",
"  c #65479E",
". c #7A5BB5",
"X c #8D6ACD",
"o c #64479F",
"O c #7A5AB5",
"+ c #C890F0",
"@ c #FECBE6",
"# c #FECAE6",
"$ c #A678F0",
"% c #64479E",
"& c #7A5AB4",
"* c #8D6ACC",
"= c #5D3A9A",
"- c #7A5BB4",
"; c #A678F1",
": c #A778F1",
"> c #5C3A9A",
", c #5D3A9B",
"< c #8C6ACC",
"1 c #8C6BCC",
"2 c #64469E",
"3 c #8D6BCD",
"4 c #A679F1",
"5 c #A779F1",
"6 c #7B5AB4",
"7 c #64469F",
"8 c #5D3B9A",
"9 c #7B5AB5",
"0 c #C890F1",
"q c #8D6BCC",
"w c #C990F1",
"e c #65479F",
"r c #65469E",
"t c #7B5BB5",
"y c #C990F0",
"u c #5C3B9A",
"i c #A779F0",
"p c #C891F0",
"a c #FECBE7",
"s c #65469F",
"d c #C991F0",
/* pixels */
" .X..oO+@#$X%&*= .X..oO+@#$X%&*= .X..oO+@#$X%&*= .X..oO+@#$X%&*=",
"-*;*%.X.*:>,.<1o-*;*%.X.*:>,.<1o-*;*%.X.*:>,.<1o-*;*%.X.*:>,.<1o",
"23.%%*;&%4=%56-723.%%*;&%4=%56-723.%%*;&%4=%56-723.%%*;&%4=%56-7",
"oO*%,8O7 9o;+XO.oO*%,8O7 9o;+XO.oO*%,8O7 9o;+XO.oO*%,8O7 9o;+XO.",
".*0-=%%291o-*7,-.*0-=%%291o-*7,-.*0-=%%291o-*7,-.*0-=%%291o-*7,-",
"*$#q.%-.4w*&.>%e*$#q.%-.4w*&.>%e*$#q.%-.4w*&.>%e*$#q.%-.4w*&.>%e",
"+@#;$-.oO*2-r%2q+@#;$-.oO*2-r%2q+@#;$-.oO*2-r%2q+@#;$-.oO*2-r%2q",
"tX4eet:.*t6*to< tX4eet:.*t6*to< tX4eet:.*t6*to< tX4eet:.*t6*to< ",
"%t; X5+*.% 9 *;%%t; X5+*.% 9 *;%%t; X5+*.% 9 *;%%t; X5+*.% 9 *;%",
"-.-*:tqo==tX.;y<-.-*:tqo==tX.;y<-.-*:tqo==tX.;y<-.-*:tqo==tX.;y<",
"..<:+X.u%t*4q.*%..<:+X.u%t*4q.*%..<:+X.u%t*4q.*%..<:+X.u%t*4q.*%",
"Oq;$w;3 tqiw;*. Oq;$w;3 tqiw;*. Oq;$w;3 tqiw;*. Oq;$w;3 tqiw;*. ",
"24pa@$;.2e.$=%:.24pa@$;.2e.$=%:.24pa@$;.2e.$=%:.24pa@$;.2e.$=%:.",
"r-<q+=r28t.O%-+*r-<q+=r28t.O%-+*r-<q+=r28t.O%-+*r-<q+=r28t.O%-+*",
"t%.*4s.e-dO &+@;t%.*4s.e-dO &+@;t%.*4s.e-dO &+@;t%.*4s.e-dO &+@;",
">%e&3O.O+#*O=.+=>%e&3O.O+#*O=.+=>%e&3O.O+#*O=.+=>%e&3O.O+#*O=.+=",
" .X..oO+@#$X%&*= .X..oO+@#$X%&*= .X..oO+@#$X%&*= .X..oO+@#$X%&*=",
"-*;*%.X.*:>,.<1o-*;*%.X.*:>,.<1o-*;*%.X.*:>,.<1o-*;*%.X.*:>,.<1o",
"23.%%*;&%4=%56-723.%%*;&%4=%56-723.%%*;&%4=%56-723.%%*;&%4=%56-7",
"oO*%,8O7 9o;+XO.oO*%,8O7 9o;+XO.oO*%,8O7 9o;+XO.oO*%,8O7 9o;+XO.",
".*0-=%%291o-*7,-.*0-=%%291o-*7,-.*0-=%%291o-*7,-.*0-=%%291o-*7,-",
"*$#q.%-.4w*&.>%e*$#q.%-.4w*&.>%e*$#q.%-.4w*&.>%e*$#q.%-.4w*&.>%e",
"+@#;$-.oO*2-r%2q+@#;$-.oO*2-r%2q+@#;$-.oO*2-r%2q+@#;$-.oO*2-r%2q",
"tX4eet:.*t6*to< tX4eet:.*t6*to< tX4eet:.*t6*to< tX4eet:.*t6*to< ",
"%t; X5+*.% 9 *;%%t; X5+*.% 9 *;%%t; X5+*.% 9 *;%%t; X5+*.% 9 *;%",
"-.-*:tqo==tX.;y<-.-*:tqo==tX.;y<-.-*:tqo==tX.;y<-.-*:tqo==tX.;y<",
"..<:+X.u%t*4q.*%..<:+X.u%t*4q.*%..<:+X.u%t*4q.*%..<:+X.u%t*4q.*%",
"Oq;$w;3 tqiw;*. Oq;$w;3 tqiw;*. Oq;$w;3 tqiw;*. Oq;$w;3 tqiw;*. ",
"24pa@$;.2e.$=%:.24pa@$;.2e.$=%:.24pa@$;.2e.$=%:.24pa@$;.2e.$=%:.",
"r-<q+=r28t.O%-+*r-<q+=r28t.O%-+*r-<q+=r28t.O%-+*r-<q+=r28t.O%-+*",
"t%.*4s.e-dO &+@;t%.*4s.e-dO &+@;t%.*4s.e-dO &+@;t%.*4s.e-dO &+@;",
">%e&3O.O+#*O=.+=>%e&3O.O+#*O=.+=>%e&3O.O+#*O=.+=>%e&3O.O+#*O=.+=",
" .X..oO+@#$X%&*= .X..oO+@#$X%&*= .X..oO+@#$X%&*= .X..oO+@#$X%&*=",
"-*;*%.X.*:>,.<1o-*;*%.X.*:>,.<1o-*;*%.X.*:>,.<1o-*;*%.X.*:>,.<1o",
"23.%%*;&%4=%56-723.%%*;&%4=%56-723.%%*;&%4=%56-723.%%*;&%4=%56-7",
"oO*%,8O7 9o;+XO.oO*%,8O7 9o;+XO.oO*%,8O7 9o;+XO.oO*%,8O7 9o;+XO.",
".*0-=%%291o-*7,-.*0-=%%291o-*7,-.*0-=%%291o-*7,-.*0-=%%291o-*7,-",
"*$#q.%-.4w*&.>%e*$#q.%-.4w*&.>%e*$#q.%-.4w*&.>%e*$#q.%-.4w*&.>%e",
"+@#;$-.oO*2-r%2q+@#;$-.oO*2-r%2q+@#;$-.oO*2-r%2q+@#;$-.oO*2-r%2q",
"tX4eet:.*t6*to< tX4eet:.*t6*to< tX4eet:.*t6*to< tX4eet:.*t6*to< ",
"%t; X5+*.% 9 *;%%t; X5+*.% 9 *;%%t; X5+*.% 9 *;%%t; X5+*.% 9 *;%",
"-.-*:tqo==tX.;y<-.-*:tqo==tX.;y<-.-*:tqo==tX.;y<-.-*:tqo==tX.;y<",
"..<:+X.u%t*4q.*%..<:+X.u%t*4q.*%..<:+X.u%t*4q.*%..<:+X.u%t*4q.*%",
"Oq;$w;3 tqiw;*. Oq;$w;3 tqiw;*. Oq;$w;3 tqiw;*. Oq;$w;3 tqiw;*. ",
"24pa@$;.2e.$=%:.24pa@$;.2e.$=%:.24pa@$;.2e.$=%:.24pa@$;.2e.$=%:.",
"r-<q+=r28t.O%-+*r-<q+=r28t.O%-+*r-<q+=r28t.O%-+*r-<q+=r28t.O%-+*",
"t%.*4s.e-dO &+@;t%.*4s.e-dO &+@;t%.*4s.e-dO &+@;t%.*4s.e-dO &+@;",
">%e&3O.O+#*O=.+=>%e&3O.O+#*O=.+=>%e&3O.O+#*O=.+=>%e&3O.O+#*O=.+=",
" .X..oO+@#$X%&*= .X..oO+@#$X%&*= .X..oO+@#$X%&*= .X..oO+@#$X%&*=",
"-*;*%.X.*:>,.<1o-*;*%.X.*:>,.<1o-*;*%.X.*:>,.<1o-*;*%.X.*:>,.<1o",
"23.%%*;&%4=%56-723.%%*;&%4=%56-723.%%*;&%4=%56-723.%%*;&%4=%56-7",
"oO*%,8O7 9o;+XO.oO*%,8O7 9o;+XO.oO*%,8O7 9o;+XO.oO*%,8O7 9o;+XO.",
".*0-=%%291o-*7,-.*0-=%%291o-*7,-.*0-=%%291o-*7,-.*0-=%%291o-*7,-",
"*$#q.%-.4w*&.>%e*$#q.%-.4w*&.>%e*$#q.%-.4w*&.>%e*$#q.%-.4w*&.>%e",
"+@#;$-.oO*2-r%2q+@#;$-.oO*2-r%2q+@#;$-.oO*2-r%2q+@#;$-.oO*2-r%2q",
"tX4eet:.*t6*to< tX4eet:.*t6*to< tX4eet:.*t6*to< tX4eet:.*t6*to< ",
"%t; X5+*.% 9 *;%%t; X5+*.% 9 *;%%t; X5+*.% 9 *;%%t; X5+*.% 9 *;%",
"-.-*:tqo==tX.;y<-.-*:tqo==tX.;y<-.-*:tqo==tX.;y<-.-*:tqo==tX.;y<",
"..<:+X.u%t*4q.*%..<:+X.u%t*4q.*%..<:+X.u%t*4q.*%..<:+X.u%t*4q.*%",
"Oq;$w;3 tqiw;*. Oq;$w;3 tqiw;*. Oq;$w;3 tqiw;*. Oq;$w;3 tqiw;*. ",
"24pa@$;.2e.$=%:.24pa@$;.2e.$=%:.24pa@$;.2e.$=%:.24pa@$;.2e.$=%:.",
"r-<q+=r28t.O%-+*r-<q+=r28t.O%-+*r-<q+=r28t.O%-+*r-<q+=r28t.O%-+*",
"t%.*4s.e-dO &+@;t%.*4s.e-dO &+@;t%.*4s.e-dO &+@;t%.*4s.e-dO &+@;",
">%e&3O.O+#*O=.+=>%e&3O.O+#*O=.+=>%e&3O.O+#*O=.+=>%e&3O.O+#*O=.+="
};
