/* XPM */
static char *result[] = {
/* columns rows colors chars-per-pixel */
"64 64 5 1 ",
"  c #0F110C",
". c #2F3124",
"X c #191912",
"o c #222319",
"O c #090B08",
/* pixels */
" .. Xo.X.X.X.X   .. Xo.X.X.X.X   .. Xo.X.X.X.X   .. Xo.X.X.X.X  ",
" .XooXo.o.o .ooo .XooXo.o.o .ooo .XooXo.o.o .ooo .XooXo.o.o .ooo",
"XoXX  .o.o. oXXoXoXX  .o.o. oXXoXoXX  .o.o. oXXoXoXX  .o.o. oXXo",
"..X ..oX.XoXooo ..X ..oX.XoXooo ..X ..oX.XoXooo ..X ..oX.XoXooo ",
"X  .oXo o o..XoXX  .oXo o o..XoXX  .oXo o o..XoXX  .oXo o o..XoX",
".oX ..X  XXXo.Xo.oX ..X  XXXo.Xo.oX ..X  XXXo.Xo.oX ..X  XXXo.Xo",
"X o.oXX X ..Xo..X o.oXX X ..Xo..X o.oXX X ..Xo..X o.oXX X ..Xo..",
"...o.o.X  Xo.XoX...o.o.X  Xo.XoX...o.o.X  Xo.XoX...o.o.X  Xo.XoX",
"Xo.o.X  Xo..X...Xo.o.X  Xo..X...Xo.o.X  Xo..X...Xo.o.X  Xo..X...",
"..o.Xo X XXX.o X..o.Xo X XXX.o X..o.Xo X XXX.o X..o.Xo X XXX.o X",
"oX.oX.XoXoX.oXo.oX.oX.XoXoX.oXo.oX.oX.XoXoX.oXo.oX.oX.XoXoX.oXo.",
"X.XX .o.X.o.o XoX.XX .o.X.o.o XoX.XX .o.X.o.o XoX.XX .o.X.o.o Xo",
" o.Xo .XoX. .o.. o.Xo .XoX. .o.. o.Xo .XoX. .o.. o.Xo .XoX. .o..",
"oXXo X .oX XoX ooXXo X .oX XoX ooXXo X .oX XoX ooXXo X .oX XoX o",
"ooo. o .o.XooXXOooo. o .o.XooXXOooo. o .o.XooXXOooo. o .o.XooXXO",
"  X.X.X.X.oX  OX  X.X.X.X.oX  OX  X.X.X.X.oX  OX  X.X.X.X.oX  OX",
" .. Xo.X.X.X.X   .. Xo.X.X.X.X   .. Xo.X.X.X.X   .. Xo.X.X.X.X  ",
" .XooXo.o.o .ooo .XooXo.o.o .ooo .XooXo.o.o .ooo .XooXo.o.o .ooo",
"XoXX  .o.o. oXXoXoXX  .o.o. oXXoXoXX  .o.o. oXXoXoXX  .o.o. oXXo",
"..X ..oX.XoXooo ..X ..oX.XoXooo ..X ..oX.XoXooo ..X ..oX.XoXooo ",
"X  .oXo o o..XoXX  .oXo o o..XoXX  .oXo o o..XoXX  .oXo o o..XoX",
".oX ..X  XXXo.Xo.oX ..X  XXXo.Xo.oX ..X  XXXo.Xo.oX ..X  XXXo.Xo",
"X o.oXX X ..Xo..X o.oXX X ..Xo..X o.oXX X ..Xo..X o.oXX X ..Xo..",
"...o.o.X  Xo.XoX...o.o.X  Xo.XoX...o.o.X  Xo.XoX...o.o.X  Xo.XoX",
"Xo.o.X  Xo..X...Xo.o.X  Xo..X...Xo.o.X  Xo..X...Xo.o.X  Xo..X...",
"..o.Xo X XXX.o X..o.Xo X XXX.o X..o.Xo X XXX.o X..o.Xo X XXX.o X",
"oX.oX.XoXoX.oXo.oX.oX.XoXoX.oXo.oX.oX.XoXoX.oXo.oX.oX.XoXoX.oXo.",
"X.XX .o.X.o.o XoX.XX .o.X.o.o XoX.XX .o.X.o.o XoX.XX .o.X.o.o Xo",
" o.Xo .XoX. .o.. o.Xo .XoX. .o.. o.Xo .XoX. .o.. o.Xo .XoX. .o..",
"oXXo X .oX XoX ooXXo X .oX XoX ooXXo X .oX XoX ooXXo X .oX XoX o",
"ooo. o .o.XooXXOooo. o .o.XooXXOooo. o .o.XooXXOooo. o .o.XooXXO",
"  X.X.X.X.oX  OX  X.X.X.X.oX  OX  X.X.X.X.oX  OX  X.X.X.X.oX  OX",
" .. Xo.X.X.X.X   .. Xo.X.X.X.X   .. Xo.X.X.X.X   .. Xo.X.X.X.X  ",
" .XooXo.o.o .ooo .XooXo.o.o .ooo .XooXo.o.o .ooo .XooXo.o.o .ooo",
"XoXX  .o.o. oXXoXoXX  .o.o. oXXoXoXX  .o.o. oXXoXoXX  .o.o. oXXo",
"..X ..oX.XoXooo ..X ..oX.XoXooo ..X ..oX.XoXooo ..X ..oX.XoXooo ",
"X  .oXo o o..XoXX  .oXo o o..XoXX  .oXo o o..XoXX  .oXo o o..XoX",
".oX ..X  XXXo.Xo.oX ..X  XXXo.Xo.oX ..X  XXXo.Xo.oX ..X  XXXo.Xo",
"X o.oXX X ..Xo..X o.oXX X ..Xo..X o.oXX X ..Xo..X o.oXX X ..Xo..",
"...o.o.X  Xo.XoX...o.o.X  Xo.XoX...o.o.X  Xo.XoX...o.o.X  Xo.XoX",
"Xo.o.X  Xo..X...Xo.o.X  Xo..X...Xo.o.X  Xo..X...Xo.o.X  Xo..X...",
"..o.Xo X XXX.o X..o.Xo X XXX.o X..o.Xo X XXX.o X..o.Xo X XXX.o X",
"oX.oX.XoXoX.oXo.oX.oX.XoXoX.oXo.oX.oX.XoXoX.oXo.oX.oX.XoXoX.oXo.",
"X.XX .o.X.o.o XoX.XX .o.X.o.o XoX.XX .o.X.o.o XoX.XX .o.X.o.o Xo",
" o.Xo .XoX. .o.. o.Xo .XoX. .o.. o.Xo .XoX. .o.. o.Xo .XoX. .o..",
"oXXo X .oX XoX ooXXo X .oX XoX ooXXo X .oX XoX ooXXo X .oX XoX o",
"ooo. o .o.XooXXOooo. o .o.XooXXOooo. o .o.XooXXOooo. o .o.XooXXO",
"  X.X.X.X.oX  OX  X.X.X.X.oX  OX  X.X.X.X.oX  OX  X.X.X.X.oX  OX",
" .. Xo.X.X.X.X   .. Xo.X.X.X.X   .. Xo.X.X.X.X   .. Xo.X.X.X.X  ",
" .XooXo.o.o .ooo .XooXo.o.o .ooo .XooXo.o.o .ooo .XooXo.o.o .ooo",
"XoXX  .o.o. oXXoXoXX  .o.o. oXXoXoXX  .o.o. oXXoXoXX  .o.o. oXXo",
"..X ..oX.XoXooo ..X ..oX.XoXooo ..X ..oX.XoXooo ..X ..oX.XoXooo ",
"X  .oXo o o..XoXX  .oXo o o..XoXX  .oXo o o..XoXX  .oXo o o..XoX",
".oX ..X  XXXo.Xo.oX ..X  XXXo.Xo.oX ..X  XXXo.Xo.oX ..X  XXXo.Xo",
"X o.oXX X ..Xo..X o.oXX X ..Xo..X o.oXX X ..Xo..X o.oXX X ..Xo..",
"...o.o.X  Xo.XoX...o.o.X  Xo.XoX...o.o.X  Xo.XoX...o.o.X  Xo.XoX",
"Xo.o.X  Xo..X...Xo.o.X  Xo..X...Xo.o.X  Xo..X...Xo.o.X  Xo..X...",
"..o.Xo X XXX.o X..o.Xo X XXX.o X..o.Xo X XXX.o X..o.Xo X XXX.o X",
"oX.oX.XoXoX.oXo.oX.oX.XoXoX.oXo.oX.oX.XoXoX.oXo.oX.oX.XoXoX.oXo.",
"X.XX .o.X.o.o XoX.XX .o.X.o.o XoX.XX .o.X.o.o XoX.XX .o.X.o.o Xo",
" o.Xo .XoX. .o.. o.Xo .XoX. .o.. o.Xo .XoX. .o.. o.Xo .XoX. .o..",
"oXXo X .oX XoX ooXXo X .oX XoX ooXXo X .oX XoX ooXXo X .oX XoX o",
"ooo. o .o.XooXXOooo. o .o.XooXXOooo. o .o.XooXXOooo. o .o.XooXXO",
"  X.X.X.X.oX  OX  X.X.X.X.oX  OX  X.X.X.X.oX  OX  X.X.X.X.oX  OX"
};
