/* XPM */
static char *result[] = {
/* columns rows colors chars-per-pixel */
"64 64 4 1 ",
"  c #251C18",
". c #2A211C",
"X c #1F1714",
"o c #312722",
/* pixels */
" .X .. . . . ... .X .. . . . ... .X .. . . . ... .X .. . . . ...",
" X  .  ...X...o. X  .  ...X...o. X  .  ...X...o. X  .  ...X...o.",
" ....X ..  X. .. ....X ..  X. .. ....X ..  X. .. ....X ..  X. ..",
"  ... ....  ....  ... ....  ....  ... ....  ....  ... ....  ....",
" ...o......  ..X ...o......  ..X ...o......  ..X ...o......  ..X",
" X ....... o ..  X ....... o ..  X ....... o ..  X ....... o .. ",
"  ...... ....X..  ...... ....X..  ...... ....X..  ...... ....X..",
". ...o. X. .. X.. ...o. X. .. X.. ...o. X. .. X.. ...o. X. .. X.",
". .....X . ... .. .....X . ... .. .....X . ... .. .....X . ... .",
"..... .X..  . ....... .X..  . ....... .X..  . ....... .X..  . ..",
" ... X. . . X... ... X. . . X... ... X. . . X... ... X. . . X...",
" . o.     X . .. . o.     X . .. . o.     X . .. . o.     X . ..",
"X...  .. .XX.. .X...  .. .XX.. .X...  .. .XX.. .X...  .. .XX.. .",
"X .   .....X.. .X .   .....X.. .X .   .....X.. .X .   .....X.. .",
".  X ...o. X.  ..  X ...o. X.  ..  X ...o. X.  ..  X ...o. X.  .",
".. X..o ......  .. X..o ......  .. X..o ......  .. X..o ......  ",
" .X .. . . . ... .X .. . . . ... .X .. . . . ... .X .. . . . ...",
" X  .  ...X...o. X  .  ...X...o. X  .  ...X...o. X  .  ...X...o.",
" ....X ..  X. .. ....X ..  X. .. ....X ..  X. .. ....X ..  X. ..",
"  ... ....  ....  ... ....  ....  ... ....  ....  ... ....  ....",
" ...o......  ..X ...o......  ..X ...o......  ..X ...o......  ..X",
" X ....... o ..  X ....... o ..  X ....... o ..  X ....... o .. ",
"  ...... ....X..  ...... ....X..  ...... ....X..  ...... ....X..",
". ...o. X. .. X.. ...o. X. .. X.. ...o. X. .. X.. ...o. X. .. X.",
". .....X . ... .. .....X . ... .. .....X . ... .. .....X . ... .",
"..... .X..  . ....... .X..  . ....... .X..  . ....... .X..  . ..",
" ... X. . . X... ... X. . . X... ... X. . . X... ... X. . . X...",
" . o.     X . .. . o.     X . .. . o.     X . .. . o.     X . ..",
"X...  .. .XX.. .X...  .. .XX.. .X...  .. .XX.. .X...  .. .XX.. .",
"X .   .....X.. .X .   .....X.. .X .   .....X.. .X .   .....X.. .",
".  X ...o. X.  ..  X ...o. X.  ..  X ...o. X.  ..  X ...o. X.  .",
".. X..o ......  .. X..o ......  .. X..o ......  .. X..o ......  ",
" .X .. . . . ... .X .. . . . ... .X .. . . . ... .X .. . . . ...",
" X  .  ...X...o. X  .  ...X...o. X  .  ...X...o. X  .  ...X...o.",
" ....X ..  X. .. ....X ..  X. .. ....X ..  X. .. ....X ..  X. ..",
"  ... ....  ....  ... ....  ....  ... ....  ....  ... ....  ....",
" ...o......  ..X ...o......  ..X ...o......  ..X ...o......  ..X",
" X ....... o ..  X ....... o ..  X ....... o ..  X ....... o .. ",
"  ...... ....X..  ...... ....X..  ...... ....X..  ...... ....X..",
". ...o. X. .. X.. ...o. X. .. X.. ...o. X. .. X.. ...o. X. .. X.",
". .....X . ... .. .....X . ... .. .....X . ... .. .....X . ... .",
"..... .X..  . ....... .X..  . ....... .X..  . ....... .X..  . ..",
" ... X. . . X... ... X. . . X... ... X. . . X... ... X. . . X...",
" . o.     X . .. . o.     X . .. . o.     X . .. . o.     X . ..",
"X...  .. .XX.. .X...  .. .XX.. .X...  .. .XX.. .X...  .. .XX.. .",
"X .   .....X.. .X .   .....X.. .X .   .....X.. .X .   .....X.. .",
".  X ...o. X.  ..  X ...o. X.  ..  X ...o. X.  ..  X ...o. X.  .",
".. X..o ......  .. X..o ......  .. X..o ......  .. X..o ......  ",
" .X .. . . . ... .X .. . . . ... .X .. . . . ... .X .. . . . ...",
" X  .  ...X...o. X  .  ...X...o. X  .  ...X...o. X  .  ...X...o.",
" ....X ..  X. .. ....X ..  X. .. ....X ..  X. .. ....X ..  X. ..",
"  ... ....  ....  ... ....  ....  ... ....  ....  ... ....  ....",
" ...o......  ..X ...o......  ..X ...o......  ..X ...o......  ..X",
" X ....... o ..  X ....... o ..  X ....... o ..  X ....... o .. ",
"  ...... ....X..  ...... ....X..  ...... ....X..  ...... ....X..",
". ...o. X. .. X.. ...o. X. .. X.. ...o. X. .. X.. ...o. X. .. X.",
". .....X . ... .. .....X . ... .. .....X . ... .. .....X . ... .",
"..... .X..  . ....... .X..  . ....... .X..  . ....... .X..  . ..",
" ... X. . . X... ... X. . . X... ... X. . . X... ... X. . . X...",
" . o.     X . .. . o.     X . .. . o.     X . .. . o.     X . ..",
"X...  .. .XX.. .X...  .. .XX.. .X...  .. .XX.. .X...  .. .XX.. .",
"X .   .....X.. .X .   .....X.. .X .   .....X.. .X .   .....X.. .",
".  X ...o. X.  ..  X ...o. X.  ..  X ...o. X.  ..  X ...o. X.  .",
".. X..o ......  .. X..o ......  .. X..o ......  .. X..o ......  "
};
